# Blender v3.3.1 OBJ File: 'marscity.blend'
# www.blender.org
mtllib 03_kfc.mtl
o 03_kfc_Grid.001
v -1.598683 -0.100000 7.999998
v 7.976305 -0.100000 8.000001
v -1.598683 -0.100000 4.799997
v 7.976305 -0.100000 4.800001
v -1.598682 -0.100000 1.599998
v 7.976306 -0.100000 1.600001
v -1.598682 -0.100000 -1.600003
v 7.976307 -0.100000 -1.599999
v -1.598681 -0.100000 -4.800003
v 7.976307 -0.100000 -4.799999
v 4.784645 -0.100000 -8.000000
v 1.592982 -0.100000 -4.800001
v 4.784645 -0.100000 -4.800000
v 1.592981 -0.100000 -1.600002
v -1.598680 -0.100000 -8.000002
v 7.976308 -0.100000 -7.999999
v 4.784644 -0.100000 -1.600000
v 1.592981 -0.100000 1.599999
v 1.592982 -0.100000 -8.000002
v -7.998684 0.000000 7.999997
v -7.998683 0.000000 4.799996
v -4.798683 0.000000 7.999997
v -4.798683 0.000000 4.799997
v -1.598683 0.000000 7.999998
v -1.598683 0.000000 4.799997
v 4.784643 -0.100000 1.600000
v -7.998683 0.000000 1.599996
v -4.798682 0.000000 1.599997
v -1.598682 0.000000 1.599998
v 1.592980 -0.100000 4.799999
v -7.998682 0.000000 -1.600004
v -4.798681 0.000000 -1.600003
v -1.598682 0.000000 -1.600003
v 4.784643 -0.100000 4.800000
v -7.998682 0.000000 -4.800004
v -4.798681 0.000000 -4.800003
v -1.598681 0.000000 -4.800003
v 4.784642 -0.100000 8.000000
v 1.592979 -0.100000 7.999999
v -7.998681 0.000000 -8.000003
v -4.798680 0.000000 -8.000003
v -1.598680 0.000000 -8.000002
v -7.358161 5.118021 -0.120614
v -7.246634 5.064440 -0.120614
v -7.220306 4.988041 -0.120613
v -8.770315 4.266938 -0.294796
v -8.720234 4.201949 -0.294796
v -8.639204 4.177124 -0.294796
v -7.358161 4.177124 -0.294796
v -7.315562 4.183485 -0.294796
v -7.246634 4.230704 -0.294796
v -7.358161 5.118021 -0.294796
v -7.220306 4.307104 -0.294796
v -7.277132 4.201949 -0.294796
v -7.227052 4.266938 -0.294796
v -7.220306 4.988041 -0.294796
v -7.227052 5.028205 -0.294796
v -7.246634 5.064440 -0.294796
v -7.277132 5.093196 -0.294796
v -7.315562 5.111658 -0.294796
v -8.639204 4.177124 -0.120614
v -8.681805 4.183485 -0.120614
v -8.750732 4.230704 -0.120614
v -8.639204 5.118021 -0.294796
v -8.681805 5.111658 -0.294796
v -8.750732 5.064440 -0.294796
v -8.777061 4.988041 -0.294796
v -8.720234 5.093196 -0.294796
v -8.770315 5.028205 -0.294796
v -8.777061 4.307104 -0.294796
v -8.750732 4.230704 -0.294796
v -8.681805 4.183485 -0.294796
v -8.639204 5.118021 -0.120614
v -8.777061 4.307104 -0.120614
v -8.720234 4.201949 -0.120614
v -8.770315 4.266938 -0.120614
v -8.777061 4.988041 -0.120614
v -8.770315 5.028205 -0.120614
v -8.750732 5.064440 -0.120614
v -8.720234 5.093196 -0.120614
v -8.681805 5.111658 -0.120614
v -7.315562 5.111658 -0.120614
v -7.358161 4.177124 -0.120614
v -7.277132 5.093196 -0.120614
v -7.227052 5.028205 -0.120614
v -7.220306 4.307104 -0.120613
v -7.227052 4.266938 -0.120614
v -7.246634 4.230704 -0.120614
v -7.277132 4.201949 -0.120614
v -7.315562 4.183485 -0.120614
v -8.137563 1.892188 -8.000001
v -8.137563 1.892188 -4.429620
v -8.137563 2.216333 -4.429620
v -8.137563 2.216333 -8.000001
v -5.459837 1.892188 -8.000001
v -5.459837 2.216333 -8.000001
v -5.459838 1.892188 -1.210925
v -5.459838 1.892188 -2.880384
v -5.459838 2.216333 -2.880384
v -5.459838 2.216332 -1.210925
v -8.137563 2.216333 -2.880385
v -8.137564 2.216332 -1.210925
v -8.137563 1.892188 -2.880385
v -8.137564 1.892188 -1.210925
v -5.459837 2.216333 -4.429620
v -5.459837 2.383603 -4.429620
v -8.137563 2.383603 -4.429620
v -5.459837 1.892188 -4.429620
v -8.137563 1.991941 -4.429620
v -8.137563 1.991941 -2.880385
v -8.137563 -0.000000 -2.880385
v -8.137564 -0.000000 -1.210925
v -8.137564 1.348560 -1.210925
v -8.137563 1.348560 -2.880385
v -8.137563 0.000000 -4.429620
v -8.137563 1.348560 -4.429620
v -8.621404 1.348560 -2.880385
v -8.621405 1.348560 -1.210925
v -8.621404 1.557648 -4.429620
v -8.621404 1.557648 -8.000002
v -5.459838 1.348560 -2.880384
v -5.459837 1.348560 -4.429620
v -5.459838 -0.000000 -2.880384
v -5.459837 0.000000 -4.429620
v -5.459837 0.000000 -8.000001
v -5.459837 1.348560 -8.000001
v -5.459838 -0.000000 -1.210925
v -5.459838 1.348560 -1.210925
v -8.137564 1.348560 -0.727085
v -5.459838 1.348560 -0.727085
v -8.137563 0.000000 -8.000001
v -8.137563 1.348560 -8.000001
v -8.621404 1.348560 -8.000002
v -8.621404 1.348560 -4.429620
v -5.459838 1.557648 -0.727085
v -8.981248 1.573765 -2.880385
v -8.981248 1.573765 -4.429620
v -8.981248 1.348560 -4.429620
v -8.981248 1.348560 -2.880385
v -8.621405 1.557648 -1.210925
v -8.621404 1.557648 -2.880385
v -5.459838 2.383603 -2.880384
v -8.137563 2.383603 -2.880385
v -8.137564 1.557648 -0.727085
v -7.955543 4.177124 -0.221719
v -7.998682 4.177124 -0.253063
v -8.041824 4.177124 -0.221719
v -7.955543 4.177124 -0.193685
v -7.972020 0.000000 -0.244400
v -7.998682 0.000000 -0.253063
v -7.972020 4.177124 -0.244399
v -7.955543 0.000000 -0.221720
v -7.955543 0.000000 -0.193685
v -7.972020 0.000000 -0.171005
v -7.972020 4.177124 -0.171005
v -7.998682 0.000000 -0.162343
v -7.998682 4.177124 -0.162343
v -8.025345 0.000000 -0.171005
v -8.025345 4.177124 -0.171005
v -8.041824 0.000000 -0.193685
v -8.041824 4.177124 -0.193685
v -8.041824 0.000000 -0.221720
v -8.025345 0.000000 -0.244400
v -8.025345 4.177124 -0.244399
v 4.784645 0.000000 -4.800000
v 4.784645 0.000000 -8.000000
v 7.976307 0.000000 -4.799999
v 7.976308 0.000000 -7.999999
vt 0.000000 0.000000
vt 0.000000 0.000000
vt 0.000000 0.000000
vt 0.000000 0.000000
vt 0.251684 0.813896
vt 0.262193 0.809379
vt 0.264673 0.802938
vt 0.263328 0.743140
vt 0.258610 0.737728
vt 0.250975 0.735661
vt 0.130277 0.814013
vt 0.130277 0.735661
vt 0.117288 0.746485
vt 0.117288 0.803189
vt 0.117924 0.806534
vt 0.130982 0.734568
vt 0.126969 0.735105
vt 0.120474 0.739086
vt 0.250975 0.814013
vt 0.263964 0.803189
vt 0.261484 0.809551
vt 0.263328 0.806534
vt 0.263964 0.746485
vt 0.261484 0.740122
vt 0.130982 0.813896
vt 0.117993 0.745527
vt 0.123348 0.736661
vt 0.118629 0.742141
vt 0.117993 0.802938
vt 0.118629 0.806324
vt 0.120474 0.809379
vt 0.123348 0.811803
vt 0.126969 0.813360
vt 0.255698 0.813360
vt 0.251684 0.734568
vt 0.259319 0.811803
vt 0.264037 0.806324
vt 0.264673 0.745527
vt 0.264037 0.742141
vt 0.262193 0.739086
vt 0.259319 0.736661
vt 0.255698 0.735105
vt 0.011849 0.719184
vt 0.011849 0.685896
vt 0.216236 0.685896
vt 0.216236 0.719184
vt 0.215271 0.723876
vt 0.012164 0.723876
vt 0.012164 0.699954
vt 0.215271 0.699954
vt 0.165062 0.725079
vt 0.062459 0.725079
vt 0.062459 0.707822
vt 0.165062 0.707822
vt 0.063561 0.722721
vt 0.063561 0.684861
vt 0.165569 0.684861
vt 0.165569 0.722721
vt 0.114206 0.662605
vt 0.114206 0.727359
vt 0.011057 0.727359
vt 0.011057 0.662605
vt 0.115252 0.727339
vt 0.011471 0.727339
vt 0.011471 0.702133
vt 0.115252 0.702133
vt 0.010187 0.711046
vt 0.223649 0.711046
vt 0.223649 0.729145
vt 0.010187 0.729145
vt 0.222127 0.688866
vt 0.222127 0.734883
vt 0.010224 0.734883
vt 0.010224 0.688866
vt 0.933333 0.000000
vt 1.000000 0.000000
vt 1.000000 0.200000
vt 0.933333 0.200000
vt 0.800000 0.600000
vt 0.866667 0.600000
vt 0.866667 0.800000
vt 0.800000 0.800000
vt 1.000000 0.400000
vt 0.933333 0.400000
vt 0.933333 0.600000
vt 0.933333 0.800000
vt 1.000000 0.600000
vt 0.866667 1.000000
vt 0.800000 1.000000
vt 1.000000 0.800000
vt 0.933333 1.000000
vt 0.866667 0.000000
vt 0.866667 0.200000
vt 0.800000 0.000000
vt 0.800000 0.200000
vt 0.866667 0.400000
vt 0.800000 0.400000
vt 0.800000 0.400000
vt 0.800000 0.200000
vt 0.800000 0.800000
vt 0.800000 0.600000
vt 0.800000 1.000000
vt 0.800000 0.000000
vt 0.933333 0.800000
vt 0.933333 1.000000
vt 0.400000 0.000000
vt 0.600000 0.000000
vt 0.600000 0.200000
vt 0.400000 0.200000
vt 0.600000 0.400000
vt 0.400000 0.400000
vt 0.600000 0.600000
vt 0.400000 0.600000
vt 0.600000 0.800000
vt 0.400000 0.800000
vt 0.600000 1.000000
vt 0.400000 1.000000
vt 1.000000 0.800000
vt 1.000000 1.000000
vt 0.501295 0.500000
vt 0.501295 0.250000
vt 0.584628 0.250000
vt 0.584628 0.500000
vt 0.584628 0.250000
vt 0.501295 0.250000
vt 0.584628 0.750000
vt 0.501295 0.750000
vt 0.501295 0.750000
vt 0.584628 0.750000
vt 0.584628 1.000000
vt 0.501295 1.000000
vt 0.501295 1.000000
vt 0.584628 1.000000
vt 0.000000 0.000000
vt 0.000000 0.000000
vt 0.000000 0.000000
vt 0.000000 0.000000
vt 0.000000 0.000000
vt 0.000000 0.000000
vt 0.000000 0.000000
vt 0.000000 0.000000
vt 0.584628 1.000000
vt 0.501295 1.000000
vt 0.126263 0.736190
vt 0.119769 0.740122
vt 0.122643 0.737728
vt 0.117924 0.743140
vt 0.119769 0.809551
vt 0.122643 0.811946
vt 0.126263 0.813483
vt 0.254989 0.813483
vt 0.258610 0.811946
vt 0.254989 0.736190
vt 0.584628 0.133759
vt 0.625000 0.133759
vt 0.625000 0.250000
vt 0.625000 0.500000
vt 0.584628 0.699574
vt 0.625000 0.699574
vt 0.625000 0.750000
vt 0.875000 0.699574
vt 0.875000 0.750000
vt 0.584628 0.050426
vt 0.584628 0.000000
vt 0.625000 0.000000
vt 0.625000 0.050426
vt 0.875000 0.616241
vt 0.625000 0.616241
vt 0.875000 0.500000
vt 0.625000 0.616241
vt 0.875000 0.616241
vt 0.584628 0.616241
vt 0.375000 0.050426
vt 0.375000 0.000000
vt 0.501295 0.000000
vt 0.501295 0.050426
vt 0.375000 0.133759
vt 0.501295 0.133759
vt 0.501295 0.050426
vt 0.501295 0.000000
vt 0.501295 0.699574
vt 0.501295 0.616241
vt 0.375000 0.699574
vt 0.375000 0.616241
vt 0.375000 0.500000
vt 0.375000 1.000000
vt 0.375000 0.750000
vt 0.375000 0.250000
vt 0.501295 0.133759
vt 0.000000 0.000000
vt 0.000000 0.000000
vt 0.000000 0.000000
vt 0.501295 0.133759
vt 0.501295 0.050426
vt 0.625000 0.699574
vt 0.875000 0.699574
vt 0.000000 0.000000
vt 0.000000 0.000000
vt 0.000000 0.000000
vt 0.150367 0.897664
vt 0.150367 0.811804
vt 0.214262 0.811804
vt 0.214262 0.897664
vt 0.478254 0.324162
vt 0.250000 0.489999
vt 0.021745 0.324162
vt 0.478254 0.175835
vt 0.232848 0.897664
vt 0.232848 0.811804
vt 0.303501 0.811804
vt 0.303501 0.897664
vt 0.150367 0.725944
vt 0.150367 0.640084
vt 0.214262 0.640084
vt 0.214262 0.725944
vt 0.058778 0.811804
vt 0.061128 0.811804
vt 0.061128 0.897664
vt 0.058778 0.897664
vt 0.056659 0.811804
vt 0.056659 0.897664
vt 0.053524 0.811804
vt 0.053524 0.897664
vt 0.146973 0.725944
vt 0.143911 0.725944
vt 0.143911 0.640084
vt 0.146973 0.640084
vt 0.305851 0.897664
vt 0.305851 0.811804
vt 0.307970 0.897664
vt 0.307970 0.811804
vt 0.018307 1.000000
vt 0.000000 0.981693
vt 0.081326 0.900367
vt 0.099634 0.918674
vt 0.217656 0.640084
vt 0.220717 0.640084
vt 0.220717 0.725944
vt 0.217656 0.725944
vt 0.136061 0.899415
vt 0.131781 0.897664
vt 0.131781 0.811804
vt 0.136061 0.810052
vt 0.137994 0.898708
vt 0.137994 0.810759
vt 0.143912 0.898148
vt 0.143912 0.811320
vt 0.146973 0.897788
vt 0.146973 0.811680
vt 0.228568 0.810052
vt 0.228568 0.899415
vt 0.226635 0.810759
vt 0.226635 0.898708
vt 0.220717 0.811320
vt 0.220717 0.898148
vt 0.217656 0.811680
vt 0.217656 0.897788
vt 0.900000 0.500000
vt 1.000000 0.500000
vt 1.000000 1.000000
vt 0.900000 1.000000
vt 0.800000 0.500000
vt 0.800000 1.000000
vt 0.700000 0.500000
vt 0.700000 1.000000
vt 0.600000 0.500000
vt 0.600000 1.000000
vt 0.500000 0.500000
vt 0.500000 1.000000
vt 0.400000 0.500000
vt 0.400000 1.000000
vt 0.300000 0.500000
vt 0.300000 1.000000
vt 0.200000 0.500000
vt 0.200000 1.000000
vt 0.100000 0.500000
vt 0.100000 1.000000
vt 0.391068 0.444164
vt 0.108931 0.444164
vt 0.021745 0.175835
vt 0.108931 0.055835
vt 0.250000 0.009999
vt 0.391068 0.055835
vt 0.978254 0.175835
vt 0.750000 0.009999
vt 0.521745 0.175835
vt 0.521745 0.324162
vt -0.000000 0.500000
vt -0.000000 1.000000
vt 0.625000 1.000000
vt 0.608931 0.444164
vt 0.750000 0.489999
vt 0.891068 0.444164
vt 0.978254 0.324162
vt 0.891068 0.055835
vt 0.608931 0.055835
vn 0.0000 0.0000 -1.0000
vn -0.0000 0.0000 1.0000
vn -0.5687 0.8225 0.0000
vn -1.0000 0.0000 0.0000
vn -0.4441 0.8960 0.0000
vn -0.0000 0.8225 0.5687
vn 0.0000 1.0000 0.0000
vn 1.0000 0.0000 0.0000
vn 0.0000 -1.0000 0.0000
vn -0.1477 0.9890 0.0000
vn -0.4331 0.9014 0.0000
vn -0.6860 0.7276 0.0000
vn -0.8797 0.4754 0.0000
vn -0.9862 0.1656 0.0000
vn -0.1477 -0.9890 0.0000
vn -0.4330 -0.9014 0.0000
vn -0.6860 -0.7276 0.0000
vn -0.8797 -0.4754 0.0000
vn -0.9862 -0.1656 0.0000
vn 0.1477 0.9890 0.0000
vn 0.4331 0.9014 0.0000
vn 0.6860 0.7276 0.0000
vn 0.8797 0.4755 0.0000
vn 0.9862 0.1656 0.0000
vn 0.1477 -0.9890 0.0000
vn 0.4330 -0.9014 0.0000
vn 0.6860 -0.7276 0.0000
vn 0.8797 -0.4755 0.0000
vn 0.9862 -0.1656 0.0000
vn 0.3090 0.0000 -0.9511
vn 0.8090 0.0000 -0.5878
vn 0.8090 0.0000 0.5878
vn 0.3090 -0.0000 0.9511
vn -0.3090 -0.0000 0.9511
vn -0.8090 0.0000 0.5878
vn -0.8090 -0.0000 -0.5878
vn -0.3090 0.0000 -0.9511
usemtl MARSNULL
s off
f 16/1/1 11/2/1 166/3/1 168/4/1
usemtl marscity
f 43/5/1 44/6/1 45/7/1
f 46/8/2 47/9/2 48/10/2
f 52/11/2 49/12/2 53/13/2
f 53/13/2 56/14/2 52/11/2
f 56/14/2 57/15/2 52/11/2
f 61/16/1 62/17/1 63/18/1
f 48/10/2 64/19/2 67/20/2
f 66/21/2 69/22/2 67/20/2
f 67/20/2 70/23/2 48/10/2
f 70/23/2 46/8/2 48/10/2
f 46/8/2 71/24/2 47/9/2
f 64/19/2 66/21/2 67/20/2
f 73/25/1 61/16/1 74/26/1
f 62/17/1 75/27/1 63/18/1
f 63/18/1 76/28/1 74/26/1
f 74/26/1 77/29/1 73/25/1
f 77/29/1 78/30/1 73/25/1
f 78/30/1 79/31/1 80/32/1
f 80/32/1 81/33/1 78/30/1
f 81/33/1 73/25/1 78/30/1
f 43/5/1 82/34/1 44/6/1
f 83/35/1 43/5/1 45/7/1
f 82/34/1 84/36/1 44/6/1
f 44/6/1 85/37/1 45/7/1
f 45/7/1 86/38/1 83/35/1
f 86/38/1 87/39/1 83/35/1
f 87/39/1 88/40/1 83/35/1
f 88/40/1 89/41/1 83/35/1
f 89/41/1 90/42/1 83/35/1
f 61/16/1 63/18/1 74/26/1
f 119/43/3 92/44/3 91/45/3 120/46/3
f 133/47/4 134/48/4 119/49/4 120/50/4
f 136/51/4 137/52/4 138/53/4 139/54/4
f 140/55/3 104/56/3 103/57/3 141/58/3
f 136/59/5 110/60/5 109/61/5 137/62/5
f 117/63/4 118/64/4 140/65/4 141/66/4
f 129/67/2 130/68/2 135/69/2 144/70/2
f 135/71/6 97/72/6 104/73/6 144/74/6
f 49/12/2 52/11/2 64/19/2 48/10/2
f 61/16/1 73/25/1 43/5/1 83/35/1
usemtl MARSINDX_14
f 38/75/7 2/76/7 4/77/7 34/78/7
f 7/79/7 14/80/7 12/81/7 9/82/7
f 34/78/7 4/77/7 6/83/7 26/84/7
f 14/80/7 17/85/7 13/86/7 12/81/7
f 26/84/7 6/83/7 8/87/7 17/85/7
f 9/82/7 12/81/7 19/88/7 15/89/7
f 17/85/7 8/87/7 10/90/7 13/86/7
f 12/81/7 13/86/7 11/91/7 19/88/7
f 39/92/7 38/75/7 34/78/7 30/93/7
f 1/94/7 39/92/7 30/93/7 3/95/7
f 30/93/7 34/78/7 26/84/7 18/96/7
f 3/95/7 30/93/7 18/96/7 5/97/7
f 18/96/7 26/84/7 17/85/7 14/80/7
f 5/97/7 18/96/7 14/80/7 7/79/7
usemtl MARSINDX_163
f 3/95/8 5/97/8 29/98/8 25/99/8
f 7/79/8 9/82/8 37/100/8 33/101/8
f 5/97/8 7/79/8 33/101/8 29/98/8
f 9/82/8 15/89/8 42/102/8 37/100/8
f 1/94/8 3/95/8 25/99/8 24/103/8
f 11/91/4 13/86/4 165/104/4 166/105/4
f 20/106/7 22/107/7 23/108/7 21/109/7
f 22/107/7 24/103/7 25/99/7 23/108/7
f 21/109/7 23/108/7 28/110/7 27/111/7
f 23/108/7 25/99/7 29/98/7 28/110/7
f 27/111/7 28/110/7 32/112/7 31/113/7
f 28/110/7 29/98/7 33/101/7 32/112/7
f 31/113/7 32/112/7 36/114/7 35/115/7
f 32/112/7 33/101/7 37/100/7 36/114/7
f 35/115/7 36/114/7 41/116/7 40/117/7
f 36/114/7 37/100/7 42/102/7 41/116/7
f 165/104/7 167/118/7 168/119/7 166/105/7
f 13/86/2 10/90/2 167/118/2 165/104/2
usemtl MARSINDX_64
f 126/120/1 132/121/1 91/122/1 95/123/1
f 120/124/1 91/122/1 132/121/1 133/125/1
f 135/126/8 130/127/8 128/128/8 97/129/8
f 140/130/2 118/131/2 113/132/2 104/133/2
f 137/134/1 109/135/1 116/136/1 138/137/1
f 136/138/2 139/139/2 114/140/2 110/141/2
f 144/142/4 104/133/4 113/132/4 129/143/4
usemtl MARSINDX_255
f 49/12/2 50/144/2 51/145/2
f 50/144/2 54/146/2 51/145/2
f 51/145/2 55/147/2 53/13/2
f 57/15/2 58/148/2 59/149/2
f 59/149/2 60/150/2 57/15/2
f 60/150/2 52/11/2 57/15/2
f 64/19/2 65/151/2 66/21/2
f 65/151/2 68/152/2 66/21/2
f 47/9/2 72/153/2 48/10/2
f 49/12/2 51/145/2 53/13/2
f 91/122/4 92/154/4 93/155/4 94/156/4
f 95/123/1 91/122/1 94/156/1 96/157/1
f 97/129/8 98/158/8 99/159/8 100/160/8
f 100/160/7 99/159/7 101/161/7 102/162/7
f 103/163/4 104/164/4 102/165/4 101/166/4
f 93/167/7 105/168/7 96/157/7 94/169/7
f 106/170/1 105/168/1 93/167/1 107/171/1
f 108/172/8 95/123/8 96/157/8 105/168/8
f 98/158/8 108/172/8 105/168/8 99/159/8
f 101/161/4 93/167/4 109/135/4 110/141/4
f 111/173/4 112/174/4 113/175/4 114/176/4
f 115/177/4 111/173/4 114/176/4 116/178/4
f 117/179/9 114/176/9 113/175/9 118/180/9
f 121/181/8 122/182/8 108/172/8 98/158/8
f 123/183/8 124/184/8 122/182/8 121/181/8
f 124/184/8 125/185/8 126/120/8 122/182/8
f 122/182/8 126/120/8 95/123/8 108/172/8
f 112/186/2 127/187/2 128/128/2 113/132/2
f 129/143/9 113/132/9 128/128/9 130/127/9
f 127/187/8 123/183/8 121/181/8 128/128/8
f 128/128/8 121/181/8 98/158/8 97/129/8
f 125/185/1 131/188/1 132/121/1 126/120/1
f 131/188/4 115/177/4 116/178/4 132/121/4
f 133/125/9 132/121/9 116/178/9 134/189/9
f 119/190/2 134/191/2 116/136/2 92/192/2
f 138/193/9 116/178/9 114/176/9 139/194/9
f 142/195/7 106/170/7 107/171/7 143/196/7
f 114/140/1 117/197/1 141/198/1 103/199/1
f 143/196/2 101/161/2 99/159/2 142/195/2
f 142/195/8 99/159/8 105/168/8 106/170/8
f 107/171/4 93/167/4 101/161/4 143/196/4
f 74/200/8 70/201/8 67/202/8 77/203/8
f 145/204/7 146/205/7 147/206/7 148/207/7
f 73/208/9 64/209/9 52/210/9 43/211/9
f 53/212/4 86/213/4 45/214/4 56/215/4
f 50/216/10 49/217/10 83/218/10 90/219/10
f 54/220/11 50/216/11 90/219/11 89/221/11
f 51/222/12 54/220/12 89/221/12 88/223/12
f 55/224/13 51/225/13 88/226/13 87/227/13
f 53/212/14 55/224/14 87/227/14 86/213/14
f 82/228/15 43/211/15 52/210/15 60/229/15
f 84/230/16 82/228/16 60/229/16 59/231/16
f 44/232/17 84/233/17 59/234/17 58/235/17
f 85/236/18 44/237/18 58/238/18 57/239/18
f 45/214/19 85/236/19 57/239/19 56/215/19
f 62/240/20 61/241/20 48/242/20 72/243/20
f 75/244/21 62/240/21 72/243/21 47/245/21
f 63/246/22 75/244/22 47/245/22 71/247/22
f 76/248/23 63/246/23 71/247/23 46/249/23
f 74/200/24 76/248/24 46/249/24 70/201/24
f 65/250/25 64/209/25 73/208/25 81/251/25
f 68/252/26 65/250/26 81/251/26 80/253/26
f 66/254/27 68/252/27 80/253/27 79/255/27
f 69/256/28 66/254/28 79/255/28 78/257/28
f 67/202/29 69/256/29 78/257/29 77/203/29
f 83/218/7 49/217/7 48/242/7 61/241/7
f 149/258/30 150/259/30 146/260/30 151/261/30
f 152/262/31 149/258/31 151/261/31 145/263/31
f 153/264/8 152/262/8 145/263/8 148/265/8
f 154/266/32 153/264/32 148/265/32 155/267/32
f 156/268/33 154/266/33 155/267/33 157/269/33
f 158/270/34 156/268/34 157/269/34 159/271/34
f 160/272/35 158/270/35 159/271/35 161/273/35
f 162/274/4 160/272/4 161/273/4 147/275/4
f 163/276/36 162/274/36 147/275/36 164/277/36
f 145/204/7 151/278/7 146/205/7
f 146/205/7 164/279/7 147/206/7
f 147/206/7 161/280/7 159/281/7
f 159/281/7 157/282/7 147/206/7
f 157/282/7 155/283/7 147/206/7
f 155/283/7 148/207/7 147/206/7
f 153/284/9 156/285/9 160/286/9 162/287/9
f 150/288/37 163/276/37 164/277/37 146/289/37
f 104/133/2 97/129/2 100/160/2 102/290/2
f 163/291/9 150/292/9 153/284/9
f 150/292/9 149/293/9 153/284/9
f 149/293/9 152/294/9 153/284/9
f 153/284/9 154/295/9 156/285/9
f 156/285/9 158/296/9 160/286/9
f 162/287/9 163/291/9 153/284/9
