# Blender v3.3.1 OBJ File: 'marscity.blend'
# www.blender.org
mtllib 03_kfc.mtl
o 03_kfc_Grid.001
v -1.551294 -0.100000 7.999998
v 8.023695 -0.100000 8.000001
v -1.551293 -0.100000 4.799997
v 8.023695 -0.100000 4.800001
v -1.551293 -0.100000 1.599998
v 8.023696 -0.100000 1.600001
v -1.551292 -0.100000 -1.600003
v 8.023696 -0.100000 -1.599999
v -1.551292 -0.100000 -4.800003
v 8.023697 -0.100000 -4.799999
v 4.832035 -0.100000 -8.000000
v 1.640371 -0.100000 -4.800001
v 4.832034 -0.100000 -4.800000
v 1.640371 -0.100000 -1.600002
v -1.551291 -0.100000 -8.000002
v 8.023697 -0.100000 -7.999999
v 4.832034 -0.100000 -1.600000
v 1.640370 -0.100000 1.599999
v 1.640372 -0.100000 -8.000002
v -7.951294 0.000000 7.999997
v -7.951293 0.000000 4.799996
v -4.751294 0.000000 7.999997
v -4.751293 0.000000 4.799997
v -1.551294 0.000000 7.999998
v -1.551293 0.000000 4.799997
v 4.832033 -0.100000 1.600000
v -7.951293 0.000000 1.599996
v -4.751293 0.000000 1.599997
v -1.551293 0.000000 1.599998
v 1.640370 -0.100000 4.799999
v -7.951292 0.000000 -1.600004
v -4.751292 0.000000 -1.600003
v -1.551292 0.000000 -1.600003
v 4.832032 -0.100000 4.800000
v -7.951292 0.000000 -4.800004
v -4.751291 0.000000 -4.800003
v -1.551292 0.000000 -4.800003
v 4.832032 -0.100000 8.000000
v 1.640369 -0.100000 7.999999
v -7.951291 0.000000 -8.000003
v -4.751291 0.000000 -8.000003
v -1.551291 0.000000 -8.000002
v -7.239603 5.686689 -0.110937
v -7.115684 5.627155 -0.110937
v -7.086431 5.542268 -0.110937
v -8.808662 4.741042 -0.304473
v -8.753017 4.668832 -0.304473
v -8.662983 4.641249 -0.304473
v -7.239603 4.641249 -0.304473
v -7.192270 4.648316 -0.304473
v -7.115684 4.700782 -0.304473
v -7.239603 5.686689 -0.304473
v -7.086431 4.785671 -0.304473
v -7.149570 4.668832 -0.304473
v -7.093925 4.741042 -0.304473
v -7.086431 5.542268 -0.304473
v -7.093925 5.586895 -0.304473
v -7.115684 5.627155 -0.304473
v -7.149570 5.659107 -0.304473
v -7.192270 5.679620 -0.304473
v -8.662983 4.641249 -0.110937
v -8.710318 4.648316 -0.110937
v -8.786903 4.700782 -0.110937
v -8.662983 5.686689 -0.304473
v -8.710318 5.679620 -0.304473
v -8.786903 5.627155 -0.304473
v -8.816158 5.542268 -0.304473
v -8.753017 5.659107 -0.304473
v -8.808662 5.586895 -0.304473
v -8.816158 4.785671 -0.304473
v -8.786903 4.700782 -0.304473
v -8.710318 4.648316 -0.304473
v -8.662983 5.686689 -0.110937
v -8.816158 4.785671 -0.110937
v -8.753017 4.668832 -0.110937
v -8.808662 4.741042 -0.110937
v -8.816158 5.542268 -0.110937
v -8.808662 5.586895 -0.110937
v -8.786903 5.627155 -0.110937
v -8.753017 5.659107 -0.110937
v -8.710318 5.679620 -0.110937
v -7.192270 5.679620 -0.110937
v -7.239603 4.641249 -0.110937
v -7.149570 5.659107 -0.110937
v -7.093925 5.586895 -0.110937
v -7.086431 4.785671 -0.110937
v -7.093925 4.741042 -0.110937
v -7.115684 4.700782 -0.110937
v -7.149570 4.668832 -0.110937
v -7.192270 4.648316 -0.110937
v -8.090173 1.892189 -8.000001
v -8.090173 1.892189 -4.429620
v -8.090173 2.216333 -4.429620
v -8.090173 2.216333 -8.000001
v -5.412447 1.892189 -8.000001
v -5.412447 2.216333 -8.000001
v -5.412449 1.892189 -1.210925
v -5.412448 1.892189 -2.880384
v -5.412448 2.216333 -2.880384
v -5.412449 2.216332 -1.210925
v -8.090173 2.216333 -2.880385
v -8.090174 2.216332 -1.210925
v -8.090173 1.892189 -2.880385
v -8.090174 1.892189 -1.210925
v -5.412448 2.216333 -4.429620
v -5.412448 2.383603 -4.429620
v -8.090173 2.383603 -4.429620
v -5.412448 1.892189 -4.429620
v -8.090173 1.991941 -4.429620
v -8.090173 1.991941 -2.880385
v -8.090173 -0.000000 -2.880385
v -8.090174 -0.000000 -1.210925
v -8.090174 1.348560 -1.210925
v -8.090173 1.348560 -2.880385
v -8.090173 0.000000 -4.429620
v -8.090173 1.348560 -4.429620
v -8.574014 1.348560 -2.880385
v -8.574015 1.348560 -1.210925
v -8.574014 1.557648 -4.429620
v -8.574014 1.557648 -8.000002
v -5.412448 1.348560 -2.880384
v -5.412448 1.348560 -4.429620
v -5.412448 -0.000000 -2.880384
v -5.412448 0.000000 -4.429620
v -5.412447 0.000000 -8.000001
v -5.412447 1.348560 -8.000001
v -5.412449 -0.000000 -1.210925
v -5.412449 1.348560 -1.210925
v -8.090174 1.348560 -0.727085
v -5.412449 1.348560 -0.727085
v -8.090173 0.000000 -8.000001
v -8.090173 1.348560 -8.000001
v -8.574014 1.348560 -8.000002
v -8.574014 1.348560 -4.429620
v -5.412449 1.557648 -0.727085
v -8.933858 1.573765 -2.880385
v -8.933858 1.573765 -4.429620
v -8.933858 1.348560 -4.429620
v -8.933858 1.348560 -2.880385
v -8.574015 1.557648 -1.210925
v -8.574014 1.557648 -2.880385
v -5.412448 2.383603 -2.880384
v -8.090173 2.383603 -2.880385
v -8.090174 1.557648 -0.727085
v -7.903360 4.641249 -0.223277
v -7.951293 4.641249 -0.258103
v -7.999228 4.641249 -0.223277
v -7.903360 4.641249 -0.192127
v -7.921668 0.000000 -0.248477
v -7.951293 0.000000 -0.258103
v -7.921668 4.641249 -0.248477
v -7.903360 0.000000 -0.223277
v -7.903360 0.000000 -0.192128
v -7.921668 0.000000 -0.166928
v -7.921668 4.641249 -0.166927
v -7.951293 0.000000 -0.157303
v -7.951293 4.641249 -0.157303
v -7.980917 0.000000 -0.166928
v -7.980917 4.641249 -0.166927
v -7.999228 0.000000 -0.192128
v -7.999228 4.641249 -0.192127
v -7.999228 0.000000 -0.223277
v -7.980917 0.000000 -0.248477
v -7.980917 4.641249 -0.248477
vt 0.251684 0.813896
vt 0.262193 0.809379
vt 0.264673 0.802938
vt 0.263328 0.743140
vt 0.258610 0.737728
vt 0.250975 0.735661
vt 0.130277 0.814013
vt 0.130277 0.735661
vt 0.117288 0.746485
vt 0.117288 0.803189
vt 0.117924 0.806534
vt 0.130982 0.734568
vt 0.126969 0.735105
vt 0.120474 0.739086
vt 0.250975 0.814013
vt 0.263964 0.803189
vt 0.261484 0.809551
vt 0.263328 0.806534
vt 0.263964 0.746485
vt 0.261484 0.740122
vt 0.130982 0.813896
vt 0.117993 0.745527
vt 0.123348 0.736661
vt 0.118629 0.742141
vt 0.117993 0.802938
vt 0.118629 0.806324
vt 0.120474 0.809379
vt 0.123348 0.811803
vt 0.126969 0.813360
vt 0.255698 0.813360
vt 0.251684 0.734568
vt 0.259319 0.811803
vt 0.264037 0.806324
vt 0.264673 0.745527
vt 0.264037 0.742141
vt 0.262193 0.739086
vt 0.259319 0.736661
vt 0.255698 0.735105
vt 0.011849 0.719184
vt 0.011849 0.685896
vt 0.216236 0.685896
vt 0.216236 0.719184
vt 0.215271 0.723876
vt 0.012164 0.723876
vt 0.012164 0.699954
vt 0.215271 0.699954
vt 0.165062 0.725079
vt 0.062459 0.725079
vt 0.062459 0.707822
vt 0.165062 0.707822
vt 0.063561 0.722721
vt 0.063561 0.684861
vt 0.165569 0.684861
vt 0.165569 0.722721
vt 0.114206 0.662605
vt 0.114206 0.727359
vt 0.011057 0.727359
vt 0.011057 0.662605
vt 0.115252 0.727339
vt 0.011471 0.727339
vt 0.011471 0.702133
vt 0.115252 0.702133
vt 0.010187 0.711046
vt 0.223649 0.711046
vt 0.223649 0.729145
vt 0.010187 0.729145
vt 0.222127 0.688866
vt 0.222127 0.734883
vt 0.010224 0.734883
vt 0.010224 0.688866
vt 0.933333 0.000000
vt 1.000000 0.000000
vt 1.000000 0.200000
vt 0.933333 0.200000
vt 0.800000 0.600000
vt 0.866667 0.600000
vt 0.866667 0.800000
vt 0.800000 0.800000
vt 0.800000 0.200000
vt 0.800000 0.400000
vt 0.800000 0.400000
vt 0.800000 0.200000
vt 1.000000 0.400000
vt 0.933333 0.400000
vt 0.800000 0.800000
vt 0.800000 0.600000
vt 0.933333 0.600000
vt 0.933333 0.800000
vt 1.000000 0.600000
vt 0.866667 1.000000
vt 0.800000 1.000000
vt 1.000000 0.800000
vt 0.800000 1.000000
vt 0.800000 0.000000
vt 0.800000 0.000000
vt 0.933333 1.000000
vt 1.000000 1.000000
vt 0.866667 0.000000
vt 0.866667 0.200000
vt 0.866667 0.400000
vt 0.400000 0.000000
vt 0.600000 0.000000
vt 0.600000 0.200000
vt 0.400000 0.200000
vt 0.600000 0.400000
vt 0.400000 0.400000
vt 0.600000 0.600000
vt 0.400000 0.600000
vt 0.600000 0.800000
vt 0.400000 0.800000
vt 0.600000 1.000000
vt 0.400000 1.000000
vt 0.501295 0.500000
vt 0.501295 0.250000
vt 0.584628 0.250000
vt 0.584628 0.500000
vt 0.584628 0.250000
vt 0.501295 0.250000
vt 0.584628 0.750000
vt 0.501295 0.750000
vt 0.501295 0.750000
vt 0.584628 0.750000
vt 0.584628 1.000000
vt 0.501295 1.000000
vt 0.501295 1.000000
vt 0.584628 1.000000
vt 0.000000 0.000000
vt 0.000000 0.000000
vt 0.000000 0.000000
vt 0.000000 0.000000
vt 0.000000 0.000000
vt 0.000000 0.000000
vt 0.000000 0.000000
vt 0.000000 0.000000
vt 0.584628 1.000000
vt 0.501295 1.000000
vt 0.126263 0.736190
vt 0.119769 0.740122
vt 0.122643 0.737728
vt 0.117924 0.743140
vt 0.119769 0.809551
vt 0.122643 0.811946
vt 0.126263 0.813483
vt 0.254989 0.813483
vt 0.258610 0.811946
vt 0.254989 0.736190
vt 0.584628 0.133759
vt 0.625000 0.133759
vt 0.625000 0.250000
vt 0.625000 0.500000
vt 0.584628 0.699574
vt 0.625000 0.699574
vt 0.625000 0.750000
vt 0.875000 0.699574
vt 0.875000 0.750000
vt 0.584628 0.050426
vt 0.584628 0.000000
vt 0.625000 0.000000
vt 0.625000 0.050426
vt 0.875000 0.616241
vt 0.625000 0.616241
vt 0.875000 0.500000
vt 0.625000 0.616241
vt 0.875000 0.616241
vt 0.584628 0.616241
vt 0.375000 0.050426
vt 0.375000 0.000000
vt 0.501295 0.000000
vt 0.501295 0.050426
vt 0.375000 0.133759
vt 0.501295 0.133759
vt 0.501295 0.050426
vt 0.501295 0.000000
vt 0.501295 0.699574
vt 0.501295 0.616241
vt 0.375000 0.699574
vt 0.375000 0.616241
vt 0.375000 0.500000
vt 0.375000 1.000000
vt 0.375000 0.750000
vt 0.375000 0.250000
vt 0.501295 0.133759
vt 0.000000 0.000000
vt 0.000000 0.000000
vt 0.000000 0.000000
vt 0.501295 0.133759
vt 0.501295 0.050426
vt 0.625000 0.699574
vt 0.875000 0.699574
vt 0.000000 0.000000
vt 0.000000 0.000000
vt 0.000000 0.000000
vt 0.150367 0.897664
vt 0.150367 0.811804
vt 0.214262 0.811804
vt 0.214262 0.897664
vt 0.478254 0.324162
vt 0.250000 0.489999
vt 0.021745 0.324162
vt 0.478254 0.175835
vt 0.232848 0.897664
vt 0.232848 0.811804
vt 0.303501 0.811804
vt 0.303501 0.897664
vt 0.150367 0.725944
vt 0.150367 0.640084
vt 0.214262 0.640084
vt 0.214262 0.725944
vt 0.058778 0.811804
vt 0.061128 0.811804
vt 0.061128 0.897664
vt 0.058778 0.897664
vt 0.056659 0.811804
vt 0.056659 0.897664
vt 0.053524 0.811804
vt 0.053524 0.897664
vt 0.146973 0.725944
vt 0.143911 0.725944
vt 0.143911 0.640084
vt 0.146973 0.640084
vt 0.305851 0.897664
vt 0.305851 0.811804
vt 0.307970 0.897664
vt 0.307970 0.811804
vt 0.018307 1.000000
vt 0.000000 0.981693
vt 0.081326 0.900367
vt 0.099634 0.918674
vt 0.217656 0.640084
vt 0.220717 0.640084
vt 0.220717 0.725944
vt 0.217656 0.725944
vt 0.136061 0.899415
vt 0.131781 0.897664
vt 0.131781 0.811804
vt 0.136061 0.810052
vt 0.137994 0.898708
vt 0.137994 0.810759
vt 0.143912 0.898148
vt 0.143912 0.811320
vt 0.146973 0.897788
vt 0.146973 0.811680
vt 0.228568 0.810052
vt 0.228568 0.899415
vt 0.226635 0.810759
vt 0.226635 0.898708
vt 0.220717 0.811320
vt 0.220717 0.898148
vt 0.217656 0.811680
vt 0.217656 0.897788
vt 0.900000 0.500000
vt 1.000000 0.500000
vt 1.000000 1.000000
vt 0.900000 1.000000
vt 0.800000 0.500000
vt 0.800000 1.000000
vt 0.700000 0.500000
vt 0.700000 1.000000
vt 0.600000 0.500000
vt 0.600000 1.000000
vt 0.500000 0.500000
vt 0.500000 1.000000
vt 0.400000 0.500000
vt 0.400000 1.000000
vt 0.300000 0.500000
vt 0.300000 1.000000
vt 0.200000 0.500000
vt 0.200000 1.000000
vt 0.100000 0.500000
vt 0.100000 1.000000
vt 0.391068 0.444164
vt 0.108931 0.444164
vt 0.021745 0.175835
vt 0.108931 0.055835
vt 0.250000 0.009999
vt 0.391068 0.055835
vt 0.978254 0.175835
vt 0.750000 0.009999
vt 0.521745 0.175835
vt 0.521745 0.324162
vt -0.000000 0.500000
vt -0.000000 1.000000
vt 0.625000 1.000000
vt 0.608931 0.444164
vt 0.750000 0.489999
vt 0.891068 0.444164
vt 0.978254 0.324162
vt 0.891068 0.055835
vt 0.608931 0.055835
vn -0.0536 -0.7211 -0.6908
vn -0.5865 -0.4506 -0.6730
vn -0.7224 -0.0602 -0.6889
vn 0.7003 0.2406 0.6720
vn 0.4182 0.6088 0.6741
vn 0.0535 0.7210 0.6908
vn -0.0536 -0.7211 0.6908
vn -0.0535 0.7210 0.6908
vn -0.7224 0.0602 0.6889
vn -0.7224 -0.0602 0.6889
vn -0.7003 -0.2406 0.6720
vn 0.0535 0.7210 -0.6908
vn 0.2167 0.7053 -0.6750
vn 0.5865 0.4506 -0.6730
vn 0.0535 -0.7210 0.6908
vn 0.7224 -0.0602 0.6889
vn 0.5865 -0.4506 0.6730
vn 0.7003 -0.2406 0.6720
vn 0.7224 0.0602 0.6889
vn 0.5865 0.4506 0.6730
vn 0.0535 -0.7210 -0.6908
vn 0.7224 0.0602 -0.6889
vn 0.4182 0.6088 -0.6741
vn 0.7003 0.2406 -0.6720
vn 0.7224 -0.0602 -0.6889
vn 0.7003 -0.2406 -0.6720
vn 0.5865 -0.4506 -0.6730
vn 0.4182 -0.6088 -0.6741
vn 0.2167 -0.7053 -0.6750
vn -0.2167 -0.7053 -0.6750
vn -0.0535 0.7210 -0.6908
vn -0.4182 -0.6088 -0.6741
vn -0.7003 -0.2406 -0.6720
vn -0.7224 0.0602 -0.6889
vn -0.7003 0.2406 -0.6720
vn -0.5865 0.4506 -0.6730
vn -0.4182 0.6088 -0.6741
vn -0.2167 0.7053 -0.6750
vn -0.6977 0.3658 0.6160
vn -0.8367 0.4387 0.3279
vn -0.4967 0.2604 -0.8279
vn -0.6977 0.3658 -0.6160
vn -0.5773 -0.5774 -0.5774
vn -0.5774 -0.5774 0.5774
vn -0.6763 0.4196 0.6055
vn -0.6763 0.4196 -0.6055
vn -0.5774 -0.5774 -0.5774
vn -0.6241 0.4702 0.6241
vn -0.8367 0.4387 -0.3279
vn -0.7845 0.4868 0.3841
vn -0.7845 0.4868 -0.3841
vn 0.5774 -0.5774 0.5774
vn 0.6160 0.3658 0.6977
vn -0.6160 0.3658 0.6977
vn 0.8279 0.2604 0.4967
vn 0.0000 1.0000 0.0000
vn 1.0000 0.0000 0.0000
vn 0.7071 0.0000 -0.7071
vn -0.3015 -0.3015 -0.9045
vn 0.9045 -0.3015 0.3015
vn -0.7071 -0.7071 -0.0000
vn -0.2167 0.7053 0.6750
vn -0.5865 0.4506 0.6730
vn -0.4182 0.6088 0.6741
vn -0.7003 0.2406 0.6720
vn -0.5865 -0.4506 0.6730
vn -0.4182 -0.6088 0.6741
vn -0.2167 -0.7053 0.6750
vn 0.2167 -0.7053 0.6750
vn 0.4182 -0.6088 0.6741
vn 0.2167 0.7053 0.6750
vn -0.9045 0.3015 -0.3015
vn -0.5774 0.5774 -0.5774
vn 0.5774 0.5774 -0.5774
vn 0.9045 0.3015 0.3015
vn 0.5774 0.5774 0.5774
vn -0.9045 0.3015 0.3015
vn -0.5774 0.5774 0.5774
vn 0.9045 0.3015 -0.3015
vn -1.0000 0.0000 -0.0000
vn -0.7071 0.0000 0.7071
vn 0.7071 0.0000 0.7071
vn -0.7071 0.0000 -0.7071
vn 0.7278 0.6437 -0.2365
vn 0.0000 0.6437 -0.7653
vn -0.7278 0.6437 -0.2365
vn 0.7278 0.6437 0.2365
vn 0.4498 -0.6437 -0.6191
vn 0.0000 -0.6437 -0.7653
vn 0.4498 0.6437 -0.6191
vn 0.7278 -0.6437 -0.2365
vn 0.7278 -0.6437 0.2365
vn 0.4498 -0.6437 0.6191
vn 0.4498 0.6437 0.6191
vn 0.0000 -0.6437 0.7653
vn 0.0000 0.6437 0.7653
vn -0.4498 -0.6437 0.6191
vn -0.4498 0.6437 0.6191
vn -0.7278 -0.6437 0.2365
vn -0.7278 0.6437 0.2365
vn -0.7278 -0.6437 -0.2365
vn -0.4498 -0.6437 -0.6191
vn -0.4498 0.6437 -0.6191
usemtl marscity
s 1
f 43/1/1 44/2/2 45/3/3
f 46/4/4 47/5/5 48/6/6
f 52/7/7 49/8/8 53/9/9
f 53/9/9 56/10/10 52/7/7
f 56/10/10 57/11/11 52/7/7
f 61/12/12 62/13/13 63/14/14
f 48/6/6 64/15/15 67/16/16
f 66/17/17 69/18/18 67/16/16
f 67/16/16 70/19/19 48/6/6
f 70/19/19 46/4/4 48/6/6
f 46/4/4 71/20/20 47/5/5
f 64/15/15 66/17/17 67/16/16
f 73/21/21 61/12/12 74/22/22
f 62/13/13 75/23/23 63/14/14
f 63/14/14 76/24/24 74/22/22
f 74/22/22 77/25/25 73/21/21
f 77/25/25 78/26/26 73/21/21
f 78/26/26 79/27/27 80/28/28
f 80/28/28 81/29/29 78/26/26
f 81/29/29 73/21/21 78/26/26
f 43/1/1 82/30/30 44/2/2
f 83/31/31 43/1/1 45/3/3
f 82/30/30 84/32/32 44/2/2
f 44/2/2 85/33/33 45/3/3
f 45/3/3 86/34/34 83/31/31
f 86/34/34 87/35/35 83/31/31
f 87/35/35 88/36/36 83/31/31
f 88/36/36 89/37/37 83/31/31
f 89/37/37 90/38/38 83/31/31
f 61/12/12 63/14/14 74/22/22
f 119/39/39 92/40/40 91/41/41 120/42/42
f 133/43/43 134/44/44 119/45/39 120/46/42
f 136/47/45 137/48/46 138/49/47 139/50/44
f 140/51/39 104/52/48 103/53/49 141/54/42
f 136/55/45 110/56/50 109/57/51 137/58/46
f 117/59/47 118/60/44 140/61/39 141/62/42
f 129/63/44 130/64/52 135/65/53 144/66/54
f 135/67/53 97/68/55 104/69/48 144/70/54
f 49/8/8 52/7/7 64/15/15 48/6/6
f 61/12/12 73/21/21 43/1/1 83/31/31
usemtl MARSINDX_14
s off
f 38/71/56 2/72/56 4/73/56 34/74/56
f 7/75/56 14/76/56 12/77/56 9/78/56
f 3/79/57 5/80/57 29/81/57 25/82/57
f 34/74/56 4/73/56 6/83/56 26/84/56
f 7/75/57 9/78/57 37/85/57 33/86/57
f 14/76/56 17/87/56 13/88/56 12/77/56
f 26/84/56 6/83/56 8/89/56 17/87/56
f 9/78/56 12/77/56 19/90/56 15/91/56
f 5/80/57 7/75/57 33/86/57 29/81/57
f 17/87/56 8/89/56 10/92/56 13/88/56
f 9/78/57 15/91/57 42/93/57 37/85/57
f 1/94/57 3/79/57 25/82/57 24/95/57
f 12/77/56 13/88/56 11/96/56 19/90/56
f 13/88/56 10/92/56 16/97/56 11/96/56
f 39/98/56 38/71/56 34/74/56 30/99/56
f 1/94/56 39/98/56 30/99/56 3/79/56
f 30/99/56 34/74/56 26/84/56 18/100/56
f 3/79/56 30/99/56 18/100/56 5/80/56
f 18/100/56 26/84/56 17/87/56 14/76/56
f 5/80/56 18/100/56 14/76/56 7/75/56
usemtl MARSINDX_163
f 20/101/56 22/102/56 23/103/56 21/104/56
f 22/102/56 24/95/56 25/82/56 23/103/56
f 21/104/56 23/103/56 28/105/56 27/106/56
f 23/103/56 25/82/56 29/81/56 28/105/56
f 27/106/56 28/105/56 32/107/56 31/108/56
f 28/105/56 29/81/56 33/86/56 32/107/56
f 31/108/56 32/107/56 36/109/56 35/110/56
f 32/107/56 33/86/56 37/85/56 36/109/56
f 35/110/56 36/109/56 41/111/56 40/112/56
f 36/109/56 37/85/56 42/93/56 41/111/56
usemtl MARSINDX_64
s 1
f 126/113/58 132/114/59 91/115/41 95/116/58
f 120/117/42 91/115/41 132/114/59 133/118/43
f 135/119/53 130/120/52 128/121/60 97/122/55
f 140/123/39 118/124/44 113/125/44 104/126/48
f 137/127/46 109/128/51 116/129/61 138/130/47
f 136/131/45 139/132/44 114/133/61 110/134/50
f 144/135/54 104/126/48 113/125/44 129/136/44
usemtl MARSINDX_255
f 49/8/8 50/137/62 51/138/63
f 50/137/62 54/139/64 51/138/63
f 51/138/63 55/140/65 53/9/9
f 57/11/11 58/141/66 59/142/67
f 59/142/67 60/143/68 57/11/11
f 60/143/68 52/7/7 57/11/11
f 64/15/15 65/144/69 66/17/17
f 65/144/69 68/145/70 66/17/17
f 47/5/5 72/146/71 48/6/6
f 49/8/8 51/138/63 53/9/9
f 91/115/41 92/147/40 93/148/72 94/149/73
f 95/116/58 91/115/41 94/149/73 96/150/74
f 97/122/55 98/151/57 99/152/75 100/153/76
f 100/153/76 99/152/75 101/154/77 102/155/78
f 103/156/49 104/157/48 102/158/78 101/159/77
f 93/160/72 105/161/79 96/150/74 94/162/73
f 106/163/74 105/161/79 93/160/72 107/164/73
f 108/165/57 95/116/58 96/150/74 105/161/79
f 98/151/57 108/165/57 105/161/79 99/152/75
f 101/154/77 93/160/72 109/128/51 110/134/50
f 111/166/80 112/167/81 113/168/44 114/169/61
f 115/170/80 111/166/80 114/169/61 116/171/61
f 117/172/47 114/169/61 113/168/44 118/173/44
f 121/174/57 122/175/57 108/165/57 98/151/57
f 123/176/57 124/177/57 122/175/57 121/174/57
f 124/177/57 125/178/58 126/113/58 122/175/57
f 122/175/57 126/113/58 95/116/58 108/165/57
f 112/179/81 127/180/82 128/121/60 113/125/44
f 129/136/44 113/125/44 128/121/60 130/120/52
f 127/180/82 123/176/57 121/174/57 128/121/60
f 128/121/60 121/174/57 98/151/57 97/122/55
f 125/178/58 131/181/83 132/114/59 126/113/58
f 131/181/83 115/170/80 116/171/61 132/114/59
f 133/118/43 132/114/59 116/171/61 134/182/44
f 119/183/39 134/184/44 116/129/61 92/185/40
f 138/186/47 116/171/61 114/169/61 139/187/44
f 142/188/76 106/163/74 107/164/73 143/189/78
f 114/133/61 117/190/47 141/191/42 103/192/49
f 143/189/78 101/154/77 99/152/75 142/188/76
f 142/188/76 99/152/75 105/161/79 106/163/74
f 107/164/73 93/160/72 101/154/77 143/189/78
f 74/193/22 70/194/19 67/195/16 77/196/25
f 145/197/84 146/198/85 147/199/86 148/200/87
f 73/201/21 64/202/15 52/203/7 43/204/1
f 53/205/9 86/206/34 45/207/3 56/208/10
f 50/209/62 49/210/8 83/211/31 90/212/38
f 54/213/64 50/209/62 90/212/38 89/214/37
f 51/215/63 54/213/64 89/214/37 88/216/36
f 55/217/65 51/218/63 88/219/36 87/220/35
f 53/205/9 55/217/65 87/220/35 86/206/34
f 82/221/30 43/204/1 52/203/7 60/222/68
f 84/223/32 82/221/30 60/222/68 59/224/67
f 44/225/2 84/226/32 59/227/67 58/228/66
f 85/229/33 44/230/2 58/231/66 57/232/11
f 45/207/3 85/229/33 57/232/11 56/208/10
f 62/233/13 61/234/12 48/235/6 72/236/71
f 75/237/23 62/233/13 72/236/71 47/238/5
f 63/239/14 75/237/23 47/238/5 71/240/20
f 76/241/24 63/239/14 71/240/20 46/242/4
f 74/193/22 76/241/24 46/242/4 70/194/19
f 65/243/69 64/202/15 73/201/21 81/244/29
f 68/245/70 65/243/69 81/244/29 80/246/28
f 66/247/17 68/245/70 80/246/28 79/248/27
f 69/249/18 66/247/17 79/248/27 78/250/26
f 67/195/16 69/249/18 78/250/26 77/196/25
f 83/211/31 49/210/8 48/235/6 61/234/12
f 149/251/88 150/252/89 146/253/85 151/254/90
f 152/255/91 149/251/88 151/254/90 145/256/84
f 153/257/92 152/255/91 145/256/84 148/258/87
f 154/259/93 153/257/92 148/258/87 155/260/94
f 156/261/95 154/259/93 155/260/94 157/262/96
f 158/263/97 156/261/95 157/262/96 159/264/98
f 160/265/99 158/263/97 159/264/98 161/266/100
f 162/267/101 160/265/99 161/266/100 147/268/86
f 163/269/102 162/267/101 147/268/86 164/270/103
f 145/197/84 151/271/90 146/198/85
f 146/198/85 164/272/103 147/199/86
f 147/199/86 161/273/100 159/274/98
f 159/274/98 157/275/96 147/199/86
f 157/275/96 155/276/94 147/199/86
f 155/276/94 148/200/87 147/199/86
f 153/277/92 156/278/95 160/279/99 162/280/101
f 150/281/89 163/269/102 164/270/103 146/282/85
f 104/126/48 97/122/55 100/153/76 102/283/78
f 163/284/102 150/285/89 153/277/92
f 150/285/89 149/286/88 153/277/92
f 149/286/88 152/287/91 153/277/92
f 153/277/92 154/288/93 156/278/95
f 156/278/95 158/289/97 160/279/99
f 162/280/101 163/284/102 153/277/92
