# Blender v3.3.1 OBJ File: 'marscity.blend'
# www.blender.org
mtllib 04_sept_r.mtl
o 04_sept_r_Grid.002
v -8.000000 -0.100000 8.000003
v -4.800000 -0.100000 8.000003
v -1.600000 -0.100000 8.000003
v 1.600000 -0.100000 8.000003
v 4.800000 -0.100000 8.000003
v 7.976306 -0.100000 8.000003
v -8.000000 -0.100000 5.714291
v -4.800000 -0.100000 5.714291
v -1.600000 -0.100000 5.714291
v 1.600000 -0.100000 5.714291
v 4.800000 -0.100000 5.714291
v 7.976306 -0.100000 5.714291
v -8.000000 -0.100000 3.157146
v -4.800000 -0.100000 3.157146
v -1.600000 -0.100000 3.157146
v 1.600000 -0.100000 3.157146
v 4.800000 -0.100000 3.157146
v 7.976306 -0.100000 3.157146
v -8.000000 -0.100000 0.357145
v -4.800000 -0.100000 0.357145
v -1.600000 -0.100000 0.357145
v 1.600000 -0.100000 0.357145
v 4.800000 -0.100000 0.357145
v 7.976306 -0.100000 0.357145
v -8.000000 0.000000 5.714291
v -8.000000 0.000000 8.000003
v -4.800000 0.000000 8.000003
v -4.800000 0.000000 5.714291
v -1.600000 0.000000 8.000003
v -1.600000 0.000000 5.714291
v -8.000000 0.000000 0.357145
v -4.800000 0.000000 0.357145
v -1.600000 0.000000 0.357145
v 1.600000 0.000000 0.357145
v 4.800000 0.000000 0.357145
v 7.976306 0.000000 0.357145
v -8.000000 0.000000 -4.799997
v -4.800000 0.000000 -4.799997
v -1.600000 0.000000 -4.799997
v 1.600000 0.000000 -4.799997
v 4.800000 0.000000 -4.799997
v 7.976306 0.000000 -4.799997
v -8.000000 0.000000 -7.999997
v -4.800000 0.000000 -7.999997
v -1.600000 0.000000 -7.999997
v 1.600000 0.000000 -7.999997
v 4.800000 0.000000 -7.999997
v 7.976306 0.000000 -7.999997
v 4.796897 0.000000 8.000004
v 4.796897 0.000000 5.714291
v 7.973203 0.000000 8.000004
v 7.973203 0.000000 5.714291
v -6.467656 0.000000 -2.927405
v -6.467656 5.072593 -2.927405
v -7.369001 0.000000 -7.999998
v -7.369001 5.072593 -7.999998
v -1.395062 0.000000 -2.927405
v -1.395062 5.072593 -2.927405
v -1.395062 5.072593 -7.999998
v -6.918329 0.000000 -5.463701
v -6.467656 2.536296 -2.927405
v -6.918329 5.072593 -5.463701
v -7.369001 2.536296 -7.999998
v -4.382032 5.072593 -7.999998
v -1.395062 5.072593 -5.463702
v -1.395062 2.536296 -2.927405
v -3.931359 0.000000 -2.927405
v -3.931359 5.072593 -2.927405
v -4.156695 5.072593 -5.463702
v -3.931359 2.536296 -2.927405
v -6.918329 2.536296 -5.463701
vt 0.000000 0.000000
vt 0.000000 0.000000
vt 0.000000 0.000000
vt 0.000000 0.000000
vt 0.000000 0.000000
vt 0.000000 0.000000
vt 0.000000 0.000000
vt 0.000000 0.000000
vt 0.000000 0.000000
vt 0.000000 0.000000
vt 0.000000 0.000000
vt 0.000000 0.000000
vt 0.200000 0.200000
vt 0.000000 0.200000
vt 0.000000 0.200000
vt 0.200000 0.200000
vt 0.800000 0.600000
vt 1.000000 0.600000
vt 1.000000 0.600000
vt 0.800000 0.600000
vt 0.000000 0.600000
vt 0.200000 0.600000
vt 0.200000 0.600000
vt 0.000000 0.600000
vt 0.600000 0.600000
vt 0.600000 0.600000
vt 0.400000 0.200000
vt 0.400000 0.200000
vt 0.400000 0.600000
vt 0.400000 0.600000
vt 0.400000 0.000000
vt 0.600000 0.000000
vt 0.600000 0.200000
vt 0.800000 0.000000
vt 0.800000 0.200000
vt 0.200000 0.400000
vt 0.000000 0.400000
vt 0.400000 0.400000
vt 0.600000 0.400000
vt 0.800000 0.400000
vt 1.000000 0.200000
vt 1.000000 0.400000
vt 0.400000 0.000000
vt 0.200000 0.000000
vt 0.200000 0.800000
vt 0.000000 0.800000
vt 0.400000 0.800000
vt 0.600000 0.800000
vt 0.800000 0.800000
vt 1.000000 0.800000
vt 0.200000 1.000000
vt 0.000000 1.000000
vt 0.400000 1.000000
vt 0.600000 1.000000
vt 0.800000 1.000000
vt 1.000000 1.000000
vt 0.800000 0.000000
vt 1.000000 0.000000
vt 1.000000 0.200000
vt 0.800000 0.200000
vt 0.500000 0.125000
vt 0.625000 0.125000
vt 0.625000 0.250000
vt 0.500000 0.250000
vt 0.500000 0.875000
vt 0.625000 0.875000
vt 0.625000 1.000000
vt 0.500000 1.000000
vt 0.750000 0.625000
vt 0.875000 0.625000
vt 0.875000 0.750000
vt 0.750000 0.750000
vt 0.625000 0.625000
vt 0.625000 0.750000
vt 0.625000 0.500000
vt 0.750000 0.500000
vt 0.875000 0.500000
vt 0.375000 0.875000
vt 0.375000 1.000000
vt 0.375000 0.750000
vt 0.500000 0.750000
vt 0.375000 0.125000
vt 0.375000 0.250000
vt 0.375000 0.000000
vt 0.500000 0.000000
vt 0.625000 0.000000
vn 0.0000 0.0000 1.0000
vn -1.0000 0.0000 0.0000
vn 0.0000 0.0000 -1.0000
vn 0.0000 1.0000 0.0000
vn 1.0000 0.0000 0.0000
vn -0.9995 -0.0310 0.0000
vn -0.9846 0.0000 0.1749
usemtl MARSNULL
s off
f 1/1/1 2/2/1 27/3/1 26/4/1
f 2/2/1 3/5/1 29/6/1 27/3/1
f 7/7/2 1/1/2 26/4/2 25/8/2
f 5/9/1 6/10/1 51/11/1 49/12/1
usemtl MARSINDX_233
f 8/13/3 7/14/3 25/15/3 28/16/3
f 23/17/1 24/18/1 36/19/1 35/20/1
f 19/21/1 20/22/1 32/23/1 31/24/1
f 22/25/1 23/17/1 35/20/1 34/26/1
f 9/27/3 8/13/3 28/16/3 30/28/3
f 20/22/1 21/29/1 33/30/1 32/23/1
f 21/29/1 22/25/1 34/26/1 33/30/1
usemtl MARSINDX_14
f 3/31/4 4/32/4 10/33/4 9/27/4
f 4/32/4 5/34/4 11/35/4 10/33/4
f 7/14/4 8/13/4 14/36/4 13/37/4
f 8/13/4 9/27/4 15/38/4 14/36/4
f 9/27/4 10/33/4 16/39/4 15/38/4
f 10/33/4 11/35/4 17/40/4 16/39/4
f 11/35/4 12/41/4 18/42/4 17/40/4
f 13/37/4 14/36/4 20/22/4 19/21/4
f 14/36/4 15/38/4 21/29/4 20/22/4
f 15/38/4 16/39/4 22/25/4 21/29/4
f 16/39/4 17/40/4 23/17/4 22/25/4
f 17/40/4 18/42/4 24/18/4 23/17/4
usemtl MARSINDX_163
f 3/31/5 9/27/5 30/28/5 29/43/5
f 26/4/4 27/44/4 28/16/4 25/15/4
f 27/44/4 29/43/4 30/28/4 28/16/4
f 31/24/4 32/23/4 38/45/4 37/46/4
f 32/23/4 33/30/4 39/47/4 38/45/4
f 33/30/4 34/26/4 40/48/4 39/47/4
f 34/26/4 35/20/4 41/49/4 40/48/4
f 35/20/4 36/19/4 42/50/4 41/49/4
f 37/46/4 38/45/4 44/51/4 43/52/4
f 38/45/4 39/47/4 45/53/4 44/51/4
f 39/47/4 40/48/4 46/54/4 45/53/4
f 40/48/4 41/49/4 47/55/4 46/54/4
f 41/49/4 42/50/4 48/56/4 47/55/4
f 49/57/4 51/58/4 52/59/4 50/60/4
f 12/41/3 11/35/3 50/60/3 52/59/3
f 11/35/6 5/34/6 49/57/6 50/60/6
usemtl MARSINDX_63
f 71/61/7 62/62/7 56/63/7 63/64/7
f 70/65/1 68/66/1 54/67/1 61/68/1
f 69/69/4 62/70/4 54/71/4 68/72/4
f 65/73/4 69/69/4 68/72/4 58/74/4
f 59/75/4 64/76/4 69/69/4 65/73/4
f 64/76/4 56/77/4 62/70/4 69/69/4
f 67/78/1 70/65/1 61/68/1 53/79/1
f 57/80/1 66/81/1 70/65/1 67/78/1
f 66/81/1 58/74/1 68/66/1 70/65/1
f 60/82/7 71/61/7 63/64/7 55/83/7
f 53/84/7 61/85/7 71/61/7 60/82/7
f 61/85/7 54/86/7 62/62/7 71/61/7
