# Blender v3.3.0 OBJ File: 'marscity_old.blend'
# www.blender.org
mtllib 06_septm.mtl
o 06_septm_Plane.008
v -2.240000 0.008320 2.239988
v -2.240000 0.008320 -2.240011
v -2.240000 0.008320 -0.000012
v 2.240000 0.008320 -0.000012
v -0.000000 0.008320 -0.000012
v -0.000000 0.008320 -1.568012
v -0.000000 0.008320 1.567989
v -2.240000 0.008320 1.567989
v 2.240000 0.008320 -1.568012
v -2.240000 0.008320 -1.568012
v 2.240000 0.008320 1.567989
v -1.120000 0.008320 -0.000012
v 1.120000 0.008320 -0.000012
v -1.120000 0.008320 -1.568012
v 1.120000 0.008320 -1.568012
v 1.120000 0.008320 1.567989
v -1.120000 0.008320 1.567989
v -2.240000 0.040320 1.567989
v -2.240000 0.040320 2.239988
v 1.120000 0.040320 2.239988
v 2.240000 0.040320 2.239988
v 2.240000 0.040320 -1.568012
v 2.240000 0.040320 -2.240011
v -1.120000 0.040320 -2.240011
v -2.240000 0.040320 -2.240011
v -1.120000 0.040320 2.239988
v -0.000000 0.040320 2.239988
v 1.120000 0.040320 -2.240011
v -0.000000 0.040320 -2.240011
v -0.000000 0.040320 -1.568012
v -0.000000 0.040320 1.567989
v -2.240000 0.040320 -1.568012
v 2.240000 0.040320 1.567989
v -1.120000 0.040320 -1.568012
v 1.120000 0.040320 -1.568012
v 1.120000 0.040320 1.567989
v -1.120000 0.040320 1.567989
v 2.240000 0.008320 2.239988
v 2.240000 0.008320 -2.240011
vt 0.500000 0.250000
vt 0.250000 0.250000
vt 0.250000 0.250000
vt 0.500000 0.250000
vt 0.500000 0.750000
vt 0.750000 0.750000
vt 0.750000 0.750000
vt 0.500000 0.750000
vt 0.000000 0.750000
vt 0.250000 0.750000
vt 0.250000 0.750000
vt 0.000000 0.750000
vt 0.250000 0.000000
vt 0.500000 0.000000
vt 0.750000 0.250000
vt 0.750000 0.000000
vt 1.000000 0.000000
vt 1.000000 0.250000
vt 0.750000 1.000000
vt 0.500000 1.000000
vt 0.250000 1.000000
vt 0.000000 1.000000
vt 1.000000 0.750000
vt 1.000000 1.000000
vt 0.000000 0.250000
vt 0.000000 0.000000
vt 1.000000 0.750000
vt 0.000000 0.250000
vt 0.000000 0.000000
vt 0.000000 0.000000
vt 0.000000 0.000000
vt 1.000000 0.250000
vt 0.750000 0.250000
vt 0.000000 0.000000
vt 0.000000 0.000000
vt 0.000000 0.000000
vt 0.000000 0.000000
vt 0.000000 0.000000
vt 0.000000 0.000000
vt 0.000000 0.500000
vt 0.250000 0.500000
vt 0.500000 0.500000
vt 0.750000 0.500000
vt 1.000000 0.500000
vn 0.0000 0.0000 -1.0000
vn 0.0000 0.0000 1.0000
vn 0.0000 1.0000 0.0000
vn -1.0000 0.0000 0.0000
vn 1.0000 0.0000 0.0000
usemtl MARSINDX_7
s off
f 7/1/1 17/2/1 37/3/1 31/4/1
f 6/5/2 15/6/2 35/7/2 30/8/2
f 10/9/2 14/10/2 34/11/2 32/12/2
f 37/3/3 26/13/3 27/14/3 31/4/3
f 36/15/3 20/16/3 21/17/3 33/18/3
f 35/7/3 28/19/3 29/20/3 30/8/3
f 29/20/3 24/21/3 34/11/3 30/8/3
f 24/21/3 25/22/3 32/12/3 34/11/3
f 22/23/3 23/24/3 28/19/3 35/7/3
f 31/4/3 27/14/3 20/16/3 36/15/3
f 18/25/3 19/26/3 26/13/3 37/3/3
f 15/6/2 9/27/2 22/23/2 35/7/2
f 17/2/1 8/28/1 18/25/1 37/3/1
f 8/29/4 1/30/4 19/26/4 18/31/4
f 11/32/1 16/33/1 36/15/1 33/18/1
f 2/34/4 10/35/4 32/36/4 25/37/4
f 16/33/1 7/1/1 31/4/1 36/15/1
f 14/10/2 6/5/2 30/8/2 34/11/2
f 38/38/5 11/32/5 33/18/5 21/17/5
f 9/27/5 39/39/5 23/24/5 22/23/5
usemtl MARSINDX_17
f 14/10/3 10/9/3 3/40/3 12/41/3
f 6/5/3 14/10/3 12/41/3 5/42/3
f 13/43/3 15/6/3 6/5/3 5/42/3
f 4/44/3 9/27/3 15/6/3 13/43/3
f 13/43/3 16/33/3 11/32/3 4/44/3
f 5/42/3 7/1/3 16/33/3 13/43/3
f 12/41/3 17/2/3 7/1/3 5/42/3
f 3/40/3 8/28/3 17/2/3 12/41/3
