# Blender v3.3.0 OBJ File: 'marscity_old.blend'
# www.blender.org
mtllib 0A_carls_n.mtl
o 0A_carls_n_Plane.015
v 1.927188 0.040320 -1.906701
v -2.552812 0.040320 -1.906700
v 1.927188 0.040320 0.631202
v -0.312812 0.040320 -1.906701
v 1.481704 1.921920 2.124537
v 1.481704 0.040320 2.124537
v -0.312812 0.040320 -0.712034
v 1.927188 0.040320 -0.712034
v -1.432813 0.040320 -1.906701
v 0.151212 1.921920 1.025170
v 0.807188 0.040320 -1.906701
v -2.552812 0.040320 -0.712034
v 0.151212 0.040320 0.631203
v 0.807188 0.040320 0.631203
v -0.597907 1.921920 1.692607
v -0.597907 0.040320 1.692607
v -1.432812 0.040320 -0.712034
v 0.807188 0.040320 -0.712034
v 1.927188 -0.004480 -1.906701
v -2.552812 -0.004480 -1.906700
v -0.312812 -0.004480 -1.906701
v -1.432812 -0.004480 -1.906701
v 0.807188 -0.004480 -1.906701
v 0.816458 1.921920 1.459290
v 0.816458 0.040320 1.459290
v -2.552811 0.040320 1.854832
v -2.552811 0.040320 0.631203
v 1.097021 0.040320 -1.329050
v 1.097021 2.060488 -1.329050
v 1.126456 0.040320 -1.330979
v 1.126456 2.060488 -1.330979
v 1.154388 0.040320 -1.321497
v 1.154388 2.060488 -1.321497
v 1.176566 0.040320 -1.302048
v 1.176566 2.060488 -1.302048
v 1.189612 0.040320 -1.275592
v 1.189612 2.060488 -1.275592
v 1.191541 0.040320 -1.246158
v 1.191541 2.060488 -1.246158
v 1.182060 0.040320 -1.218225
v 1.182060 2.060488 -1.218225
v 1.162611 0.040320 -1.196048
v 1.162611 2.060488 -1.196048
v 1.136155 0.040320 -1.183002
v 1.136155 2.060488 -1.183002
v 1.106720 0.040320 -1.181072
v 1.106720 2.060488 -1.181072
v 1.078788 0.040320 -1.190554
v 1.078788 2.060488 -1.190554
v 1.056611 0.040320 -1.210003
v 1.056611 2.060488 -1.210003
v 1.043564 0.040320 -1.236459
v 1.043564 2.060488 -1.236459
v 1.041635 0.040320 -1.265893
v 1.041635 2.060488 -1.265893
v 1.051117 0.040320 -1.293826
v 1.051117 2.060488 -1.293826
v 1.070566 0.040320 -1.316003
v 1.070566 2.060488 -1.316003
v 1.159345 2.289865 -1.096454
v 1.182239 2.289865 -1.097955
v 1.203964 2.289865 -1.090580
v 1.221213 2.289865 -1.075453
v 1.231360 2.289865 -1.054876
v 1.232861 2.289865 -1.031983
v 1.225486 2.289865 -1.010258
v 1.210359 2.289865 -0.993009
v 1.189783 2.289865 -0.982861
v 1.166889 2.289865 -0.981361
v 1.145164 2.289865 -0.988736
v 1.127915 2.289865 -1.003863
v 1.117768 2.289865 -1.024439
v 1.116267 2.289865 -1.047333
v 1.123642 2.289865 -1.069058
v 1.138769 2.289865 -1.086307
v 1.182239 2.388511 -1.097955
v 1.159345 2.388511 -1.096454
v 1.203964 2.388511 -1.090580
v 1.221213 2.388511 -1.075453
v 1.231360 2.388511 -1.054876
v 1.232861 2.388511 -1.031983
v 1.225486 2.388511 -1.010258
v 1.210359 2.388511 -0.993009
v 1.189782 2.388511 -0.982861
v 1.166889 2.388511 -0.981361
v 1.145164 2.388511 -0.988735
v 1.127915 2.388511 -1.003863
v 1.117768 2.388511 -1.024439
v 1.116267 2.388511 -1.047333
v 1.123642 2.388511 -1.069058
v 1.138769 2.388511 -1.086307
v 1.043394 2.289865 -1.529189
v 1.066288 2.289865 -1.530690
v 1.088013 2.289865 -1.523315
v 1.105262 2.289865 -1.508188
v 1.115409 2.289865 -1.487611
v 1.116910 2.289865 -1.464718
v 1.109535 2.289865 -1.442993
v 1.094408 2.289865 -1.425743
v 1.073832 2.289865 -1.415596
v 1.050938 2.289865 -1.414096
v 1.029213 2.289865 -1.421470
v 1.011964 2.289865 -1.436597
v 1.001817 2.289865 -1.457174
v 1.000316 2.289865 -1.480067
v 1.007691 2.289865 -1.501793
v 1.022818 2.289865 -1.519042
v 1.066288 2.388511 -1.530690
v 1.043394 2.388511 -1.529189
v 1.088013 2.388511 -1.523315
v 1.105262 2.388511 -1.508188
v 1.115409 2.388511 -1.487611
v 1.116910 2.388511 -1.464718
v 1.109535 2.388511 -1.442993
v 1.094408 2.388511 -1.425743
v 1.073831 2.388511 -1.415596
v 1.050938 2.388511 -1.414096
v 1.029213 2.388511 -1.421470
v 1.011964 2.388511 -1.436597
v 1.001817 2.388511 -1.457174
v 1.000316 2.388511 -1.480067
v 1.007691 2.388511 -1.501793
v 1.022818 2.388511 -1.519042
v -2.552811 1.921920 1.854832
v -2.552811 0.040320 2.124537
v -2.552811 1.921920 2.124537
v 0.151212 0.040320 1.008632
v 1.176366 2.060488 -0.799491
v 1.183455 2.087878 -0.773035
v 1.181379 2.068511 -0.780784
v 1.183455 2.262475 -0.773035
v 1.176366 2.289864 -0.799491
v 1.181379 2.281842 -0.780784
v 0.940090 2.060488 -1.681286
v 0.933001 2.087878 -1.707742
v 0.935078 2.068511 -1.699993
v 0.940090 2.289864 -1.681286
v 0.933001 2.262475 -1.707742
v 0.935078 2.281842 -1.699993
v 1.293086 2.060488 -0.830766
v 1.300175 2.087878 -0.804310
v 1.298099 2.068511 -0.812059
v 1.293086 2.289864 -0.830766
v 1.300175 2.262475 -0.804310
v 1.298099 2.281842 -0.812059
v 1.056810 2.060488 -1.712561
v 1.049721 2.087878 -1.739017
v 1.051797 2.068511 -1.731268
v 1.056810 2.289864 -1.712561
v 1.049721 2.262475 -1.739017
v 1.051797 2.281842 -1.731268
v 1.197307 2.388511 -0.695744
v 1.208364 2.431229 -0.654482
v 1.205125 2.401023 -0.666568
v 1.208364 2.995393 -0.654482
v 1.197307 3.038110 -0.695744
v 1.205125 3.025599 -0.666568
v 0.906352 2.388511 -1.781604
v 0.895296 2.431229 -1.822866
v 0.898534 2.401023 -1.810781
v 0.906352 3.038110 -1.781604
v 0.895296 2.995393 -1.822866
v 0.898534 3.025599 -1.810781
v 1.326824 2.388511 -0.730448
v 1.337880 2.431229 -0.689186
v 1.334642 2.401023 -0.701271
v 1.326824 3.038110 -0.730448
v 1.337880 2.995393 -0.689186
v 1.334641 3.025599 -0.701271
v 1.035868 2.388511 -1.816308
v 1.024812 2.431229 -1.857570
v 1.028051 2.401023 -1.845485
v 1.035868 3.038110 -1.816308
v 1.024812 2.995393 -1.857570
v 1.028051 3.025599 -1.845485
v 1.481704 1.921920 2.124537
v 1.481704 0.040320 2.124537
v 1.927188 0.040320 2.124536
v -2.552811 1.921920 2.124537
v -0.555970 1.921920 2.124537
v -2.552811 0.040320 2.573300
v 1.481704 1.921920 2.573299
v 1.481704 0.040320 2.573299
v 1.927188 0.040320 2.573299
v -2.552811 1.921920 2.573299
v -0.555970 1.921920 2.573300
v 1.927188 0.040320 -1.309368
v -0.312812 0.040320 -1.309367
v -2.552812 0.040320 -1.309367
v -1.432813 0.040320 -1.309367
v 0.807188 0.040320 -1.309367
vt 0.125000 0.500000
vt 0.000000 0.000000
vt 0.250000 0.250000
vt 0.500000 0.250000
vt 0.750000 0.250000
vt 0.000000 0.000000
vt 1.000000 0.250000
vt 0.000000 0.250000
vt 0.000000 0.000000
vt 0.826351 0.500000
vt 0.826351 0.508829
vt 0.673649 0.508829
vt 0.673649 0.500000
vt 0.673649 0.741171
vt 0.826351 0.741171
vt 0.389899 0.451351
vt 0.389899 0.298649
vt 0.610101 0.298649
vt 0.610101 0.451351
vt 0.404852 0.461009
vt 0.404852 0.288991
vt 0.595148 0.288991
vt 0.595148 0.461009
vt 0.336009 0.742924
vt 0.163991 0.742924
vt 0.163991 0.507076
vt 0.336009 0.507076
vt 0.836009 0.500000
vt 0.836009 0.507076
vt 0.663991 0.507076
vt 0.663991 0.500000
vt 0.625000 0.288991
vt 0.625000 0.461009
vt 0.336009 0.750000
vt 0.163990 0.750000
vt 0.663991 0.742924
vt 0.836010 0.742924
vt 0.663991 0.750000
vt 0.836010 0.750000
vt 0.595148 0.961009
vt 0.595148 0.788991
vt 0.625000 0.788991
vt 0.625000 0.961010
vt 0.404852 0.961009
vt 0.375000 0.961010
vt 0.375000 0.788991
vt 0.404852 0.788991
vt 0.163991 0.500000
vt 0.336009 0.500000
vt 0.375000 0.461009
vt 0.375000 0.288991
vt 0.625000 0.298649
vt 0.625000 0.451351
vt 0.375000 0.451351
vt 0.375000 0.298649
vt 0.673649 0.750000
vt 0.826351 0.750000
vt 0.326351 0.500000
vt 0.326351 0.508829
vt 0.173649 0.508829
vt 0.173649 0.500000
vt 0.326351 0.750000
vt 0.173649 0.750000
vt 0.173649 0.741171
vt 0.326351 0.741171
vt 0.610101 0.951351
vt 0.610101 0.798649
vt 0.625000 0.798649
vt 0.625000 0.951351
vt 0.389899 0.951351
vt 0.375000 0.951351
vt 0.375000 0.798649
vt 0.389899 0.798649
vt 0.125000 0.625000
vt 0.375000 0.625000
vt 0.375000 0.750000
vt 0.125000 0.750000
vt 0.875000 0.500000
vt 0.000000 0.000000
vt 0.625000 0.000000
vt 0.000000 0.000000
vt 0.000000 0.000000
vt 0.625000 0.500000
vt 0.000000 0.000000
vt 0.000000 0.000000
vt 0.000000 0.000000
vt 0.000000 0.000000
vt 0.000000 0.000000
vt 0.000000 0.000000
vt 0.625000 0.750000
vt 0.000000 0.000000
vt 0.625000 0.750000
vt 0.000000 0.000000
vt 0.000000 0.000000
vt 0.000000 0.000000
vt 0.000000 0.000000
vt 0.250000 0.125000
vt 0.250000 0.000000
vt 0.500000 0.000000
vt 0.500000 0.125000
vt 0.750000 0.125000
vt 0.750000 0.000000
vt 1.000000 0.000000
vt 1.000000 0.125000
vt 0.000000 0.125000
vt 0.000000 0.000000
vt 0.000000 0.000000
vt 0.250000 0.000000
vt 0.500000 0.000000
vt 0.750000 0.000000
vt 1.000000 0.000000
vt 0.000000 0.000000
vt 0.000000 0.000000
vt 0.000000 0.000000
vt 0.204337 0.622769
vt 0.202227 0.626961
vt 0.197133 0.628697
vt 0.000337 0.535154
vt 0.002447 0.530962
vt 0.007541 0.529226
vt 0.197133 0.529226
vt 0.202227 0.530962
vt 0.204337 0.535154
vt 0.007541 0.628697
vt 0.002447 0.626961
vt 0.000337 0.622769
vt 0.195741 0.629827
vt 0.008120 0.629827
vt 0.008120 0.529279
vt 0.195741 0.529279
vt 0.118409 0.819918
vt 0.124166 0.857790
vt 0.118409 0.852655
vt 0.120095 0.856286
vt 0.321821 0.852655
vt 0.320135 0.856286
vt 0.316064 0.857790
vt 0.321821 0.819918
vt 0.316064 0.814782
vt 0.320135 0.816286
vt 0.120095 0.816286
vt 0.124166 0.814782
vt 0.317324 0.814116
vt 0.323143 0.851688
vt 0.317324 0.856782
vt 0.123375 0.856782
vt 0.123375 0.814116
vt 0.000991 0.535271
vt 0.321439 0.815608
vt 0.323143 0.819211
vt 0.321439 0.855290
vt 0.119261 0.855290
vt 0.117556 0.851688
vt 0.117556 0.819211
vt 0.119261 0.815608
vt 0.003079 0.531034
vt 0.200782 0.531034
vt 0.202871 0.535271
vt 0.202870 0.623835
vt 0.200782 0.628072
vt 0.003079 0.628072
vt 0.000991 0.623835
vt 0.071113 0.862075
vt 0.071113 0.896635
vt 0.006313 0.896635
vt 0.006313 0.862075
vt 0.077741 0.856770
vt 0.077741 0.891880
vt 0.011909 0.891880
vt 0.011909 0.856770
vt 0.071550 0.860273
vt 0.071550 0.894406
vt 0.007550 0.894406
vt 0.007550 0.860273
vt 0.077588 0.860586
vt 0.077588 0.900586
vt 0.002588 0.900586
vt 0.002588 0.860586
vt 1.000000 0.500000
vt 1.000000 1.000000
vt 0.937500 1.000000
vt 0.937500 0.500000
vt 0.875000 1.000000
vt 0.875000 0.500000
vt 0.812500 1.000000
vt 0.812500 0.500000
vt 0.750000 1.000000
vt 0.750000 0.500000
vt 0.687500 1.000000
vt 0.687500 0.500000
vt 0.625000 1.000000
vt 0.625000 0.500000
vt 0.562500 1.000000
vt 0.562500 0.500000
vt 0.500000 1.000000
vt 0.500000 0.500000
vt 0.437500 1.000000
vt 0.437500 0.500000
vt 0.375000 1.000000
vt 0.375000 0.500000
vt 0.312500 1.000000
vt 0.312500 0.500000
vt 0.250000 1.000000
vt 0.250000 0.500000
vt 0.187500 1.000000
vt 0.187500 0.500000
vt 0.125000 1.000000
vt 0.125000 0.500000
vt 0.341844 0.471731
vt 0.250000 0.490000
vt 0.158156 0.471731
vt 0.080295 0.419706
vt 0.028269 0.341844
vt 0.010001 0.250000
vt 0.028269 0.158156
vt 0.080295 0.080294
vt 0.158156 0.028269
vt 0.250000 0.010000
vt 0.341844 0.028269
vt 0.419706 0.080294
vt 0.471732 0.158156
vt 0.490000 0.250000
vt 0.471732 0.341844
vt 0.419706 0.419706
vt 0.062500 1.000000
vt 0.062500 0.500000
vt 0.000000 1.000000
vt 0.000000 0.500000
vt 0.750000 0.490000
vt 0.841844 0.471731
vt 0.919706 0.419706
vt 0.971732 0.341844
vt 0.990000 0.250000
vt 0.971732 0.158156
vt 0.919706 0.080294
vt 0.841844 0.028269
vt 0.750000 0.010000
vt 0.658156 0.028269
vt 0.580295 0.080294
vt 0.528269 0.158156
vt 0.510001 0.250000
vt 0.528269 0.341844
vt 0.580295 0.419706
vt 0.658156 0.471731
vt 0.341844 0.471731
vt 0.419706 0.419706
vt 0.471732 0.341844
vt 0.490000 0.250000
vt 0.471732 0.158156
vt 0.419706 0.080294
vt 0.341844 0.028269
vt 0.250000 0.010000
vt 0.158156 0.028269
vt 0.080295 0.080294
vt 0.028269 0.158156
vt 0.010001 0.250000
vt 0.028269 0.341844
vt 0.080295 0.419706
vt 0.158156 0.471731
vt 0.250000 0.490000
vt 0.341844 0.471731
vt 0.250000 0.490000
vt 0.158156 0.471731
vt 0.080295 0.419706
vt 0.028269 0.341844
vt 0.010001 0.250000
vt 0.028269 0.158156
vt 0.080295 0.080294
vt 0.158156 0.028269
vt 0.250000 0.010000
vt 0.341844 0.028269
vt 0.419706 0.080294
vt 0.471732 0.158156
vt 0.490000 0.250000
vt 0.471732 0.341844
vt 0.419706 0.419706
vt 0.341844 0.471731
vt 0.419706 0.419706
vt 0.471732 0.341844
vt 0.490000 0.250000
vt 0.471732 0.158156
vt 0.419706 0.080294
vt 0.341844 0.028269
vt 0.250000 0.010000
vt 0.158156 0.028269
vt 0.080295 0.080294
vt 0.028269 0.158156
vt 0.010001 0.250000
vt 0.028269 0.341844
vt 0.080295 0.419706
vt 0.158156 0.471731
vt 0.250000 0.490000
vt 0.341844 0.471731
vt 0.250000 0.490000
vt 0.158156 0.471731
vt 0.080295 0.419706
vt 0.028269 0.341844
vt 0.010001 0.250000
vt 0.028269 0.158156
vt 0.080295 0.080294
vt 0.158156 0.028269
vt 0.250000 0.010000
vt 0.341844 0.028269
vt 0.419706 0.080294
vt 0.471732 0.158156
vt 0.490000 0.250000
vt 0.471732 0.341844
vt 0.419706 0.419706
vn 0.0000 1.0000 0.0000
vn -0.0990 0.9239 -0.3696
vn -0.2588 0.0000 -0.9659
vn 0.0000 -1.0000 -0.0000
vn -0.2391 0.3827 -0.8924
vn 0.0990 -0.9239 0.3696
vn 0.0990 0.9239 0.3697
vn 0.2391 0.3827 0.8924
vn 0.2391 -0.3827 0.8924
vn -0.0990 -0.9239 -0.3696
vn -0.2391 -0.3827 -0.8924
vn 0.2588 0.0000 0.9659
vn 0.0990 0.9239 0.3696
vn 0.0990 -0.9239 0.3697
vn 0.7071 0.0000 -0.7071
vn 0.0827 0.0000 0.9966
vn 1.0000 0.0000 0.0000
vn -0.6698 0.0033 -0.7426
vn 0.5537 0.0037 -0.8327
vn -1.0000 0.0000 0.0000
vn -0.0000 -0.0000 -1.0000
vn -0.9659 -0.0000 0.2588
vn 0.9659 0.0000 -0.2588
vn -0.0654 0.0000 -0.9979
vn 0.3214 0.0000 -0.9469
vn 0.6593 0.0000 -0.7518
vn 0.8969 0.0000 -0.4423
vn 0.9979 0.0000 -0.0654
vn 0.9469 0.0000 0.3214
vn 0.7518 0.0000 0.6593
vn 0.4423 0.0000 0.8969
vn 0.0654 0.0000 0.9979
vn -0.3214 0.0000 0.9469
vn -0.6593 0.0000 0.7518
vn -0.8969 0.0000 0.4423
vn -0.9979 0.0000 0.0654
vn -0.9469 0.0000 -0.3214
vn -0.7518 0.0000 -0.6593
vn -0.4423 0.0000 -0.8969
usemtl MARSINDX_17
s off
f 13/1/1 14/2/1 18/3/1 7/4/1
f 17/5/1 27/6/1 13/1/1 7/4/1
f 17/5/1 12/7/1 27/6/1
f 8/8/1 18/3/1 14/2/1 3/9/1
f 163/10/2 161/11/2 173/12/2 175/13/2
f 167/14/1 173/12/1 161/11/1 156/15/1
f 171/16/3 159/17/3 162/18/3 174/19/3
f 147/20/3 135/21/3 138/22/3 150/23/3
f 140/24/4 128/25/4 134/26/4 146/27/4
f 139/28/2 137/29/2 149/30/2 151/31/2
f 138/22/5 139/32/5 151/33/5 150/23/5
f 142/34/6 130/35/6 128/25/6 140/24/6
f 143/36/1 149/30/1 137/29/1 132/37/1
f 145/38/7 143/36/7 132/37/7 133/39/7
f 131/40/8 144/41/8 145/42/8 133/43/8
f 129/44/9 130/45/9 142/46/9 141/47/9
f 136/48/10 148/49/10 146/27/10 134/26/10
f 147/20/11 148/50/11 136/51/11 135/21/11
f 129/44/12 141/47/12 144/41/12 131/40/12
f 162/18/5 163/52/5 175/53/5 174/19/5
f 159/17/11 171/16/11 172/54/11 160/55/11
f 169/56/13 167/14/13 156/15/13 157/57/13
f 172/58/10 170/59/10 158/60/10 160/61/10
f 166/62/14 154/63/14 152/64/14 164/65/14
f 155/66/8 168/67/8 169/68/8 157/69/8
f 153/70/9 154/71/9 166/72/9 165/73/9
f 152/64/4 158/60/4 170/59/4 164/65/4
f 153/70/12 165/73/12 168/67/12 155/66/12
usemtl MARSINDX_247
f 25/74/15 24/75/15 5/76/15 6/77/15
f 15/78/1 24/79/1 10/80/1
f 15/78/16 124/81/16 26/82/16 16/83/16
f 124/81/17 126/84/17 125/85/17 26/82/17
f 10/80/18 127/86/18 16/83/18 15/78/18
f 25/87/19 127/86/19 10/80/19 24/75/19
f 176/88/4 180/89/4 15/78/4 24/79/4
f 15/78/4 180/89/4 179/90/4 124/81/4
f 179/90/4 180/89/4 186/91/4 185/92/4
f 180/89/4 176/88/4 182/93/4 186/91/4
f 181/94/17 125/85/17 179/90/17 185/92/17
f 176/88/20 177/95/20 183/96/20 182/93/20
usemtl MARSINDX_7
f 191/97/1 11/98/1 4/99/1 188/100/1
f 190/101/1 9/102/1 2/103/1 189/104/1
f 3/9/1 14/2/1 25/87/1
f 188/100/1 4/99/1 9/102/1 190/101/1
f 187/105/1 1/106/1 11/98/1 191/97/1
f 11/98/21 1/106/21 19/107/21 23/108/21
f 9/102/21 4/99/21 21/109/21 22/110/21
f 4/99/21 11/98/21 23/108/21 21/109/21
f 2/103/21 9/102/21 22/110/21 20/111/21
f 25/87/1 6/112/1 3/9/1
f 177/95/4 3/9/4 178/113/4
f 127/86/1 13/1/1 27/6/1 26/82/1
f 127/86/1 25/87/1 14/2/1 13/1/1
f 16/83/4 26/82/4 127/86/4
f 177/95/4 178/113/4 184/114/4 183/96/4
usemtl marscity
f 155/115/22 157/116/22 156/117/22
f 159/118/22 160/119/22 158/120/22
f 152/121/22 154/122/22 153/123/22
f 161/124/22 163/125/22 162/126/22
f 173/127/23 167/128/23 164/129/23 170/130/23
f 156/117/22 161/124/22 158/120/22 152/121/22
f 152/121/22 155/115/22 156/117/22
f 155/115/22 152/121/22 153/123/22
f 141/131/23 143/132/23 144/133/23
f 143/132/23 145/134/23 144/133/23
f 150/135/23 151/136/23 149/137/23
f 147/138/23 150/135/23 146/139/23
f 149/137/23 146/139/23 150/135/23
f 146/139/23 148/140/23 147/138/23
f 141/131/23 142/141/23 140/142/23
f 141/131/23 140/142/23 143/132/23
f 128/143/22 131/144/22 132/145/22
f 158/120/22 161/124/22 159/118/22
f 132/145/22 137/146/22 134/147/22 128/143/22
f 165/148/23 164/129/23 167/128/23
f 143/132/23 140/142/23 146/139/23 149/137/23
f 128/143/22 130/149/22 129/150/22
f 131/144/22 128/143/22 129/150/22
f 131/144/22 133/151/22 132/145/22
f 162/126/22 159/118/22 161/124/22
f 137/146/22 139/152/22 138/153/22
f 134/147/22 137/146/22 135/154/22
f 138/153/22 135/154/22 137/146/22
f 135/154/22 136/155/22 134/147/22
f 165/148/23 166/156/23 164/129/23
f 170/130/23 172/157/23 171/158/23
f 173/127/23 170/130/23 174/159/23
f 171/158/23 174/159/23 170/130/23
f 174/159/23 175/160/23 173/127/23
f 167/128/23 169/161/23 168/162/23
f 165/148/23 167/128/23 168/162/23
f 8/163/1 187/164/1 191/165/1 18/166/1
f 7/167/1 188/168/1 190/169/1 17/170/1
f 17/171/1 190/172/1 189/173/1 12/174/1
f 18/175/1 191/176/1 188/177/1 7/178/1
usemtl MARSINDX_255
f 28/179/24 29/180/24 31/181/24 30/182/24
f 30/182/25 31/181/25 33/183/25 32/184/25
f 32/184/26 33/183/26 35/185/26 34/186/26
f 34/186/27 35/185/27 37/187/27 36/188/27
f 36/188/28 37/187/28 39/189/28 38/190/28
f 38/190/29 39/189/29 41/191/29 40/192/29
f 40/192/30 41/191/30 43/193/30 42/194/30
f 42/194/31 43/193/31 45/195/31 44/196/31
f 44/196/32 45/195/32 47/197/32 46/198/32
f 46/198/33 47/197/33 49/199/33 48/200/33
f 48/200/34 49/199/34 51/201/34 50/202/34
f 50/202/35 51/201/35 53/203/35 52/204/35
f 52/204/36 53/203/36 55/205/36 54/206/36
f 54/206/37 55/205/37 57/207/37 56/208/37
f 31/209/1 29/210/1 59/211/1 57/212/1 55/213/1 53/214/1 51/215/1 49/216/1 47/217/1 45/218/1 43/219/1 41/220/1 39/221/1 37/222/1 35/223/1 33/224/1
f 56/208/38 57/207/38 59/225/38 58/226/38
f 58/226/39 59/225/39 29/227/39 28/228/39
f 28/229/4 30/230/4 32/231/4 34/232/4 36/233/4 38/234/4 40/235/4 42/236/4 44/237/4 46/238/4 48/239/4 50/240/4 52/241/4 54/242/4 56/243/4 58/244/4
f 61/245/4 62/246/4 63/247/4 64/248/4 65/249/4 66/250/4 67/251/4 68/252/4 69/253/4 70/254/4 71/255/4 72/256/4 73/257/4 74/258/4 75/259/4 60/260/4
f 76/261/1 77/262/1 91/263/1 90/264/1 89/265/1 88/266/1 87/267/1 86/268/1 85/269/1 84/270/1 83/271/1 82/272/1 81/273/1 80/274/1 79/275/1 78/276/1
f 73/257/36 72/256/36 88/266/36 89/265/36
f 66/250/29 65/249/29 81/273/29 82/272/29
f 74/258/37 73/257/37 89/265/37 90/264/37
f 67/251/30 66/250/30 82/272/30 83/271/30
f 75/259/38 74/258/38 90/264/38 91/263/38
f 68/252/31 67/251/31 83/271/31 84/270/31
f 61/245/24 60/260/24 77/262/24 76/261/24
f 60/260/39 75/259/39 91/263/39 77/262/39
f 69/253/32 68/252/32 84/270/32 85/269/32
f 62/246/25 61/245/25 76/261/25 78/276/25
f 70/254/33 69/253/33 85/269/33 86/268/33
f 63/247/26 62/246/26 78/276/26 79/275/26
f 71/255/34 70/254/34 86/268/34 87/267/34
f 64/248/27 63/247/27 79/275/27 80/274/27
f 72/256/35 71/255/35 87/267/35 88/266/35
f 65/249/28 64/248/28 80/274/28 81/273/28
f 93/277/4 94/278/4 95/279/4 96/280/4 97/281/4 98/282/4 99/283/4 100/284/4 101/285/4 102/286/4 103/287/4 104/288/4 105/289/4 106/290/4 107/291/4 92/292/4
f 108/293/1 109/294/1 123/295/1 122/296/1 121/297/1 120/298/1 119/299/1 118/300/1 117/301/1 116/302/1 115/303/1 114/304/1 113/305/1 112/306/1 111/307/1 110/308/1
f 105/289/36 104/288/36 120/298/36 121/297/36
f 98/282/29 97/281/29 113/305/29 114/304/29
f 106/290/37 105/289/37 121/297/37 122/296/37
f 99/283/30 98/282/30 114/304/30 115/303/30
f 107/291/38 106/290/38 122/296/38 123/295/38
f 100/284/31 99/283/31 115/303/31 116/302/31
f 93/277/24 92/292/24 109/294/24 108/293/24
f 92/292/39 107/291/39 123/295/39 109/294/39
f 101/285/32 100/284/32 116/302/32 117/301/32
f 94/278/25 93/277/25 108/293/25 110/308/25
f 102/286/33 101/285/33 117/301/33 118/300/33
f 95/279/26 94/278/26 110/308/26 111/307/26
f 103/287/34 102/286/34 118/300/34 119/299/34
f 96/280/27 95/279/27 111/307/27 112/306/27
f 104/288/35 103/287/35 119/299/35 120/298/35
f 97/281/28 96/280/28 112/306/28 113/305/28
