# Blender v3.2.1 OBJ File: 'untitled.blend'
# www.blender.org
mtllib test.mtl
o obj0
v -0.390000 0.400000 -0.000000
v -0.810000 0.400000 -0.000000
v -0.390000 -0.200000 0.000000
v -0.810000 -0.200000 0.000000
v -0.163353 -0.129511 -0.137494
v -0.246845 0.184870 0.016759
v 0.118958 0.024741 -0.299069
v 0.035466 0.339122 -0.144817
v 0.043841 -0.213003 0.144817
v -0.039650 0.101378 0.299070
v 0.326152 -0.058751 -0.016759
v 0.242661 0.255631 0.137494
v 0.427609 -0.258976 0.000000
v 0.841228 -0.331908 0.000000
v 0.531798 0.331908 -0.000000
v 0.945417 0.258976 -0.000000
vt 0.006603 0.162791
vt 0.330157 0.162791
vt 0.330157 0.596535
vt 0.006603 0.596535
vt 0.665205 0.375835
vt 0.920474 0.375835
vt 0.920474 0.631104
vt 0.665205 0.631104
vt 0.668750 0.377830
vt 0.918750 0.377830
vt 0.918750 0.627830
vt 0.668750 0.627830
vt 0.666364 0.376932
vt 0.920989 0.376932
vt 0.920989 0.631557
vt 0.666364 0.631557
vt 0.666684 0.376994
vt 0.920817 0.376994
vt 0.920817 0.631127
vt 0.666684 0.631127
vt 0.666373 0.376412
vt 0.920733 0.376412
vt 0.920733 0.630773
vt 0.666373 0.630773
vt 0.923207 0.632002
vt 0.923207 0.374937
vt 0.665696 0.374937
vt 0.665696 0.632002
vt 0.507049 0.634457
vt 0.769032 0.634457
vt 0.769032 0.997359
vt 0.507049 0.997359
vn 0.0000 0.0000 1.0000
vn -0.2319 0.8733 0.4285
vn 0.2319 -0.8733 -0.4285
vn -0.7842 -0.4285 0.4488
vn 0.5755 -0.2319 0.7842
vn 0.7842 0.4285 -0.4488
vn -0.5755 0.2319 -0.7842
usemtl pecsi
s off
f 4/1/1 3/2/1 1/3/1 2/4/1
f 5/5/2 9/6/2 11/7/2 7/8/2
f 10/9/3 6/10/3 8/11/3 12/12/3
f 8/13/4 7/14/4 11/15/4 12/16/4
f 6/17/5 5/18/5 7/19/5 8/20/5
f 10/21/6 9/22/6 5/23/6 6/24/6
f 12/25/7 11/26/7 9/27/7 10/28/7
f 13/29/1 14/30/1 16/31/1 15/32/1
