# Blender v3.2.1 OBJ File: 'untitled.blend'
# www.blender.org
mtllib test.mtl
o Icosphere
v -0.162456 -0.840654 0.499995
v 0.425323 -0.840654 0.309011
v 0.262869 -0.515738 0.809012
v 0.850648 -0.515736 0.000000
v 0.425323 -0.840654 -0.309011
v -0.525730 -0.840652 0.000000
v -0.688189 -0.515736 0.499997
v -0.162456 -0.840654 -0.499995
v -0.688189 -0.515736 -0.499997
v 0.262869 -0.515738 -0.809012
v 0.951058 0.010000 0.309013
v 0.951058 0.010000 -0.309013
v 0.000000 0.010000 1.000000
v 0.587786 0.010000 0.809017
v -0.951058 0.010000 0.309013
v -0.587786 0.010000 0.809017
v -0.587786 0.010000 -0.809017
v -0.951058 0.010000 -0.309013
v 0.587786 0.010000 -0.809017
v 0.000000 0.010000 -1.000000
v 0.688189 0.535736 0.499997
v -0.262869 0.535738 0.809012
v -0.850648 0.535736 0.000000
v -0.262869 0.535738 -0.809012
v 0.688189 0.535736 -0.499997
v 0.162456 0.860654 0.499995
v 0.525730 0.860652 0.000000
v -0.425323 0.860654 0.309011
v -0.425323 0.860654 -0.309011
v 0.162456 0.860654 -0.499995
v 0.000000 1.010000 0.000000
v 0.894426 0.457216 0.000000
v 0.276388 0.457220 -0.850649
v -0.723607 0.457219 -0.525725
v -0.723607 0.457219 0.525725
v 0.276388 0.457220 0.850649
v 0.723607 -0.437220 -0.525725
v -0.276388 -0.437220 -0.850649
v -0.894426 -0.437216 0.000000
v -0.276388 -0.437220 0.850649
v 0.723607 -0.437220 0.525725
v 0.000000 -0.990000 0.000000
vt 0.484971 0.534766
vt 0.557421 0.539482
vt 0.513818 0.599869
vt 0.441368 0.595153
vt 0.470215 0.660256
vt 0.629871 0.544199
vt 0.702322 0.548915
vt 0.658719 0.609302
vt 0.586268 0.604585
vt 0.615116 0.669688
vt 0.774772 0.553631
vt 0.847223 0.558347
vt 0.803620 0.618734
vt 0.731169 0.614018
vt 0.760017 0.679121
vt 0.195168 0.515901
vt 0.267619 0.520618
vt 0.224016 0.581004
vt 0.151565 0.576288
vt 0.180413 0.641391
vt 0.340070 0.525334
vt 0.412520 0.530050
vt 0.368917 0.590437
vt 0.296467 0.585720
vt 0.325314 0.650823
vt 0.528574 0.474380
vt 0.456123 0.469664
vt 0.673474 0.483812
vt 0.601024 0.479096
vt 0.818375 0.493245
vt 0.745925 0.488529
vt 0.238772 0.455515
vt 0.166321 0.450799
vt 0.122718 0.511185
vt 0.383673 0.464948
vt 0.311222 0.460231
vt 0.572177 0.413994
vt 0.644627 0.418710
vt 0.717077 0.423426
vt 0.789528 0.428142
vt 0.861978 0.432859
vt 0.934429 0.437575
vt 0.890826 0.497961
vt 0.282375 0.395129
vt 0.354825 0.399845
vt 0.427276 0.404561
vt 0.499726 0.409278
vt 0.615780 0.353607
vt 0.543329 0.348891
vt 0.760681 0.363040
vt 0.688230 0.358323
vt 0.905581 0.372472
vt 0.833131 0.367756
vt 0.398428 0.339459
vt 0.442031 0.279072
vt 0.470879 0.344175
vt 0.325978 0.334742
vt 0.253527 0.330026
vt 0.209924 0.390413
vt 0.586932 0.288504
vt 0.731833 0.297937
vt 0.876734 0.307369
vt 0.297130 0.269640
vn 0.4089 0.6617 -0.6284
vn 0.4911 0.7947 -0.3568
vn 0.2680 0.9435 -0.1947
vn -0.4713 0.6617 -0.5831
vn -0.1876 0.7947 -0.5773
vn -0.1024 0.9435 -0.3151
vn -0.7002 0.6617 0.2680
vn -0.6071 0.7947 0.0000
vn -0.3313 0.9435 0.0000
vn 0.0385 0.6617 0.7488
vn -0.1876 0.7947 0.5773
vn -0.1024 0.9435 0.3151
vn 0.7240 0.6617 0.1947
vn 0.4911 0.7947 0.3568
vn 0.2680 0.9435 0.1947
vn 0.5746 0.3304 -0.7488
vn 0.7947 0.1876 -0.5773
vn 0.8897 0.3304 -0.3151
vn -0.5346 0.3304 -0.7779
vn -0.3035 0.1876 -0.9342
vn -0.0247 0.3304 -0.9435
vn -0.9050 0.3304 0.2680
vn -0.9822 0.1876 0.0000
vn -0.9050 0.3304 -0.2680
vn -0.0247 0.3304 0.9435
vn -0.3035 0.1876 0.9342
vn -0.5346 0.3304 0.7779
vn 0.8897 0.3304 0.3151
vn 0.7947 0.1876 0.5773
vn 0.5746 0.3304 0.7488
vn 0.0247 -0.3304 -0.9435
vn 0.3035 -0.1876 -0.9342
vn 0.3066 0.1256 -0.9435
vn -0.8897 -0.3304 -0.3151
vn -0.7947 -0.1876 -0.5773
vn -0.8026 0.1256 -0.5831
vn -0.5746 -0.3304 0.7488
vn -0.7947 -0.1876 0.5773
vn -0.8026 0.1256 0.5831
vn 0.5346 -0.3304 0.7779
vn 0.3035 -0.1876 0.9342
vn 0.3066 0.1256 0.9435
vn 0.9050 -0.3304 -0.2680
vn 0.9822 -0.1876 0.0000
vn 0.9921 0.1256 0.0000
vn -0.0385 -0.6617 -0.7488
vn 0.1876 -0.7947 -0.5773
vn 0.4713 -0.6617 -0.5831
vn -0.7240 -0.6617 -0.1947
vn -0.4911 -0.7947 -0.3568
vn -0.4089 -0.6617 -0.6284
vn -0.4089 -0.6617 0.6284
vn -0.4911 -0.7947 0.3568
vn -0.7240 -0.6617 0.1947
vn 0.3313 -0.9435 0.0000
vn 0.6071 -0.7947 0.0000
vn 0.7002 -0.6617 -0.2680
vn 0.4713 -0.6617 0.5831
vn 0.1876 -0.7947 0.5773
vn -0.0385 -0.6617 0.7488
vn 0.7240 0.6617 -0.1947
vn 0.0385 0.6617 -0.7488
vn -0.7002 0.6617 -0.2680
vn -0.4713 0.6617 0.5831
vn 0.4089 0.6617 0.6284
vn 0.8026 -0.1256 -0.5831
vn -0.3066 -0.1256 -0.9435
vn -0.9921 -0.1256 0.0000
vn -0.3066 -0.1256 0.9435
vn 0.8026 -0.1256 0.5831
vn 0.5346 -0.3304 -0.7779
vn -0.5746 -0.3304 -0.7488
vn -0.8897 -0.3304 0.3151
vn 0.0247 -0.3304 0.9435
vn 0.9050 -0.3304 0.2680
vn 0.1024 -0.9435 -0.3151
vn -0.2680 -0.9435 -0.1947
vn -0.2680 -0.9435 0.1947
vn 0.7002 -0.6617 0.2680
vn 0.1024 -0.9435 0.3151
usemtl test_yui
s off
f 25/1/1 33/2/1 30/3/1
f 27/4/2 25/1/2 30/3/2
f 27/4/3 30/3/3 31/5/3
f 24/6/4 34/7/4 29/8/4
f 30/9/5 24/6/5 29/8/5
f 30/9/6 29/8/6 31/10/6
f 23/11/7 35/12/7 28/13/7
f 29/14/8 23/11/8 28/13/8
f 29/14/9 28/13/9 31/15/9
f 22/16/10 36/17/10 26/18/10
f 28/19/11 22/16/11 26/18/11
f 28/19/12 26/18/12 31/20/12
f 21/21/13 32/22/13 27/23/13
f 26/24/14 21/21/14 27/23/14
f 26/24/15 27/23/15 31/25/15
f 19/26/16 33/2/16 25/1/16
f 12/27/17 19/26/17 25/1/17
f 12/27/18 25/1/18 32/22/18
f 17/28/19 34/7/19 24/6/19
f 20/29/20 17/28/20 24/6/20
f 20/29/21 24/6/21 33/2/21
f 15/30/22 35/12/22 23/11/22
f 18/31/23 15/30/23 23/11/23
f 18/31/24 23/11/24 34/7/24
f 13/32/25 36/17/25 22/16/25
f 16/33/26 13/32/26 22/16/26
f 16/33/27 22/16/27 35/34/27
f 11/35/28 32/22/28 21/21/28
f 14/36/29 11/35/29 21/21/29
f 14/36/30 21/21/30 36/17/30
f 10/37/31 38/38/31 20/29/31
f 19/26/32 10/37/32 20/29/32
f 19/26/33 20/29/33 33/2/33
f 9/39/34 39/40/34 18/31/34
f 17/28/35 9/39/35 18/31/35
f 17/28/36 18/31/36 34/7/36
f 7/41/37 40/42/37 16/43/37
f 15/30/38 7/41/38 16/43/38
f 15/30/39 16/43/39 35/12/39
f 3/44/40 41/45/40 14/36/40
f 13/32/41 3/44/41 14/36/41
f 13/32/42 14/36/42 36/17/42
f 4/46/43 37/47/43 12/27/43
f 11/35/44 4/46/44 12/27/44
f 11/35/45 12/27/45 32/22/45
f 8/48/46 38/38/46 10/37/46
f 5/49/47 8/48/47 10/37/47
f 5/49/48 10/37/48 37/47/48
f 6/50/49 39/40/49 9/39/49
f 8/51/50 6/50/50 9/39/50
f 8/51/51 9/39/51 38/38/51
f 1/52/52 40/42/52 7/41/52
f 6/53/53 1/52/53 7/41/53
f 6/53/54 7/41/54 39/40/54
f 2/54/55 42/55/55 5/56/55
f 4/46/56 2/54/56 5/56/56
f 4/46/57 5/56/57 37/47/57
f 2/57/58 41/45/58 3/44/58
f 1/58/59 2/57/59 3/44/59
f 1/58/60 3/44/60 40/59/60
f 32/22/61 25/1/61 27/4/61
f 33/2/62 24/6/62 30/9/62
f 34/7/63 23/11/63 29/14/63
f 35/34/64 22/16/64 28/19/64
f 36/17/65 21/21/65 26/24/65
f 37/47/66 19/26/66 12/27/66
f 38/38/67 17/28/67 20/29/67
f 39/40/68 15/30/68 18/31/68
f 40/59/69 13/32/69 16/33/69
f 41/45/70 11/35/70 14/36/70
f 37/47/71 10/37/71 19/26/71
f 38/38/72 9/39/72 17/28/72
f 39/40/73 7/41/73 15/30/73
f 40/59/74 3/44/74 13/32/74
f 41/45/75 4/46/75 11/35/75
f 42/60/76 8/48/76 5/49/76
f 42/61/77 6/50/77 8/51/77
f 42/62/78 1/52/78 6/53/78
f 41/45/79 2/54/79 4/46/79
f 42/63/80 2/57/80 1/58/80
