# Blender v3.0.1 OBJ File: 'untitled.blend'
# www.blender.org
mtllib test.mtl
o Plane
v 0.065554 0.064156 0.003973
v -0.068510 0.064156 0.003973
v 0.065554 -0.095444 0.003973
v -0.068510 -0.095444 0.003973
v 0.046950 0.013076 0.092738
v 0.142791 0.087984 0.149098
v 0.124987 -0.119272 0.135940
v 0.220828 -0.044364 0.192300
v -0.041788 0.140941 -0.089548
v -0.159036 0.111641 -0.147578
v -0.021935 -0.012900 -0.051986
v -0.139183 -0.042200 -0.110016
v -0.100685 0.060008 0.097975
v -0.223459 0.032726 0.051548
v -0.110553 -0.064556 0.197266
v -0.233327 -0.091837 0.150839
v 0.137934 0.128668 -0.170631
v 0.021861 0.101689 -0.109211
v 0.191359 -0.017121 -0.133704
v 0.075286 -0.044100 -0.072285
vt 0.000000 0.000000
vt 1.000000 0.000000
vt 1.000000 1.000000
vt 0.000000 1.000000
vt 0.000000 0.000000
vt 1.000000 0.000000
vt 1.000000 1.000000
vt 0.000000 1.000000
vt 0.000000 0.000000
vt 1.000000 0.000000
vt 1.000000 1.000000
vt 0.000000 1.000000
vt 0.000000 0.000000
vt 1.000000 0.000000
vt 1.000000 1.000000
vt 0.000000 1.000000
vt 0.000000 0.000000
vt 1.000000 0.000000
vt 1.000000 1.000000
vt 0.000000 1.000000
vn 0.0000 0.0000 1.0000
vn 0.4999 0.0120 -0.8660
vn -0.4687 0.1520 0.8702
vn -0.3969 0.5911 0.7022
vn 0.3719 0.3537 0.8582
usemtl smoke
s off
f 4/1/1 3/2/1 1/3/1 2/4/1
f 8/5/2 7/6/2 5/7/2 6/8/2
f 12/9/3 11/10/3 9/11/3 10/12/3
f 16/13/4 15/14/4 13/15/4 14/16/4
f 20/17/5 19/18/5 17/19/5 18/20/5
