# Blender v3.3.0 OBJ File: 'marscity_old.blend'
# www.blender.org
mtllib 08_blockbu.mtl
o 09_blockbu_Plane.019
v -2.240000 0.000000 2.240321
v 2.239999 0.000000 2.240321
v -2.240000 0.000000 -2.239678
v 2.239999 0.000000 -2.239678
v -2.240000 0.000000 0.000322
v -0.000001 0.000000 2.240321
v 2.239999 0.000000 0.000322
v -0.000001 0.000000 -2.239678
v -0.000001 0.000000 0.000322
v -0.000001 0.000000 -1.119678
v -2.240000 0.000000 1.120322
v 1.119999 0.000000 2.240321
v 2.239999 0.000000 -1.119678
v -1.120000 0.000000 -2.239678
v -2.240000 0.000000 -1.119678
v -1.120000 0.000000 2.240321
v 2.239999 0.000000 1.120322
v 1.119999 0.000000 -2.239678
v -1.120000 0.000000 0.000322
v 1.119999 0.000000 0.000322
v -1.120000 0.000000 -1.119678
v 1.119999 0.000000 -1.119678
v 1.119999 0.000000 1.120322
v -1.120000 0.000000 1.120322
v -0.000001 1.493813 1.120322
v -0.000001 1.493813 0.000322
v -1.120000 1.493813 2.240321
v -0.000001 1.493813 2.240321
v -1.120000 1.493813 0.000322
v 1.119999 1.493813 2.240321
v 1.119999 1.493813 0.000322
v 1.119999 1.493813 1.120322
v -1.120000 1.493813 1.120322
vt 0.750000 0.250000
vt 0.750000 0.000000
vt 1.000000 0.000000
vt 1.000000 0.250000
vt 0.750000 0.750000
vt 0.750000 1.000000
vt 0.500000 1.000000
vt 0.500000 0.750000
vt 0.250000 0.750000
vt 0.000000 0.750000
vt 0.000000 0.500000
vt 0.250000 0.500000
vt 0.500000 0.500000
vt 0.250000 1.000000
vt 0.000000 1.000000
vt 0.750000 0.500000
vt 1.000000 0.500000
vt 1.000000 0.750000
vt 1.000000 1.000000
vt 0.000000 0.250000
vt 0.250000 0.250000
vt 0.000000 0.000000
vt 0.250000 0.000000
vt 0.500000 0.500000
vt 0.750000 0.500000
vt 0.750000 0.250000
vt 0.250000 0.250000
vt 0.250000 0.500000
vt 0.000000 0.000000
vt 0.000000 0.000000
vt 0.000000 0.000000
vt 0.000000 0.000000
vt 0.250000 0.000000
vt 0.500000 0.000000
vt 0.500000 0.250000
vt 0.750000 0.000000
vt 0.000000 0.000000
vt 0.000000 0.000000
vn 0.0000 1.0000 0.0000
vn 0.0000 0.0000 -1.0000
vn 1.0000 0.0000 0.0000
vn -1.0000 0.0000 0.0000
vn 0.0000 0.0000 1.0000
usemtl MARSINDX_17
s off
f 23/1/1 12/2/1 2/3/1 17/4/1
f 22/5/1 18/6/1 8/7/1 10/8/1
f 21/9/1 15/10/1 5/11/1 19/12/1
f 10/8/1 21/9/1 19/12/1 9/13/1
f 8/7/1 14/14/1 21/9/1 10/8/1
f 14/14/1 3/15/1 15/10/1 21/9/1
f 20/16/1 22/5/1 10/8/1 9/13/1
f 7/17/1 13/18/1 22/5/1 20/16/1
f 13/18/1 4/19/1 18/6/1 22/5/1
f 20/16/1 23/1/1 17/4/1 7/17/1
f 5/11/1 11/20/1 24/21/1 19/12/1
f 11/20/1 1/22/1 16/23/1 24/21/1
usemtl MARSINDX_7
f 20/16/2 9/13/2 26/24/2 31/25/2
f 23/1/3 20/16/3 31/25/3 32/26/3
f 19/12/4 24/21/4 33/27/4 29/28/4
f 16/29/5 6/30/5 28/31/5 27/32/5
f 33/27/1 27/33/1 28/34/1 25/35/1
f 26/24/1 25/35/1 32/26/1 31/25/1
f 25/35/1 28/34/1 30/36/1 32/26/1
f 29/28/1 33/27/1 25/35/1 26/24/1
f 9/13/2 19/12/2 29/28/2 26/24/2
f 24/21/4 16/23/4 27/33/4 33/27/4
f 6/30/5 12/37/5 30/38/5 28/31/5
f 12/2/3 23/1/3 32/26/3 30/36/3
