# Blender v3.3.1 OBJ File: 'marscity.blend'
# www.blender.org
mtllib 04_sept_r.mtl
o 04_sept_r_Grid.002
v -8.000000 -0.100000 8.000003
v -1.600000 -0.100000 8.000003
v 1.600000 -0.100000 8.000003
v 4.800000 -0.100000 8.000003
v -8.000000 -0.100000 5.714291
v -4.800000 -0.100000 5.714291
v -1.600000 -0.100000 5.714291
v 1.600000 -0.100000 5.714291
v 4.800000 -0.100000 5.714291
v 7.976306 -0.100000 5.714291
v -8.000000 -0.100000 3.157146
v -4.800000 -0.100000 3.157146
v -1.600000 -0.100000 3.157146
v 1.600000 -0.100000 3.157146
v 4.800000 -0.100000 3.157146
v 7.976306 -0.100000 3.157146
v -8.000000 -0.100000 0.357145
v -4.800000 -0.100000 0.357145
v -1.600000 -0.100000 0.357145
v 1.600000 -0.100000 0.357145
v 4.800000 -0.100000 0.357145
v 7.976306 -0.100000 0.357145
v -8.000000 0.000000 5.714291
v -8.000000 0.000000 8.000003
v -4.800000 0.000000 8.000003
v -4.800000 0.000000 5.714291
v -1.600000 0.000000 8.000003
v -1.600000 0.000000 5.714291
v -8.000000 0.000000 0.357145
v -4.800000 0.000000 0.357145
v -1.600000 0.000000 0.357145
v 1.600000 0.000000 0.357145
v 4.800000 0.000000 0.357145
v 7.976306 0.000000 0.357145
v -8.000000 0.000000 -4.799997
v -4.800000 0.000000 -4.799997
v -1.600000 0.000000 -4.799997
v 1.600000 0.000000 -4.799997
v 4.800000 0.000000 -4.799997
v 7.976306 0.000000 -4.799997
v -8.000000 0.000000 -7.999997
v -4.800000 0.000000 -7.999997
v -1.600000 0.000000 -7.999997
v 1.600000 0.000000 -7.999997
v 4.800000 0.000000 -7.999997
v 7.976306 0.000000 -7.999997
v 4.796897 0.000000 8.000004
v 4.796897 0.000000 5.714291
v 7.973203 0.000000 8.000004
v 7.973203 0.000000 5.714291
v -6.467656 0.000000 -2.927405
v -6.467656 6.548203 -2.927405
v -7.369001 0.000000 -7.999998
v -7.369001 6.548203 -7.999998
v -1.395062 0.000000 -2.927405
v -1.395062 6.548203 -2.927405
v -1.395062 6.548203 -7.999998
v -6.918329 0.000000 -5.463701
v -6.467656 3.211907 -2.927405
v -6.918329 6.548203 -5.463701
v -7.369001 3.211907 -7.999998
v -4.382032 6.548203 -7.999998
v -1.395062 6.548203 -5.463702
v -1.395062 3.211907 -2.927405
v -3.931359 0.000000 -2.927405
v -3.931359 6.548203 -2.927405
v -4.156695 6.548203 -5.463702
v -3.931359 3.211907 -2.927405
v -6.918329 3.211907 -5.463701
vt 0.000000 0.000000
vt 0.000000 0.000000
vt 0.000000 0.000000
vt 0.000000 0.000000
vt 0.200000 0.200000
vt 0.000000 0.200000
vt 0.000000 0.200000
vt 0.200000 0.200000
vt 0.800000 0.600000
vt 1.000000 0.600000
vt 1.000000 0.600000
vt 0.800000 0.600000
vt 0.000000 0.600000
vt 0.200000 0.600000
vt 0.200000 0.600000
vt 0.000000 0.600000
vt 0.600000 0.600000
vt 0.600000 0.600000
vt 0.400000 0.200000
vt 0.400000 0.200000
vt 0.400000 0.600000
vt 0.400000 0.600000
vt 0.013191 0.978287
vt 0.030162 0.978287
vt 0.030162 0.995258
vt 0.013191 0.995258
vt 0.013191 0.978287
vt 0.030162 0.978287
vt 0.030162 0.995258
vt 0.013191 0.995258
vt 0.013191 0.978287
vt 0.030162 0.978287
vt 0.030162 0.995258
vt 0.013191 0.995258
vt 0.013191 0.978287
vt 0.030162 0.978287
vt 0.030162 0.995258
vt 0.013191 0.995258
vt 0.013191 0.978287
vt 0.030162 0.978287
vt 0.030162 0.995258
vt 0.013191 0.995258
vt 0.013191 0.978287
vt 0.030162 0.978287
vt 0.030162 0.995258
vt 0.013191 0.995258
vt 0.013191 0.978287
vt 0.030162 0.978287
vt 0.030162 0.995258
vt 0.013191 0.995258
vt 0.013191 0.978287
vt 0.030162 0.978287
vt 0.030162 0.995258
vt 0.013191 0.995258
vt 0.013191 0.978287
vt 0.030162 0.978287
vt 0.030162 0.995258
vt 0.013191 0.995258
vt 0.013191 0.978287
vt 0.030162 0.978287
vt 0.030162 0.995258
vt 0.013191 0.995258
vt 0.013191 0.978287
vt 0.030162 0.978287
vt 0.030162 0.995258
vt 0.013191 0.995258
vt 0.013191 0.978287
vt 0.030162 0.978287
vt 0.030162 0.995258
vt 0.013191 0.995258
vt 0.400000 0.000000
vt 0.400000 0.000000
vt 0.200000 0.000000
vt 0.200000 0.800000
vt 0.000000 0.800000
vt 0.400000 0.800000
vt 0.600000 0.800000
vt 0.800000 0.800000
vt 1.000000 0.800000
vt 0.200000 1.000000
vt 0.000000 1.000000
vt 0.400000 1.000000
vt 0.600000 1.000000
vt 0.800000 1.000000
vt 1.000000 1.000000
vt 0.800000 0.000000
vt 1.000000 0.000000
vt 1.000000 0.200000
vt 0.800000 0.200000
vt 1.000000 0.200000
vt 0.800000 0.200000
vt 0.800000 0.000000
vt 0.500000 0.125000
vt 0.625000 0.125000
vt 0.625000 0.250000
vt 0.500000 0.250000
vt 0.500000 0.875000
vt 0.625000 0.875000
vt 0.625000 1.000000
vt 0.500000 1.000000
vt 0.750000 0.625000
vt 0.875000 0.625000
vt 0.875000 0.750000
vt 0.750000 0.750000
vt 0.625000 0.625000
vt 0.625000 0.750000
vt 0.625000 0.500000
vt 0.750000 0.500000
vt 0.875000 0.500000
vt 0.375000 0.875000
vt 0.375000 1.000000
vt 0.375000 0.750000
vt 0.500000 0.750000
vt 0.375000 0.125000
vt 0.375000 0.250000
vt 0.375000 0.000000
vt 0.500000 0.000000
vt 0.625000 0.000000
vn -1.0000 0.0000 0.0000
vn 0.0000 0.0000 -1.0000
vn 0.0000 0.0000 1.0000
vn 0.0000 1.0000 0.0000
vn 1.0000 0.0000 0.0000
vn -0.9995 -0.0310 0.0000
vn -0.9846 0.0000 0.1749
usemtl MARSNULL
s off
f 5/1/1 1/2/1 24/3/1 23/4/1
usemtl MARSINDX_246
f 6/5/2 5/6/2 23/7/2 26/8/2
f 21/9/3 22/10/3 34/11/3 33/12/3
f 17/13/3 18/14/3 30/15/3 29/16/3
f 20/17/3 21/9/3 33/12/3 32/18/3
f 7/19/2 6/5/2 26/8/2 28/20/2
f 18/14/3 19/21/3 31/22/3 30/15/3
f 19/21/3 20/17/3 32/18/3 31/22/3
usemtl MARSINDX_21
f 2/23/4 3/24/4 8/25/4 7/26/4
f 3/27/4 4/28/4 9/29/4 8/30/4
f 5/31/4 6/32/4 12/33/4 11/34/4
f 6/35/4 7/36/4 13/37/4 12/38/4
f 7/39/4 8/40/4 14/41/4 13/42/4
f 8/43/4 9/44/4 15/45/4 14/46/4
f 9/47/4 10/48/4 16/49/4 15/50/4
f 11/51/4 12/52/4 18/53/4 17/54/4
f 12/55/4 13/56/4 19/57/4 18/58/4
f 13/59/4 14/60/4 20/61/4 19/62/4
f 14/63/4 15/64/4 21/65/4 20/66/4
f 15/67/4 16/68/4 22/69/4 21/70/4
usemtl MARSINDX_156
f 2/71/5 7/19/5 28/20/5 27/72/5
f 24/3/4 25/73/4 26/8/4 23/7/4
f 25/73/4 27/72/4 28/20/4 26/8/4
f 29/16/4 30/15/4 36/74/4 35/75/4
f 30/15/4 31/22/4 37/76/4 36/74/4
f 31/22/4 32/18/4 38/77/4 37/76/4
f 32/18/4 33/12/4 39/78/4 38/77/4
f 33/12/4 34/11/4 40/79/4 39/78/4
f 35/75/4 36/74/4 42/80/4 41/81/4
f 36/74/4 37/76/4 43/82/4 42/80/4
f 37/76/4 38/77/4 44/83/4 43/82/4
f 38/77/4 39/78/4 45/84/4 44/83/4
f 39/78/4 40/79/4 46/85/4 45/84/4
f 47/86/4 49/87/4 50/88/4 48/89/4
f 10/90/2 9/91/2 48/89/2 50/88/2
f 9/91/6 4/92/6 47/86/6 48/89/6
usemtl MARSINDX_68
f 69/93/7 60/94/7 54/95/7 61/96/7
f 68/97/3 66/98/3 52/99/3 59/100/3
f 67/101/4 60/102/4 52/103/4 66/104/4
f 63/105/4 67/101/4 66/104/4 56/106/4
f 57/107/4 62/108/4 67/101/4 63/105/4
f 62/108/4 54/109/4 60/102/4 67/101/4
f 65/110/3 68/97/3 59/100/3 51/111/3
f 55/112/3 64/113/3 68/97/3 65/110/3
f 64/113/3 56/106/3 66/98/3 68/97/3
f 58/114/7 69/93/7 61/96/7 53/115/7
f 51/116/7 59/117/7 69/93/7 58/114/7
f 59/117/7 52/118/7 60/94/7 69/93/7
