# Blender v3.3.1 OBJ File: 'marscity.blend'
# www.blender.org
mtllib 05_carls_n.mtl
o 05_carls_n_Grid.003
v -8.023694 0.000000 8.000000
v -4.823694 0.000000 8.000000
v -1.623693 0.000000 8.000000
v 1.576305 0.000000 8.000000
v 4.776306 0.000000 8.000000
v 7.976307 0.000000 8.000000
v -8.023694 0.000000 4.800000
v -4.823694 0.000000 4.800000
v -1.623693 0.000000 4.800000
v 1.576305 0.000000 4.800000
v 4.776306 0.000000 4.800000
v 7.976307 0.000000 4.800000
v -8.023694 0.000000 1.600000
v -3.796361 0.000000 0.411517
v -1.623693 0.000000 1.600000
v 1.576305 0.000000 1.600000
v 4.776306 0.000000 1.600000
v 7.976307 0.000000 1.600000
v -8.023694 0.000000 -1.600000
v -4.823694 0.000000 -1.600000
v -1.623693 0.000000 -1.600000
v 1.576305 0.000000 -1.600000
v 4.776306 0.000000 -1.600000
v 7.976307 0.000000 -1.600000
v -8.023694 0.000000 -6.287833
v 1.576305 -0.100000 1.600000
v -1.623693 0.000000 -4.800000
v -8.023694 0.000000 -8.000000
v -3.796361 -0.100000 0.411517
v -1.623693 0.000000 -8.000000
v 6.567969 -0.000000 -7.026577
v 6.567969 2.977085 -7.026577
v 3.573735 2.977085 -6.522615
v 5.159632 2.977086 -7.964279
v 7.976306 0.000000 -5.589647
v -0.564832 2.977085 -6.787852
v -0.564832 -0.000000 -6.787852
v 3.573735 -0.000000 -6.522615
v -0.564832 0.000000 -5.589647
v 5.159632 -0.000000 -8.000000
v 7.976306 2.977085 -5.589647
v 3.662516 2.977085 -5.589647
v -0.564832 2.977085 -5.589647
v 3.662516 2.977086 -4.620317
v -0.564832 2.977086 -4.620317
v 7.976306 2.977086 -4.620319
v 7.976306 0.000000 -4.620319
v -0.564832 0.000000 -4.620317
v 2.291378 -0.000000 -2.274233
v 3.712609 -0.000000 -2.274233
v 6.535271 2.977086 -1.663976
v 5.133842 2.977086 -1.777854
v 5.133842 2.977086 -1.663976
v 5.133842 -0.000000 -1.777855
v 6.535271 -0.000000 -1.663976
v 5.133842 -0.000000 -1.663976
v 7.976307 0.000000 -4.620319
v 3.712609 2.977086 -2.274232
v -0.564829 2.977086 -2.274232
v -0.564831 2.977086 -4.620317
v -0.564831 0.000000 -4.620317
v -0.564829 -0.000000 -2.274233
v 2.291378 2.977086 -2.274232
v 7.976307 2.977086 -4.620319
v 3.623017 2.977086 -4.620317
v 7.976306 0.000000 -8.000000
v -6.423694 0.000000 -1.600000
v -8.023694 0.000000 -2.666667
v -4.823694 0.000000 -3.200000
v -7.576560 0.000000 -6.631681
v -1.623693 0.000000 -3.200000
v -8.023694 0.000000 -7.143916
v -1.623693 -0.100000 1.600000
v -7.576560 0.000000 -8.000000
v -1.623693 0.000000 -6.400000
v -7.576560 0.000000 -7.255409
v -6.423694 0.000000 -3.078839
v -4.823694 -0.100000 -3.200000
v -4.823694 -0.100000 -4.800000
v -7.576560 -0.100000 -6.631681
v -8.023694 -0.100000 -6.287833
v -4.823694 -0.100000 -6.400000
v -4.823694 -0.100000 -8.000000
v -8.023694 -0.100000 -2.666667
v -7.576560 -0.100000 -8.000000
v -7.576560 -0.100000 -7.255409
v -6.423694 -0.100000 -3.078839
v -3.223694 -0.100000 -1.600000
v -4.823694 -0.100000 -1.600000
v -4.823694 -0.100000 -3.200000
v -4.823694 -0.100000 -4.800000
v -1.623693 -0.100000 -3.200000
v -1.623693 -0.100000 -4.800000
v -3.223694 -0.100000 -4.800000
v -4.823694 -0.100000 -6.400000
v -4.823694 -0.100000 -8.000000
v -1.623693 -0.100000 -6.400000
v -1.623693 -0.100000 -8.000000
v -3.223694 -0.100000 -8.000000
v -1.623693 -0.100000 -1.600000
v -3.223694 -0.100000 -6.400000
v -3.223694 -0.100000 -3.200000
v 4.776306 -0.100000 1.600000
v 7.976307 -0.100000 1.600000
v -4.823694 -0.100000 -1.600000
v -1.623693 -0.100000 -1.600000
v -3.223694 -0.100000 -1.600000
v 1.576305 -0.100000 -1.600000
v 4.776306 -0.100000 -1.600000
v 7.976307 -0.100000 -1.600000
v 1.548842 2.977085 -5.589647
v 1.548842 2.977086 -4.620317
v 1.504452 2.977085 -6.121993
v 1.504452 -0.000000 -6.121993
vt 0.000000 0.000000
vt 0.000000 0.000000
vt 0.000000 0.000000
vt 0.000000 0.000000
vt 0.875000 0.500000
vt 0.000000 0.000000
vt 0.625000 0.000000
vt 0.000000 0.000000
vt 0.000000 0.000000
vt 0.000000 0.000000
vt 0.625000 1.000000
vt 0.000000 0.000000
vt 0.000000 0.000000
vt 0.000000 0.000000
vt 0.000000 0.000000
vt 0.000000 0.000000
vt 0.000000 0.000000
vt 0.000000 0.000000
vt 0.000000 0.000000
vt 0.000000 0.000000
vt 0.625000 0.750000
vt 0.000000 0.000000
vt 0.312500 0.250000
vt 0.437500 0.250000
vt 0.000000 0.000000
vt 0.000000 0.000000
vt 0.000000 0.000000
vt 0.375000 1.000000
vt 0.500000 0.250000
vt 0.312500 0.375000
vt 0.312500 0.375000
vt 0.000000 0.000000
vt 0.000000 0.000000
vt 0.000000 0.000000
vt 0.375000 0.625000
vt 0.625000 0.750000
vt 0.000000 0.000000
vt 0.625000 0.500000
vt 0.625000 0.750000
vt 0.000000 0.000000
vt 0.375000 0.625000
vt 0.625000 0.625000
vt 0.375000 0.750000
vt 0.000000 0.000000
vt 0.375000 0.000000
vt 0.000000 0.000000
vt 0.000000 0.000000
vt 0.200000 0.900000
vt 0.100000 0.900000
vt 0.100000 0.800000
vt 0.200000 0.800000
vt 0.100000 0.700000
vt 0.000000 0.800000
vt 0.000000 0.700000
vt 0.300000 0.600000
vt 0.200000 0.400000
vt 0.400000 0.400000
vt 0.400000 0.600000
vt 0.600000 0.600000
vt 0.600000 0.400000
vt 0.800000 0.400000
vt 0.800000 0.600000
vt 0.200000 0.600000
vt 0.200000 1.000000
vt 0.100000 1.000000
vt 0.200000 0.700000
vt 0.300000 0.800000
vt 0.300000 0.700000
vt 0.400000 0.700000
vt 0.400000 0.800000
vt 0.300000 1.000000
vt 0.300000 0.900000
vt 0.400000 0.900000
vt 0.400000 1.000000
vt 0.200000 1.000000
vt 0.200000 0.900000
vt 0.200000 0.800000
vt 0.200000 0.700000
vt 0.200000 0.600000
vt 0.300000 0.600000
vt 0.400000 0.600000
vt 1.000000 0.400000
vt 1.000000 0.600000
vt 0.200000 0.400000
vt 0.200000 0.600000
vt 0.100000 0.600000
vt 0.600000 0.600000
vt 0.800000 0.600000
vt 0.400000 0.600000
vt 0.400000 0.800000
vt 0.400000 0.700000
vt 0.200000 0.400000
vt 0.000000 0.000000
vt 0.000000 0.000000
vt 0.000000 0.000000
vt 0.000000 0.000000
vt 0.200000 0.200000
vt 0.200000 0.000000
vt 0.400000 0.000000
vt 0.400000 0.200000
vt 0.600000 0.000000
vt 0.600000 0.200000
vt 0.800000 0.000000
vt 0.800000 0.200000
vt 1.000000 0.000000
vt 1.000000 0.200000
vt 0.400000 0.400000
vt 0.600000 0.400000
vt 0.800000 0.400000
vt 1.000000 0.400000
vt 0.000000 0.600000
vt 0.000000 0.400000
vt 0.100000 0.900000
vt 0.100000 0.800000
vt 0.100000 0.700000
vt 0.200000 0.700000
vt 0.000000 1.000000
vt 0.000000 0.900000
vt 0.100000 1.000000
vt 0.200000 0.400000
vt 0.000000 0.000000
vt 0.000000 0.200000
vt 0.000000 0.700000
vt 0.000000 0.800000
vt 0.000000 0.000000
vt 0.000000 0.000000
vn -1.0000 0.0000 0.0000
vn 0.0000 1.0000 0.0000
vn 0.0000 -1.0000 0.0000
vn -0.3063 -0.0000 0.9519
vn -0.3297 -0.0000 0.9441
vn 0.5615 0.0050 -0.8275
vn 1.0000 0.0000 0.0000
vn -0.6772 0.0044 -0.7358
vn 0.8989 0.0000 0.4382
vn 0.0000 -0.0000 1.0000
vn 0.7142 0.0000 -0.7000
vn 0.1901 0.0000 0.9818
vn 0.8906 0.0000 -0.4548
vn 0.0000 0.0000 -1.0000
vn -0.0755 0.0000 -0.9971
vn 0.6096 0.0000 0.7927
vn -0.2495 0.0000 -0.9684
vn 0.4799 0.0000 -0.8773
usemtl MARSNULL
s off
f 104/1/1 18/2/1 24/3/1 110/4/1
usemtl MARSINDX_233
f 33/5/2 32/6/2 34/7/2
f 42/8/3 32/6/3 41/9/3
f 51/10/2 52/11/2 53/12/2
f 54/13/3 55/14/3 56/15/3
f 40/16/3 31/17/3 35/18/3
f 63/19/2 65/20/2 60/21/2 59/22/2
f 114/23/4 113/24/4 36/25/4 37/26/4
f 50/27/5 54/28/5 52/11/5 58/29/5
f 112/30/3 111/31/3 42/8/3 44/32/3
f 47/33/1 46/34/1 41/9/1 35/18/1
f 34/7/6 32/35/6 31/17/6 40/16/6
f 42/8/3 33/5/3 32/6/3
f 54/13/1 56/15/1 53/12/1 52/11/1
f 36/25/7 43/36/7 39/37/7 37/26/7
f 38/38/8 33/5/8 34/7/8 40/16/8
f 45/39/7 48/40/7 39/37/7 43/36/7
f 62/41/1 59/42/1 60/21/1 61/43/1
f 51/10/9 55/14/9 57/44/9 64/45/9
f 58/29/10 63/19/10 49/46/10 50/27/10
f 55/14/10 51/10/10 53/12/10 56/15/10
f 49/46/10 63/19/10 59/22/10 62/41/10
f 44/32/3 42/8/3 41/9/3 46/34/3
f 63/19/2 58/29/2 65/20/2
f 65/20/2 58/29/2 52/11/2
f 65/20/2 52/11/2 51/10/2 64/47/2
f 111/31/3 113/24/3 33/5/3 42/8/3
f 35/18/11 31/17/11 32/6/11 41/9/11
f 43/36/3 36/25/3 113/24/3 111/31/3
f 45/39/3 43/36/3 111/31/3 112/30/3
f 38/38/12 33/5/12 113/24/12 114/23/12
usemtl MARSINDX_14
f 82/48/2 86/49/2 80/50/2 79/51/2
f 87/52/2 81/53/2 84/54/2
f 107/55/2 29/56/2 73/57/2 106/58/2
f 108/59/2 26/60/2 103/61/2 109/62/2
f 106/58/2 73/57/2 26/60/2 108/59/2
f 80/50/2 81/53/2 87/52/2 79/51/2
f 105/63/2 29/56/2 107/55/2
f 83/64/2 85/65/2 86/49/2 82/48/2
f 87/52/2 78/66/2 79/51/2
f 94/67/2 102/68/2 92/69/2 93/70/2
f 99/71/2 101/72/2 97/73/2 98/74/2
f 96/75/2 95/76/2 101/72/2 99/71/2
f 95/76/2 91/77/2 94/67/2 101/72/2
f 101/72/2 94/67/2 93/70/2 97/73/2
f 91/77/2 90/78/2 102/68/2 94/67/2
f 90/78/2 89/79/2 88/80/2 102/68/2
f 102/68/2 88/80/2 100/81/2 92/69/2
f 109/62/2 103/61/2 104/82/2 110/83/2
usemtl MARSINDX_163
f 14/84/2 20/85/2 67/86/2
f 50/27/2 22/87/2 23/88/2
f 22/87/2 62/41/2 21/89/2
f 61/43/2 27/90/2 71/91/2
f 75/92/2 39/37/2 37/26/2
f 38/38/3 30/93/3 40/16/3
f 54/28/2 50/27/2 23/88/2
f 23/88/2 56/15/2 54/13/2
f 55/14/2 23/94/2 24/3/2
f 57/44/2 55/14/2 24/3/2
f 66/95/3 31/17/3 40/16/3
f 66/95/3 35/18/3 31/17/3
f 75/92/2 27/90/2 61/96/2 39/37/2
f 8/97/2 2/98/2 3/99/2 9/100/2
f 9/100/2 3/99/2 4/101/2 10/102/2
f 10/102/2 4/101/2 5/103/2 11/104/2
f 11/104/2 5/103/2 6/105/2 12/106/2
f 15/107/2 9/100/2 10/102/2 16/108/2
f 16/108/2 10/102/2 11/104/2 17/109/2
f 17/109/2 11/104/2 12/106/2 18/110/2
f 105/63/13 20/85/13 14/84/13 29/56/13
f 19/111/2 13/112/2 67/86/2
f 13/112/2 14/84/2 67/86/2
f 26/60/14 16/108/14 17/109/14 103/61/14
f 86/49/7 76/113/7 70/114/7 80/50/7
f 50/27/2 49/46/2 22/87/2
f 22/87/2 49/46/2 62/41/2
f 71/91/2 21/89/2 62/41/2
f 62/41/2 61/43/2 71/91/2
f 37/26/2 30/93/2 75/92/2
f 38/38/3 114/23/3 37/26/3 30/93/3
f 77/115/2 67/86/2 20/85/2 69/116/2
f 28/117/2 72/118/2 76/113/2 74/119/2
f 97/120/1 75/92/1 30/93/1 98/121/1
f 55/14/2 56/15/2 23/94/2
f 13/112/2 7/122/2 8/97/2 14/84/2
f 87/52/15 77/115/15 69/116/15 78/66/15
f 68/123/2 19/111/2 67/86/2 77/115/2
f 90/78/7 69/116/7 20/85/7 89/79/7
f 92/69/1 71/91/1 27/90/1 93/70/1
f 80/50/16 70/114/16 25/124/16 81/53/16
f 15/107/2 14/84/2 8/97/2 9/100/2
f 72/118/2 25/124/2 70/114/2 76/113/2
f 84/54/17 68/123/17 77/115/17 87/52/17
f 85/65/7 74/119/7 76/113/7 86/49/7
f 100/81/1 21/89/1 71/91/1 92/69/1
f 93/70/1 27/90/1 75/92/1 97/120/1
f 109/62/10 23/88/10 22/87/10 108/59/10
f 73/57/14 15/107/14 16/108/14 26/60/14
f 103/61/14 17/109/14 18/110/14 104/82/14
f 108/59/10 22/87/10 21/89/10 106/58/10
f 110/4/10 24/3/10 23/94/10 109/125/10
f 29/56/18 14/84/18 15/107/18 73/57/18
f 7/122/2 1/126/2 2/98/2 8/97/2
