# Blender v3.3.1 OBJ File: 'marscity.blend'
# www.blender.org
mtllib 05_carls_n.mtl
o 05_carls_n_Grid.003
v -8.023694 0.000000 8.000000
v -4.823694 0.000000 8.000000
v -1.623693 0.000000 8.000000
v 1.576305 0.000000 8.000000
v 4.776306 0.000000 8.000000
v 7.976307 0.000000 8.000000
v -8.023694 0.000000 5.714282
v -4.823694 0.000000 5.714282
v -1.623693 0.000000 5.714282
v 1.576305 0.000000 5.714282
v 4.776306 0.000000 5.714282
v 7.976307 0.000000 5.714282
v -8.023694 0.000000 2.858823
v -3.796361 0.000000 1.670340
v -1.623693 0.000000 2.858823
v 1.576305 0.000000 2.858823
v 4.776306 0.000000 2.858823
v 7.976307 0.000000 2.858823
v -8.023694 0.000000 -0.341177
v -4.823694 0.000000 -0.341177
v -1.623693 0.000000 -0.341177
v 1.576305 0.000000 -0.341177
v 4.776306 0.000000 -0.341177
v 7.976307 0.000000 -0.341177
v -8.023694 0.000000 -6.287833
v 1.576305 -0.100000 2.858823
v -1.623693 0.000000 -4.800000
v -8.023694 0.000000 -8.000000
v -3.796361 -0.100000 1.670340
v -1.623693 0.000000 -8.000000
v 6.567969 -0.000000 -7.026577
v 6.567969 2.060424 -7.026577
v 3.573735 2.340491 -6.522615
v 5.159632 2.060425 -7.964279
v 8.756096 0.000000 -5.589647
v -0.564832 2.340491 -6.787852
v -0.564832 -0.000000 -6.787852
v 3.573735 -0.000000 -6.522615
v -0.564832 0.000000 -5.589647
v 5.159632 -0.000000 -8.000000
v 8.756096 2.060424 -5.589647
v 3.662516 2.340491 -5.589647
v -0.564832 2.340491 -5.589647
v 3.662516 2.340491 -4.620317
v -0.564832 2.340491 -4.620317
v 8.756096 2.060425 -4.620319
v 8.756096 0.000000 -4.620319
v -0.564832 0.000000 -4.620317
v 2.291378 -0.000000 -1.275140
v 3.712609 -0.000000 -1.275140
v 6.535271 2.060425 -0.664883
v 5.133842 2.060425 -0.778762
v 3.662516 3.060424 -5.589647
v 5.133842 -0.000000 -0.778762
v 6.535271 -0.000000 -0.664884
v 5.133842 -0.000000 -1.663976
v 8.756097 0.000000 -3.621227
v 3.712609 2.340491 -1.275140
v -0.564829 2.340491 -1.275140
v -0.564831 2.340491 -4.620317
v -0.564831 0.000000 -4.620317
v -0.564829 -0.000000 -1.275140
v 2.291378 2.340491 -1.275140
v 8.756097 2.060425 -3.621227
v 3.662516 2.340491 -4.620317
v -6.423694 0.000000 -0.341177
v -8.023694 0.000000 -2.666667
v -4.823694 0.000000 -3.200000
v -7.576560 0.000000 -6.631681
v -1.623693 0.000000 -3.200000
v -8.023694 0.000000 -7.143916
v -1.623693 -0.100000 2.858823
v -7.576560 0.000000 -8.000000
v -1.623693 0.000000 -6.400000
v -7.576560 0.000000 -7.255409
v -6.423694 0.000000 -3.078839
v -4.823694 -0.100000 -3.200000
v -4.823694 -0.100000 -4.800000
v -7.576560 -0.100000 -6.631681
v -8.023694 -0.100000 -6.287833
v -4.823694 -0.100000 -6.400000
v -4.823694 -0.100000 -8.000000
v -8.023694 -0.100000 -2.666667
v -7.576560 -0.100000 -8.000000
v -7.576560 -0.100000 -7.255409
v -6.423694 -0.100000 -3.078839
v -3.223694 -0.100000 -1.600000
v -4.823694 -0.100000 -1.600000
v -4.823694 -0.100000 -3.200000
v -4.823694 -0.100000 -4.800000
v -1.623693 -0.100000 -3.200000
v -1.623693 -0.100000 -4.800000
v -3.223694 -0.100000 -4.800000
v -4.823694 -0.100000 -6.400000
v -4.823694 -0.100000 -8.000000
v -1.623693 -0.100000 -6.400000
v -1.623693 -0.100000 -8.000000
v -3.223694 -0.100000 -8.000000
v -1.623693 -0.100000 -1.600000
v -3.223694 -0.100000 -6.400000
v -3.223694 -0.100000 -3.200000
v 4.776306 -0.100000 2.858823
v 7.976307 -0.100000 2.858823
v -4.823694 -0.100000 -0.341177
v -1.623693 -0.100000 -0.341177
v -3.223694 -0.100000 -0.341177
v 1.576305 -0.100000 -0.341177
v 4.776306 -0.100000 -0.341177
v 7.976307 -0.100000 -0.341177
v 1.548842 2.340491 -5.589647
v 1.548842 2.340491 -4.620317
v 1.504452 2.340491 -6.121993
v 1.050267 -0.000000 -7.136004
v 3.662516 3.060425 -4.620317
v 8.756096 3.578218 -4.620319
v 3.573735 3.060424 -6.522615
v 5.159632 3.060425 -7.964279
v 6.733471 3.060424 -6.914286
v 8.756096 3.578218 -5.589647
v 6.535271 3.060425 -0.664883
v 5.133842 3.060425 -0.778762
v 3.712609 3.060425 -1.275140
v 8.756097 3.578218 -3.621227
v 3.662516 3.060425 -4.620317
v 7.976307 0.000000 -2.583177
v 7.976307 0.000000 -8.000000
v 7.976307 0.000000 -6.112262
v 4.366684 -0.000000 -7.261308
v 4.366684 2.200458 -7.243447
v 5.159632 1.030212 -7.982140
v 3.573735 1.170245 -6.522615
v 5.863801 -0.000000 -7.513288
v 5.863801 2.060424 -7.495428
v 4.366684 3.060424 -7.243447
v 5.863801 3.060424 -7.495428
v 3.573735 2.700458 -6.522615
v 5.159632 2.560425 -7.964279
v 6.567969 2.560424 -7.026577
v 5.863801 2.560424 -7.495428
v 4.366684 1.100229 -7.252378
v 5.863801 1.030212 -7.504358
v 4.366684 2.630441 -7.243447
v 3.573735 1.170245 -6.522615
v 3.573735 -0.000000 -6.522615
v 4.366684 -0.000000 -7.261308
v 3.573735 2.340491 -6.522615
v 4.366684 2.200458 -7.243447
v 4.366684 1.100229 -7.252378
v 3.709142 1.169666 -6.375426
v 3.709142 -0.000579 -6.375426
v 4.502091 -0.000579 -7.114119
v 3.709142 2.339912 -6.375426
v 4.502091 2.199879 -7.096258
v 4.502091 1.099650 -7.105188
v 6.455679 2.059707 -6.861076
v 5.751511 -0.000717 -7.347788
v 5.751511 2.059707 -7.329927
v 5.751511 1.029495 -7.338858
v 6.733471 1.030212 -6.914286
v 6.733471 2.060424 -6.914286
v 6.733471 -0.000000 -6.914286
v 6.621181 1.029495 -6.748785
v 6.621181 2.059707 -6.748785
v 6.621181 -0.000718 -6.748785
v -0.564832 1.872393 -5.589647
v -0.564832 1.872392 -6.787852
v -0.564832 1.872393 -4.620317
v 1.633049 -0.000000 -7.136004
v 3.573735 1.872392 -6.522615
v 0.597689 2.340491 -5.589647
v 0.597689 2.340491 -4.620317
v 0.573274 2.340491 -6.421629
v 0.573275 -0.000000 -6.421629
v 0.573275 1.872392 -6.421629
v 2.228701 2.340491 -6.262210
v 2.228701 -0.000000 -6.262210
v 2.228701 1.872392 -6.262210
v 1.050267 0.794366 -7.136004
v 1.633049 0.794366 -7.136004
v 0.678061 -0.000000 -7.136004
v 0.678061 2.572646 -7.136004
v 2.002035 2.572646 -7.136004
v 2.002035 -0.000000 -7.136004
vt 0.488727 0.890637
vt 0.353697 0.890637
vt 0.353697 0.727147
vt 0.488727 0.727147
vt 0.750000 0.250000
vt 0.312500 0.000000
vt 0.625000 0.000000
vt 0.000000 0.000000
vt 0.000000 0.000000
vt 0.000000 0.000000
vt 0.500000 0.312500
vt 0.375000 0.625000
vt 0.375000 0.625000
vt 0.500000 0.312500
vt 0.000000 0.000000
vt 0.000000 0.000000
vt 0.000000 0.000000
vt 0.000000 0.000000
vt 0.000000 0.000000
vt 0.000000 0.000000
vt 0.200000 0.700000
vt 0.200000 0.600000
vt 0.200000 0.700000
vt 0.400000 0.600000
vt 0.400000 0.700000
vt 0.400000 0.700000
vt 0.875000 0.500000
vt 0.500000 0.250000
vt 0.625000 1.000000
vt 0.875000 0.500000
vt 0.200000 0.600000
vt 0.200000 0.600000
vt 0.400000 0.600000
vt 0.400000 0.600000
vt 0.875000 0.500000
vt 0.750000 0.250000
vt 0.875000 0.500000
vt 0.000000 0.000000
vt 0.750000 0.250000
vt 0.375000 0.625000
vt 0.375000 0.625000
vt 0.000000 0.000000
vt 0.375000 0.625000
vt 0.375000 0.625000
vt 0.750000 0.250000
vt 0.000000 0.000000
vt 0.200000 0.400000
vt 0.200000 0.400000
vt 0.800000 0.400000
vt 0.800000 0.400000
vt 0.600000 0.400000
vt 0.600000 0.400000
vt 0.100000 0.800000
vt 0.100000 0.800000
vt 0.100000 0.900000
vt 0.100000 0.900000
vt 0.000000 0.000000
vt 0.000000 0.000000
vt 0.000000 0.000000
vt 0.000000 0.000000
vt 0.200000 0.400000
vt 0.200000 0.400000
vt 0.200000 0.700000
vt 0.100000 0.700000
vt 0.100000 0.700000
vt 0.400000 0.800000
vt 0.400000 0.800000
vt 0.000000 0.800000
vt 0.000000 0.800000
vt 0.000000 0.700000
vt 0.000000 0.700000
vt 0.100000 1.000000
vt 0.100000 1.000000
vt 0.600000 0.600000
vt 0.600000 0.600000
vt 0.800000 0.600000
vt 0.800000 0.600000
vt 0.400000 0.400000
vt 0.400000 0.400000
vt 1.000000 0.400000
vt 1.000000 0.400000
vt 0.000000 0.000000
vt 0.000000 0.000000
vt 0.000000 0.000000
vt 0.000000 0.000000
vt 0.500000 0.312500
vt 0.000000 0.000000
vt 0.500000 0.250000
vt 0.750000 0.250000
vt 0.875000 0.500000
vt 0.625000 0.500000
vt 0.750000 0.500000
vt 0.531250 0.250000
vt 0.312500 0.250000
vt 0.250000 0.156250
vt 0.500000 0.312500
vt 0.000000 0.000000
vt 0.000000 0.000000
vt 0.000000 0.000000
vt 0.750000 0.500000
vt 0.000000 0.000000
vt 0.000000 0.000000
vt 0.000000 0.000000
vt 0.625000 0.500000
vt 0.000000 0.000000
vt 0.300000 0.600000
vt 0.200000 0.800000
vt 0.200000 1.000000
vt 0.200000 0.900000
vt 0.300000 0.800000
vt 0.300000 0.700000
vt 0.400000 0.900000
vt 0.400000 1.000000
vt 0.300000 1.000000
vt 0.300000 0.900000
vt 0.200000 1.000000
vt 0.200000 0.900000
vt 0.200000 0.800000
vt 0.300000 0.600000
vt 1.000000 0.600000
vt 0.100000 0.600000
vt 0.000000 0.000000
vt 0.375000 0.625000
vt 0.375000 0.750000
vt 0.000000 0.000000
vt 0.000000 0.000000
vt 0.000000 0.000000
vt 0.000000 0.000000
vt 0.000000 0.000000
vt 0.000000 0.000000
vt 0.000000 0.000000
vt 0.000000 0.000000
vt 0.375000 1.000000
vt 0.000000 0.600000
vt 0.000000 0.400000
vt 0.000000 0.000000
vt 0.000000 0.000000
vt 0.000000 0.000000
vt 0.000000 0.000000
vt 0.750000 0.500000
vt 0.625000 0.500000
vt 0.312500 0.250000
vt 0.312500 0.250000
vt 0.000000 0.000000
vt 0.000000 0.000000
vt 0.203125 0.162500
vt 0.000000 0.000000
vt 0.000000 0.000000
vt 0.600000 0.000000
vt 0.600000 0.200000
vt 0.400000 0.200000
vt 0.400000 0.000000
vt 0.000000 0.900000
vt 0.800000 0.000000
vt 0.800000 0.200000
vt 1.000000 0.000000
vt 1.000000 0.200000
vt 0.200000 0.000000
vt 0.200000 0.200000
vt 0.000000 0.200000
vt 0.000000 0.000000
vt 0.000000 1.000000
vt 0.531250 0.250000
vt 0.531250 0.250000
vt 0.000000 0.000000
vt 0.625000 1.000000
vt 0.000000 0.000000
vt 0.000000 0.000000
vt 0.000000 0.000000
vt 0.312500 0.000000
vt 0.625000 0.000000
vt 0.625000 0.000000
vt 0.000000 0.000000
vt 0.375000 0.000000
vt 0.375000 0.000000
vt 0.250000 0.156250
vt 0.000000 0.000000
vt 0.284375 0.162500
vt 0.000000 0.000000
vt 0.268125 0.162500
vt 0.240625 0.137500
vt 0.000000 0.000000
vt 0.226875 0.137500
vt 0.437500 0.250000
vt 0.312500 0.375000
vt 0.312500 0.375000
vt 0.625000 0.625000
vt 0.625000 0.750000
vt 0.000000 0.000000
vt 0.500000 0.600000
vt 0.000000 0.000000
vt 0.625000 0.750000
vt 0.000000 0.000000
vt 0.453125 0.543750
vt 0.171875 0.137500
vt 0.453125 0.543750
vt 0.625000 0.750000
vt 0.500000 0.600000
vt 0.000000 0.000000
vt 0.000000 0.000000
vt 0.000000 0.000000
vt 0.000000 0.000000
vt 0.000000 0.000000
vt 0.000000 0.000000
vt 0.000000 0.000000
vn 0.0000 0.0000 -1.0000
vn 0.0000 1.0000 0.0000
vn 0.5550 0.0016 -0.8319
vn -0.1011 0.9949 0.0000
vn 0.0985 -0.9686 0.2283
vn 1.0000 0.0000 0.0000
vn -1.0000 0.0000 0.0000
vn 0.0000 -1.0000 0.0000
vn 0.9955 0.0000 -0.0947
vn 0.0000 0.0000 1.0000
vn 0.5615 0.0000 -0.8275
vn -0.6727 0.0000 -0.7400
vn 0.8906 0.0000 -0.4548
vn 0.1011 -0.9949 0.0000
vn -0.0755 0.0000 -0.9971
vn 0.6096 0.0000 0.7927
vn 0.0020 -1.0000 -0.0030
vn -0.2495 0.0000 -0.9684
vn 0.4799 0.0000 -0.8773
vn 0.5542 0.0000 -0.8324
vn -0.9999 0.0000 0.0150
vn -0.0973 -0.9916 0.0856
vn -0.6793 0.0029 -0.7338
vn 0.5582 0.0032 -0.8297
vn -0.8275 0.0000 -0.5615
vn 0.7359 0.0000 -0.6770
vn -0.0020 1.0000 0.0030
vn 0.5644 0.0036 -0.8255
vn -0.6747 0.0029 -0.7381
vn 0.7360 0.0000 -0.6770
vn -0.0905 0.9937 0.0657
vn 0.0020 1.0000 0.0021
vn -0.0810 -0.0000 0.9967
vn -0.6792 0.0092 -0.7339
vn -0.6742 0.0093 -0.7385
vn -0.3297 0.0000 0.9441
vn -0.7359 -0.0055 0.6770
vn -0.5479 0.0000 0.8366
vn 0.7995 0.0000 0.6006
vn 0.8275 -0.0049 0.5614
vn 0.5578 0.0108 -0.8299
vn 0.5650 0.0107 -0.8250
vn -0.9680 0.0000 0.2511
vn -0.9894 -0.0000 -0.1451
vn 0.0474 0.9684 0.2450
vn 0.0000 0.9510 0.3091
vn -0.0623 0.9791 0.1936
vn -0.3063 -0.0000 0.9519
vn 0.1901 0.0000 0.9818
usemtl marscity
s off
f 178/1/1 179/2/1 168/3/1 113/4/1
usemtl MARSINDX_246
f 134/5/2 135/6/2 117/7/2
f 132/8/2 35/9/2 40/10/2
f 135/11/3 118/12/3 138/13/3 139/14/3
f 115/15/4 124/16/4 123/17/4
f 53/18/5 118/19/5 119/20/5
f 68/21/6 88/22/6 89/23/6
f 99/24/7 70/25/7 91/26/7
f 53/18/8 116/27/8 118/19/8
f 124/16/2 122/28/2 121/29/2
f 136/30/9 116/27/9 53/18/9
f 20/31/6 104/32/6 88/22/6
f 21/33/7 99/24/7 105/34/7
f 118/19/2 134/5/2 116/27/2
f 33/35/10 147/36/10 146/37/10
f 132/8/2 31/38/2 35/9/2
f 68/21/6 20/31/6 88/22/6
f 99/24/7 21/33/7 70/25/7
f 118/19/2 135/6/2 134/5/2
f 33/35/10 129/39/10 147/36/10
f 155/40/11 163/41/11 162/42/11
f 138/13/11 160/43/11 32/44/11
f 136/30/12 116/27/12 134/5/12 142/45/12
f 136/30/9 53/18/9 42/46/9 33/35/9
f 14/47/13 29/48/13 104/32/13 20/31/13
f 17/49/1 102/50/1 26/51/1 16/52/1
f 69/53/6 79/54/6 85/55/6 75/56/6
f 53/18/14 119/20/14 115/15/14 114/57/14
f 44/58/6 42/46/6 53/18/6 114/57/6
f 30/59/7 97/60/7 96/61/7 74/62/7
f 68/21/15 77/63/15 86/64/15 76/65/15
f 27/66/7 92/67/7 91/26/7 70/25/7
f 25/68/16 80/69/16 79/54/16 69/53/16
f 160/43/17 163/41/17 155/40/17 32/44/17
f 76/65/18 86/64/18 83/70/18 67/71/18
f 75/56/6 85/55/6 84/72/6 73/73/6
f 33/35/12 136/30/12 142/45/12 129/39/12
f 74/62/7 96/61/7 92/67/7 27/66/7
f 22/74/10 107/75/10 108/76/10 23/77/10
f 16/52/1 26/51/1 72/78/1 15/79/1
f 18/80/1 103/81/1 102/50/1 17/49/1
f 21/33/10 105/34/10 107/75/10 22/74/10
f 23/82/10 108/83/10 109/84/10 24/85/10
f 15/79/19 72/78/19 29/48/19 14/47/19
f 139/14/20 138/13/20 32/44/20 133/86/20
f 122/28/21 124/16/21 65/87/21 58/88/21
f 147/36/22 153/89/22 152/90/22 146/37/22
f 150/91/23 149/92/23 154/93/23 151/94/23
f 155/40/24 162/42/24 158/95/24 157/96/24
f 161/97/25 164/98/25 162/42/25 159/99/25
f 143/100/26 146/37/26 152/90/26 149/92/26
f 156/101/27 164/98/27 161/97/27 132/8/27
f 158/95/28 162/42/28 164/98/28 156/101/28
f 159/99/25 162/42/25 163/102/25 160/103/25
f 149/92/29 152/90/29 153/89/29 154/93/29
f 144/104/30 143/100/30 149/92/30 150/91/30
f 133/86/17 32/44/17 155/40/17 157/96/17
f 124/16/31 121/29/31 120/105/31 123/17/31
f 138/13/11 118/12/11 160/43/11
usemtl MARSINDX_21
f 86/64/2 80/69/2 83/70/2
f 104/32/2 29/48/2 106/106/2
f 86/64/2 77/63/2 78/107/2
f 29/48/2 72/78/2 105/34/2 106/106/2
f 102/50/2 108/76/2 107/75/2 26/51/2
f 26/51/2 107/75/2 105/34/2 72/78/2
f 82/108/2 84/72/2 85/55/2 81/109/2
f 81/109/2 85/55/2 79/54/2 78/107/2
f 91/26/2 92/67/2 93/110/2 101/111/2
f 96/112/2 97/113/2 98/114/2 100/115/2
f 100/115/2 98/114/2 95/116/2 94/117/2
f 93/110/2 100/115/2 94/117/2 90/118/2
f 92/67/2 96/112/2 100/115/2 93/110/2
f 101/111/2 93/110/2 90/118/2 89/23/2
f 87/119/2 101/111/2 89/23/2 88/22/2
f 99/24/2 91/26/2 101/111/2 87/119/2
f 103/81/2 109/120/2 108/76/2 102/50/2
f 80/69/2 86/64/2 78/107/2 79/54/2
f 106/106/2 105/34/2 99/24/2 87/119/2
f 104/32/2 106/106/2 87/119/2 88/22/2
usemtl MARSINDX_156
f 14/47/2 20/31/2 66/121/2
f 50/122/2 22/74/2 23/77/2
f 22/74/2 62/123/2 21/33/2
f 61/124/2 27/66/2 70/25/2
f 74/62/2 39/125/2 37/126/2
f 145/127/8 183/128/8 180/129/8
f 54/130/2 55/131/2 56/132/2
f 54/133/2 50/122/2 23/77/2
f 23/77/8 56/132/8 54/130/8
f 55/131/2 23/82/2 24/85/2
f 19/134/2 13/135/2 66/121/2
f 13/135/2 14/47/2 66/121/2
f 50/122/2 49/136/2 22/74/2
f 22/74/2 49/136/2 62/123/2
f 70/25/2 21/33/2 62/123/2
f 62/123/2 61/124/2 70/25/2
f 37/126/2 30/59/2 74/62/2
f 55/131/2 56/132/2 23/82/2
f 126/137/2 31/38/2 127/138/2
f 126/137/2 132/8/2 31/38/2
f 55/131/2 24/85/2 125/139/2
f 131/140/10 146/37/10 143/100/10
f 38/141/10 143/100/10 144/104/10
f 128/142/10 144/104/10 145/143/10
f 30/59/8 40/10/8 128/142/8
f 27/66/2 61/144/2 39/125/2 74/62/2
f 126/137/2 40/10/2 132/8/2
f 131/140/10 33/35/10 146/37/10
f 38/141/10 131/140/10 143/100/10
f 128/142/10 38/141/10 144/104/10
f 144/145/8 176/146/8 183/128/8
f 180/129/8 37/126/8 30/59/8
f 173/147/8 180/129/8 183/128/8 176/148/8
f 4/149/2 10/150/2 9/151/2 3/152/2
f 71/153/2 25/68/2 69/53/2 75/56/2
f 5/154/2 11/155/2 10/150/2 4/149/2
f 6/156/2 12/157/2 11/155/2 5/154/2
f 10/150/2 16/52/2 15/79/2 9/151/2
f 11/155/2 17/49/2 16/52/2 10/150/2
f 12/157/2 18/80/2 17/49/2 11/155/2
f 67/71/2 19/134/2 66/121/2 76/65/2
f 2/158/2 8/159/2 7/160/2 1/161/2
f 13/135/2 7/160/2 8/159/2 14/47/2
f 76/65/2 66/121/2 20/31/2 68/21/2
f 28/162/2 71/153/2 75/56/2 73/73/2
f 144/104/32 150/91/32 151/94/32 145/143/32
f 15/79/2 14/47/2 8/159/2 9/151/2
f 180/129/8 173/147/8 37/126/8
f 3/152/2 9/151/2 8/159/2 2/158/2
f 180/129/8 30/59/8 145/127/8
f 145/127/8 144/145/8 183/128/8
usemtl MARSINDX_70
f 129/39/10 148/163/10 147/36/10
f 140/164/10 145/143/10 148/163/10
f 129/39/10 140/164/10 148/163/10
f 140/164/10 128/142/10 145/143/10
f 54/130/33 55/131/33 51/165/33 52/166/33
f 41/167/7 35/9/7 47/168/7 46/169/7
f 128/142/34 140/164/34 130/170/34 40/10/34
f 34/171/20 137/172/20 139/14/20 133/86/20
f 47/168/7 57/173/7 64/174/7 46/169/7
f 129/39/12 142/45/12 137/172/12 34/171/12
f 123/175/7 115/15/7 46/169/7 64/174/7
f 140/164/35 129/39/35 34/171/35 130/170/35
f 120/105/33 121/29/33 52/166/33 51/165/33
f 58/88/36 52/166/36 121/29/36 122/28/36
f 148/163/37 145/143/37 151/94/37 154/93/37
f 35/9/38 41/167/38 160/103/38 161/97/38
f 50/122/36 54/133/36 52/166/36 58/88/36
f 142/45/12 134/5/12 117/7/12 137/172/12
f 118/19/38 160/103/38 41/167/38 119/20/38
f 64/174/39 123/175/39 120/105/39 51/165/39
f 147/36/37 148/163/37 154/93/37 153/89/37
f 133/86/40 157/96/40 158/95/40 141/176/40
f 34/171/41 133/86/41 141/176/41 130/170/41
f 130/170/42 141/176/42 132/8/42 40/10/42
f 141/176/40 158/95/40 156/101/40 132/8/40
f 46/169/7 115/15/7 119/20/7 41/167/7
f 137/172/20 117/7/20 135/11/20 139/14/20
f 57/173/39 64/174/39 51/165/39 55/131/39
usemtl MARSINDX_76
f 63/177/2 58/88/2 65/87/2
f 175/178/43 182/179/43 177/180/43
f 172/181/44 181/182/44 174/183/44
f 112/184/45 175/178/45 182/179/45
f 182/179/46 181/182/46 172/181/46
f 172/181/47 112/184/47 182/179/47
f 42/46/8 44/58/8 111/185/8 110/186/8
f 112/184/8 33/35/8 42/46/8 110/186/8
f 49/136/10 50/122/10 58/88/10 63/177/10
f 62/123/7 59/187/7 60/188/7 61/124/7
f 39/125/6 37/126/6 166/189/6 165/190/6
f 59/191/10 62/123/10 49/136/10 63/177/10
f 183/128/43 176/148/43 177/180/43 182/179/43
f 43/192/8 36/193/8 172/181/8 170/194/8
f 181/182/44 180/129/44 173/195/44 174/183/44
f 170/194/8 171/196/8 45/197/8 43/192/8
f 170/194/8 172/181/8 112/184/8 110/186/8
f 172/181/48 36/193/48 166/189/48 174/183/48
f 63/177/2 65/87/2 60/188/2 59/191/2
f 167/198/6 165/190/6 43/192/6 45/197/6
f 169/199/49 146/200/49 175/178/49 177/180/49
f 144/145/49 169/199/49 177/180/49 176/146/49
f 165/190/6 166/189/6 36/193/6 43/192/6
f 39/125/6 165/190/6 167/198/6 48/201/6
f 166/189/48 37/126/48 173/195/48 174/183/48
f 110/186/8 111/185/8 171/196/8 170/194/8
f 178/202/1 113/203/1 180/129/1 181/182/1
f 179/204/1 178/202/1 181/182/1 182/179/1
f 168/205/1 179/204/1 182/179/1 183/128/1
