# Blender v3.3.1 OBJ File: 'marscity.blend'
# www.blender.org
mtllib 07_carls_hut.mtl
o 07_carls_hut_Grid.007
v -8.000000 -0.100000 8.000000
v -5.333333 -0.100000 8.000000
v -2.666667 -0.100000 8.000000
v 0.000000 -0.100000 8.000000
v 2.666667 -0.100000 8.000000
v 5.333334 -0.100000 8.000000
v 8.000000 -0.100000 8.000000
v -8.000000 -0.100000 5.333333
v -5.333333 -0.100000 5.333333
v -2.666667 -0.100000 5.333333
v 0.000000 -0.100000 5.333333
v 2.666667 -0.100000 5.333333
v 5.333334 -0.100000 5.333333
v 8.000000 -0.100000 5.333333
v -8.000000 -0.100000 2.666667
v -5.333333 -0.100000 2.666667
v -2.666667 -0.100000 2.666667
v 0.000000 -0.100000 2.666667
v 2.666667 -0.100000 2.666667
v 5.333334 -0.100000 2.666667
v 8.000000 -0.100000 2.666667
v -8.000000 -0.100000 0.000000
v -5.333333 -0.100000 0.000000
v -2.666667 -0.100000 0.000000
v 0.000000 -0.100000 0.000000
v 2.666667 -0.100000 0.000000
v 5.333334 -0.100000 0.000000
v 8.000000 -0.100000 0.000000
v -8.000000 -0.100000 -2.666667
v -5.333333 -0.100000 -2.666667
v -2.666667 -0.100000 -2.666667
v 0.000000 -0.100000 -2.666667
v 2.666667 -0.100000 -2.666667
v 5.333334 -0.100000 -2.666667
v 8.000000 -0.100000 -2.666667
v -8.000000 -0.100000 -5.333334
v -5.333332 -0.100000 -3.972524
v -2.666669 -0.100000 -4.435585
v 0.000000 -0.100000 -4.898647
v 2.666668 -0.100000 -5.361709
v 5.333335 -0.100000 -5.824771
v 8.000000 -0.100000 -6.287833
v -8.000000 -0.100000 -8.677185
v -5.333333 -0.100000 -8.677185
v -2.666669 0.000000 -4.435585
v -5.333332 0.000000 -3.972524
v 0.000000 0.000000 -4.898647
v 2.666668 0.000000 -5.361709
v 5.333335 0.000000 -5.824771
v 8.000000 0.000000 -6.287833
v -5.333333 0.000000 -8.677185
v -2.666667 0.000000 -8.677185
v 0.000000 0.000000 -8.677185
v 2.666667 0.000000 -8.677185
v 5.333334 0.000000 -8.677185
v 8.000000 0.000000 -8.677185
v -4.531796 0.000000 -4.204055
v -1.333335 0.000000 -4.667116
v 1.333334 0.000000 -5.130178
v 4.000002 0.000000 -5.593240
v 6.666667 0.000000 -6.056302
v -5.333332 0.000000 -6.324854
v -2.666668 0.000000 -6.556385
v -4.531796 0.000000 -8.677185
v 0.000000 0.000000 -6.787916
v -1.333333 0.000000 -8.677185
v 2.666668 0.000000 -7.019447
v 1.333333 0.000000 -8.677185
v 5.333334 0.000000 -7.250978
v 4.000000 0.000000 -8.677185
v 8.000000 0.000000 -7.482509
v 6.666667 0.000000 -8.677185
v 6.666667 0.000000 -7.366744
v 4.000001 0.000000 -7.135212
v 1.333334 0.000000 -6.903682
v -1.333334 0.000000 -6.672151
v -4.531796 0.000000 -6.440620
vt 0.136396 0.965123
vt 0.156628 0.954589
vt 0.167161 0.974821
vt 0.146929 0.985354
vt 0.136396 0.965123
vt 0.156628 0.954589
vt 0.167161 0.974821
vt 0.146929 0.985354
vt 0.136396 0.965123
vt 0.156628 0.954589
vt 0.167161 0.974821
vt 0.146929 0.985354
vt 0.136396 0.965123
vt 0.156628 0.954589
vt 0.167161 0.974821
vt 0.146929 0.985354
vt 0.136396 0.965123
vt 0.156628 0.954589
vt 0.167161 0.974821
vt 0.146929 0.985354
vt 0.116164 0.975656
vt 0.126698 0.995888
vt 0.105630 0.955424
vt 0.125862 0.944891
vt 0.146094 0.934357
vt 0.116164 0.975656
vt 0.126698 0.995888
vt 0.105630 0.955424
vt 0.125862 0.944891
vt 0.146094 0.934357
vt 0.116164 0.975656
vt 0.126698 0.995888
vt 0.105630 0.955424
vt 0.125862 0.944891
vt 0.146094 0.934357
vt 0.116164 0.975656
vt 0.126698 0.995888
vt 0.105630 0.955424
vt 0.125862 0.944891
vt 0.146094 0.934357
vt 0.116164 0.975656
vt 0.126698 0.995888
vt 0.105630 0.955424
vt 0.125862 0.944891
vt 0.146094 0.934357
vt 0.000000 0.000000
vt 0.166667 0.000000
vt 0.166667 0.166667
vt 0.000000 0.166667
vt 0.333333 0.000000
vt 0.333333 0.166667
vt 0.500000 0.000000
vt 0.500000 0.166667
vt 0.666667 0.000000
vt 0.666667 0.166667
vt 0.833333 0.000000
vt 0.833333 0.166667
vt 1.000000 0.000000
vt 1.000000 0.166667
vt 0.166667 0.333333
vt 0.000000 0.333333
vt 0.333333 0.333333
vt 0.500000 0.333333
vt 0.666667 0.333333
vt 0.833333 0.333333
vt 1.000000 0.333333
vt 0.166667 0.500000
vt 0.000000 0.500000
vt 0.333333 0.500000
vt 0.500000 0.500000
vt 0.666667 0.500000
vt 0.833333 0.500000
vt 1.000000 0.500000
vt 0.166667 0.666667
vt 0.000000 0.666667
vt 0.333333 0.666667
vt 0.500000 0.666667
vt 0.666667 0.666667
vt 0.833333 0.666667
vt 1.000000 0.666667
vt 0.166667 0.833333
vt 0.000000 0.833333
vt 0.333333 0.833333
vt 0.500000 0.833333
vt 0.666667 0.833333
vt 0.833333 0.833333
vt 1.000000 0.833333
vt 0.166667 1.000000
vt 0.000000 1.000000
vt 0.833333 0.833333
vt 0.750000 0.833333
vt 0.500000 0.833333
vt 0.416667 0.833333
vt 0.166667 0.833333
vt 0.166667 0.916667
vt 0.333333 0.833333
vt 0.250000 0.833333
vt 0.666667 0.833333
vt 0.583333 0.833333
vt 1.000000 0.833333
vt 0.916667 0.833333
vt 0.166667 1.000000
vn 0.0000 1.0000 0.0000
vn 0.1711 0.0000 0.9853
vn -1.0000 0.0000 0.0000
vn 0.1232 0.0000 0.9924
vn 0.2775 0.0000 0.9607
vn 0.1265 0.6730 0.7288
usemtl marscity
s off
f 77/1/1 63/2/1 52/3/1 64/4/1
f 76/5/1 65/6/1 53/7/1 66/8/1
f 75/9/1 67/10/1 54/11/1 68/12/1
f 74/13/1 69/14/1 55/15/1 70/16/1
f 73/17/1 71/18/1 56/19/1 72/20/1
f 69/21/1 73/17/1 72/20/1 55/22/1
f 49/23/1 61/24/1 73/17/1 69/21/1
f 61/24/1 50/25/1 71/18/1 73/17/1
f 67/26/1 74/13/1 70/16/1 54/27/1
f 48/28/1 60/29/1 74/13/1 67/26/1
f 60/29/1 49/30/1 69/14/1 74/13/1
f 65/31/1 75/9/1 68/12/1 53/32/1
f 47/33/1 59/34/1 75/9/1 65/31/1
f 59/34/1 48/35/1 67/10/1 75/9/1
f 63/36/1 76/5/1 66/8/1 52/37/1
f 45/38/1 58/39/1 76/5/1 63/36/1
f 58/39/1 47/40/1 65/6/1 76/5/1
f 62/41/1 77/1/1 64/4/1 51/42/1
f 46/43/1 57/44/1 77/1/1 62/41/1
f 57/44/1 45/45/1 63/2/1 77/1/1
usemtl MARSINDX_28
f 1/46/1 2/47/1 9/48/1 8/49/1
f 2/47/1 3/50/1 10/51/1 9/48/1
f 3/50/1 4/52/1 11/53/1 10/51/1
f 4/52/1 5/54/1 12/55/1 11/53/1
f 5/54/1 6/56/1 13/57/1 12/55/1
f 6/56/1 7/58/1 14/59/1 13/57/1
f 8/49/1 9/48/1 16/60/1 15/61/1
f 9/48/1 10/51/1 17/62/1 16/60/1
f 10/51/1 11/53/1 18/63/1 17/62/1
f 11/53/1 12/55/1 19/64/1 18/63/1
f 12/55/1 13/57/1 20/65/1 19/64/1
f 13/57/1 14/59/1 21/66/1 20/65/1
f 15/61/1 16/60/1 23/67/1 22/68/1
f 16/60/1 17/62/1 24/69/1 23/67/1
f 17/62/1 18/63/1 25/70/1 24/69/1
f 18/63/1 19/64/1 26/71/1 25/70/1
f 19/64/1 20/65/1 27/72/1 26/71/1
f 20/65/1 21/66/1 28/73/1 27/72/1
f 22/68/1 23/67/1 30/74/1 29/75/1
f 23/67/1 24/69/1 31/76/1 30/74/1
f 24/69/1 25/70/1 32/77/1 31/76/1
f 25/70/1 26/71/1 33/78/1 32/77/1
f 26/71/1 27/72/1 34/79/1 33/78/1
f 27/72/1 28/73/1 35/80/1 34/79/1
f 29/75/1 30/74/1 37/81/1 36/82/1
f 30/74/1 31/76/1 38/83/1 37/81/1
f 31/76/1 32/77/1 39/84/1 38/83/1
f 32/77/1 33/78/1 40/85/1 39/84/1
f 33/78/1 34/79/1 41/86/1 40/85/1
f 34/79/1 35/80/1 42/87/1 41/86/1
f 36/82/1 37/81/1 44/88/1 43/89/1
usemtl MARSINDX_239
f 41/86/2 49/90/2 60/91/2
f 39/84/2 47/92/2 58/93/2
f 37/81/3 46/94/3 62/95/3
f 38/83/4 45/96/4 57/97/4
f 40/85/2 48/98/2 59/99/2
f 42/87/2 50/100/2 61/101/2
f 48/98/2 40/85/2 60/91/2
f 40/85/2 41/86/2 60/91/2
f 45/96/2 38/83/2 58/93/2
f 38/83/2 39/84/2 58/93/2
f 51/102/3 44/88/3 62/95/3
f 44/88/3 37/81/3 62/95/3
f 46/94/5 37/81/5 57/97/5
f 37/81/6 38/83/6 57/97/6
f 47/92/2 39/84/2 59/99/2
f 39/84/2 40/85/2 59/99/2
f 49/90/2 41/86/2 61/101/2
f 41/86/2 42/87/2 61/101/2
