# Blender v3.3.1 OBJ File: 'marscity.blend'
# www.blender.org
mtllib 12_gign.mtl
o 12_gign_Grid.033
v -8.000000 -0.100000 8.000000
v -5.333333 -0.100000 8.000000
v -2.666667 -0.100000 8.000000
v 0.000000 -0.100000 8.000000
v 2.666667 -0.100000 8.000000
v 5.333334 -0.100000 8.000000
v 8.000000 -0.100000 8.000000
v -8.000000 -0.100000 5.333333
v -5.333333 -0.100000 5.333333
v -2.666667 -0.100000 5.333333
v 0.000000 -0.100000 5.333333
v 2.666667 -0.100000 5.333333
v 5.333334 -0.100000 5.333333
v 8.000000 -0.100000 5.333333
v -8.000000 -0.100000 2.666667
v -5.333333 -0.100000 2.666667
v -2.666667 -0.100000 2.666667
v 0.000000 -0.100000 2.666667
v 2.666667 -0.100000 2.666667
v 5.333334 -0.100000 2.666667
v 8.000000 -0.100000 2.666667
v -8.000000 -0.100000 0.000000
v -5.333333 -0.100000 0.000000
v -2.666667 -0.100000 0.000000
v 0.000000 -0.100000 0.000000
v 2.666667 -0.100000 0.000000
v 5.333334 -0.100000 0.000000
v 8.000000 -0.100000 0.000000
v -8.000000 -0.100000 -2.666667
v -5.333333 -0.100000 -2.666667
v -2.666667 -0.100000 -2.666667
v 0.000000 -0.100000 -2.666667
v 2.666667 -0.100000 -2.666667
v 5.333334 -0.100000 -2.666667
v 8.000000 -0.100000 -2.666667
v -8.000000 -0.100000 -5.333334
v -5.333333 -0.100000 -5.333334
v -2.666667 -0.100000 -5.333334
v 0.000000 -0.100000 -5.333334
v 2.666667 -0.100000 -5.333334
v 5.333334 -0.100000 -5.333334
v 8.000000 -0.100000 -5.333334
v -8.000000 -0.100000 -8.000000
v -5.333333 -0.100000 -8.000000
v -2.666667 -0.100000 -8.000000
v 0.000000 -0.100000 -8.000000
v 2.666667 -0.100000 -8.000000
v 5.333334 -0.100000 -8.000000
v 8.000000 -0.100000 -8.000000
vt 0.000000 0.000000
vt 0.166667 0.000000
vt 0.166667 0.166667
vt 0.000000 0.166667
vt 0.333333 0.000000
vt 0.333333 0.166667
vt 0.500000 0.000000
vt 0.500000 0.166667
vt 0.666667 0.000000
vt 0.666667 0.166667
vt 0.833333 0.000000
vt 0.833333 0.166667
vt 1.000000 0.000000
vt 1.000000 0.166667
vt 0.166667 0.333333
vt 0.000000 0.333333
vt 0.333333 0.333333
vt 0.500000 0.333333
vt 0.666667 0.333333
vt 0.833333 0.333333
vt 1.000000 0.333333
vt 0.166667 0.500000
vt 0.000000 0.500000
vt 0.333333 0.500000
vt 0.500000 0.500000
vt 0.666667 0.500000
vt 0.833333 0.500000
vt 1.000000 0.500000
vt 0.166667 0.666667
vt 0.000000 0.666667
vt 0.333333 0.666667
vt 0.500000 0.666667
vt 0.666667 0.666667
vt 0.833333 0.666667
vt 1.000000 0.666667
vt 0.166667 0.833333
vt 0.000000 0.833333
vt 0.333333 0.833333
vt 0.500000 0.833333
vt 0.666667 0.833333
vt 0.833333 0.833333
vt 1.000000 0.833333
vt 0.166667 1.000000
vt 0.000000 1.000000
vt 0.333333 1.000000
vt 0.500000 1.000000
vt 0.666667 1.000000
vt 0.833333 1.000000
vt 1.000000 1.000000
vn 0.0000 1.0000 0.0000
usemtl MARSINDX_21
s off
f 1/1/1 2/2/1 9/3/1 8/4/1
f 2/2/1 3/5/1 10/6/1 9/3/1
f 3/5/1 4/7/1 11/8/1 10/6/1
f 4/7/1 5/9/1 12/10/1 11/8/1
f 5/9/1 6/11/1 13/12/1 12/10/1
f 6/11/1 7/13/1 14/14/1 13/12/1
f 8/4/1 9/3/1 16/15/1 15/16/1
f 9/3/1 10/6/1 17/17/1 16/15/1
f 10/6/1 11/8/1 18/18/1 17/17/1
f 11/8/1 12/10/1 19/19/1 18/18/1
f 12/10/1 13/12/1 20/20/1 19/19/1
f 13/12/1 14/14/1 21/21/1 20/20/1
f 15/16/1 16/15/1 23/22/1 22/23/1
f 16/15/1 17/17/1 24/24/1 23/22/1
f 17/17/1 18/18/1 25/25/1 24/24/1
f 18/18/1 19/19/1 26/26/1 25/25/1
f 19/19/1 20/20/1 27/27/1 26/26/1
f 20/20/1 21/21/1 28/28/1 27/27/1
f 22/23/1 23/22/1 30/29/1 29/30/1
f 23/22/1 24/24/1 31/31/1 30/29/1
f 24/24/1 25/25/1 32/32/1 31/31/1
f 25/25/1 26/26/1 33/33/1 32/32/1
f 26/26/1 27/27/1 34/34/1 33/33/1
f 27/27/1 28/28/1 35/35/1 34/34/1
f 29/30/1 30/29/1 37/36/1 36/37/1
f 30/29/1 31/31/1 38/38/1 37/36/1
f 31/31/1 32/32/1 39/39/1 38/38/1
f 32/32/1 33/33/1 40/40/1 39/39/1
f 33/33/1 34/34/1 41/41/1 40/40/1
f 34/34/1 35/35/1 42/42/1 41/41/1
f 36/37/1 37/36/1 44/43/1 43/44/1
f 37/36/1 38/38/1 45/45/1 44/43/1
f 38/38/1 39/39/1 46/46/1 45/45/1
f 39/39/1 40/40/1 47/47/1 46/46/1
f 40/40/1 41/41/1 48/48/1 47/47/1
f 41/41/1 42/42/1 49/49/1 48/48/1
