# Blender v3.3.1 OBJ File: 'marscity.blend'
# www.blender.org
mtllib 10_gign.mtl
o 10_gign_Grid.008
v 6.402583 -0.100000 3.777029
v 5.829543 -0.100000 0.527163
v 4.735559 -0.100000 -5.677125
v -5.135348 -0.100000 -6.373640
v -2.771810 -0.100000 -6.790396
v -0.408271 -0.100000 -7.207151
v 4.318804 -0.100000 -8.031826
v -1.104788 -0.010000 2.663756
v 2.118081 -0.010000 7.131850
v 1.675507 -0.010000 4.610539
v 5.829543 -0.010000 0.527163
v 6.402583 -0.010000 3.777029
v 1.258751 -0.010000 2.247001
v -3.468326 -0.010000 3.080512
v -3.885081 -0.010000 0.716974
v -1.521543 -0.010000 0.300218
v 0.841995 -0.010000 -0.116537
v 0.393983 -0.010000 -2.657342
v 0.008484 -0.010000 -4.843615
v -2.355054 -0.010000 -4.426859
v -4.718593 -0.010000 -4.010103
v 4.735559 -0.010000 -5.677125
v -5.135348 -0.010000 -6.373640
v -2.771810 -0.010000 -6.790396
v -0.408271 -0.010000 -7.207151
v 4.318805 -0.010000 -8.029289
v 4.766818 -0.010000 -5.499859
v 4.735560 -0.010000 -5.677125
v 0.393983 2.420000 -2.657342
v -1.521543 2.420000 0.300218
v -3.885081 2.420000 0.716974
v 0.841995 2.420000 -0.116537
v -2.355054 2.420000 -4.426859
v -4.718593 2.420000 -4.010103
v 0.008484 2.420000 -4.843615
v -1.969556 2.420000 -2.240586
v -4.333094 2.420000 -1.823830
v -0.688032 -0.010000 5.027294
v -3.051570 -0.010000 5.444051
v -0.211645 -0.010000 7.542645
v -2.624964 -0.010000 7.968178
v -3.468326 5.389998 3.080512
v -3.051570 5.389998 5.444051
v -2.624964 5.389998 7.968178
v 0.773498 -0.100000 -7.415529
v 3.299844 -0.010000 6.912096
v 2.857276 -0.010000 4.402161
v 2.440520 -0.010000 2.038623
v 2.023764 -0.010000 -0.324915
v 1.575752 -0.010000 -2.865720
v 1.190253 -0.010000 -5.051993
v 0.773498 -0.010000 -7.415529
v 2.118081 -0.045286 7.131850
v 1.675507 -0.045286 4.610539
v 2.857276 -0.045286 4.402161
v 1.258751 -0.045286 2.247001
v 2.440520 -0.045286 2.038623
v 0.841995 -0.045286 -0.116537
v 2.023764 -0.045286 -0.324915
v 0.393983 -0.045286 -2.657342
v 1.575752 -0.045286 -2.865720
v 0.008484 -0.045286 -4.843615
v 1.190253 -0.045286 -5.051993
v -0.408271 -0.045286 -7.207151
v 0.773498 -0.045286 -7.415529
v 3.299844 -0.045286 6.912096
v -0.762802 -0.100000 -7.144638
v 0.904220 -0.010000 2.309515
v 0.487465 -0.010000 -0.054024
v -0.346047 -0.010000 -4.781100
v -0.762802 -0.010000 -7.144638
v 0.487465 2.420000 -0.054024
v -0.346047 2.420000 -4.781100
v 0.039452 2.420000 -2.594828
v 1.763549 -0.010000 7.194364
v 1.320976 -0.010000 4.673053
v -3.126341 -0.100000 -6.727882
v -1.459318 -0.010000 2.726269
v -1.876073 -0.010000 0.362732
v -2.709584 -0.010000 -4.364345
v -3.126341 -0.010000 -6.727882
v -1.876073 2.420000 0.362732
v -2.709584 2.420000 -4.364345
v -2.324086 2.420000 -2.178073
v -1.042563 -0.010000 5.089808
v -0.555486 -0.010000 7.603272
v -5.489878 -0.100000 -6.311128
v -3.822856 -0.010000 3.143025
v -4.239613 -0.010000 0.779488
v -5.073126 -0.010000 -3.947589
v -5.489878 -0.010000 -6.311128
v -4.239613 2.420000 0.779488
v -5.073126 2.420000 -3.947589
v -4.687625 2.420000 -1.761317
v -3.822856 5.389998 3.143025
v -3.406101 5.389998 5.506564
v -3.150070 5.389998 7.968183
v -6.397207 -0.100000 -6.151141
v -4.730185 -0.010000 3.303012
v -5.146939 -0.010000 0.939474
v -5.980451 -0.010000 -3.787603
v -6.397207 -0.010000 -6.151141
v -5.146939 2.420000 0.939474
v -4.313429 5.389998 5.666549
v -3.848771 5.389998 7.968184
v -5.594952 2.420000 -1.601331
v -4.730185 5.389998 3.303012
v -4.687336 2.420000 -3.832838
v -4.687336 -0.010000 -3.832838
v -2.678329 -0.010000 -4.187080
v -0.314790 -0.010000 -4.603837
v -2.323798 -0.010000 -4.249594
v -2.323798 2.420000 -4.249594
v -2.678329 2.420000 -4.187080
v -0.314790 2.420000 -4.603837
v -5.041867 -0.010000 -3.770324
v -5.041867 2.420000 -3.770324
v -5.949193 -0.010000 -3.610338
v -5.949193 2.420000 -3.610338
v 0.039741 -0.010000 -4.666348
v 4.766818 -0.100000 -5.499859
v 0.039741 2.420000 -4.666348
v 1.221510 -0.010000 -4.874727
v 0.039741 -0.045286 -4.666348
v 1.221510 -0.045286 -4.874727
v -0.314790 2.420000 -4.603837
v 0.435659 -0.010000 -2.420987
v 3.549308 -0.100000 1.843114
v 0.435659 2.420000 -2.420987
v -1.927880 2.420000 -2.004231
v -4.291418 2.420000 -1.587476
v 1.617428 -0.010000 -2.629365
v 0.435659 -0.045286 -2.420987
v 1.617428 -0.045286 -2.629365
v 0.081128 2.420000 -2.358474
v -2.282410 2.420000 -1.941718
v -4.645950 2.420000 -1.524963
v -5.553277 2.420000 -1.364976
v -3.922589 2.420000 0.504256
v -4.277121 2.420000 0.566769
v -5.184447 2.420000 0.726756
v 0.804488 -0.010000 -0.329256
v 3.095045 -0.100000 -0.733143
v 0.804488 2.420000 -0.329256
v -1.559051 2.420000 0.087500
v 1.986257 -0.010000 -0.537633
v 0.804488 -0.045286 -0.329256
v 1.986257 -0.045286 -0.537633
v 0.449957 2.420000 -0.266742
v -1.913581 2.420000 0.150013
v 0.305351 -0.010000 -2.641713
v 0.305351 2.420000 -2.641713
v -0.048892 -0.010000 -4.650721
v -0.048892 2.420000 -4.650721
v 0.715855 -0.010000 -0.313627
v 0.347026 -0.010000 -2.405359
v 0.715855 2.420000 -0.313627
v 0.347026 2.420000 -2.405359
v 2.486581 -0.100000 -4.183910
v 3.132553 -0.100000 -0.520424
v 2.726216 -0.100000 -2.824875
v 2.684541 -0.100000 -3.061229
v 2.684541 -0.010000 -3.061229
v 2.726216 -0.010000 -2.824875
v 2.455325 -0.010000 -4.361175
v 3.132553 -0.010000 -0.520424
v 2.486581 -0.010000 -4.183910
v 3.095045 -0.010000 -0.733143
v 4.408634 -0.010000 6.716588
v 3.966064 -0.010000 4.206651
v 3.549308 -0.010000 1.843114
v 5.531565 -0.100000 -1.162767
v 5.569073 -0.100000 -0.950049
v 5.162737 -0.100000 -3.254499
v 5.121062 -0.100000 -3.490853
v 4.408634 -0.100000 6.716588
v 3.966064 -0.100000 4.206651
v 7.229191 -0.100000 7.968179
v 7.973017 -0.100000 -8.031826
v 7.973017 -0.100000 -5.677125
v 7.973015 -0.100000 -5.499859
v 0.773503 -0.100000 -8.034362
v -2.771810 -0.100000 -8.031826
v -0.408271 -0.100000 -8.031828
v -0.762802 -0.100000 -8.031826
v -3.126340 -0.100000 -8.031826
v -5.135349 -0.100000 -8.031826
v -5.489879 -0.100000 -8.031825
v -6.397206 -0.100000 -8.031829
v -8.003279 -0.100000 -8.031826
v -7.999998 -0.010000 -5.868526
v 7.973022 -0.100000 -3.254499
v 7.973019 -0.100000 -3.490853
v 7.973018 -0.100000 -1.162767
v 7.973018 -0.100000 -0.950049
v 7.973022 -0.100000 0.527163
v 7.973016 -0.100000 3.777030
v 8.001995 -0.100000 7.968178
v -7.999998 -0.100000 -5.868526
v -7.999999 5.389998 7.968184
v 4.627313 -0.100000 7.968179
v 4.408632 -0.110000 6.716586
v 4.408632 -0.010000 6.716586
v 3.299840 -0.010000 6.912098
v 2.118069 -0.045286 7.131852
v 1.763551 -0.010000 7.968183
v 4.627315 -0.110000 7.968181
v 4.627315 -0.010000 7.968181
v 3.484045 -0.010000 7.968181
v 2.265538 -0.049207 7.968183
v 3.484045 -0.049207 7.968181
v 2.265538 -0.010000 7.968183
v -0.211646 -0.010000 7.968183
v -0.555488 -0.010000 7.968183
v -7.999998 -0.100000 -5.868526
v -7.999998 -0.010000 -3.431502
v -7.999998 -0.010000 -3.248725
v -7.999998 -0.010000 3.879570
v -7.999998 5.389998 3.879570
v -7.999999 -0.010000 7.968184
v -3.150072 -0.010000 7.968178
vt 0.808333 1.000000
vt 0.666667 1.000000
vt 0.666667 1.000000
vt 0.808333 1.000000
vt 1.000000 0.833333
vt 1.000000 1.000000
vt 1.000000 1.000000
vt 1.000000 0.833333
vt 0.941667 0.166667
vt 0.941667 0.333333
vt 0.941667 0.333333
vt 0.941667 0.166667
vt 0.641667 1.000000
vt 0.500000 1.000000
vt 0.500000 1.000000
vt 0.641667 1.000000
vt 0.916667 1.000000
vt 0.916667 1.000000
vt 0.833333 0.333333
vt 0.833333 0.166667
vt 0.833333 0.166667
vt 0.833333 0.333333
vt 0.833333 0.820833
vt 0.833333 0.666667
vt 0.833333 0.666667
vt 0.833333 0.820833
vt 0.833333 0.000000
vt 0.833333 0.000000
vt 0.916667 0.000000
vt 0.916667 0.166667
vt 0.916667 0.166667
vt 0.916667 0.000000
vt 0.833333 0.500000
vt 0.833333 0.500000
vt 0.833333 0.833333
vt 0.916667 0.833333
vt 0.916667 1.000000
vt 0.833333 1.000000
vt 0.916667 0.820833
vt 0.833333 0.650000
vt 0.916667 0.650000
vt 0.916667 0.666667
vt 0.916667 0.333333
vt 0.916667 0.500000
vt 0.000000 0.000000
vt 0.000000 0.000000
vt 0.916667 0.833333
vt 0.916667 0.820833
vt 0.916667 0.650000
vt 0.916667 0.666667
vt 0.916667 0.333333
vt 0.916667 0.500000
vt 0.833333 1.000000
vt 0.833333 0.833333
vt 0.833333 1.000000
vt 0.475000 1.000000
vt 0.475000 1.000000
vt 0.354583 1.000000
vt 0.354583 1.000000
vt 0.833333 0.650000
vt 0.916667 0.515000
vt 0.916667 0.515000
vt 0.833333 0.515000
vt 0.833333 0.515000
vt 0.916667 0.666667
vt 0.916667 0.820833
vt 0.916667 0.820833
vt 0.916667 0.666667
vt 0.916667 0.650000
vt 0.916667 0.650000
vt 0.916667 0.500000
vt 0.916667 0.515000
vt 0.916667 0.515000
vt 0.916667 0.500000
vt 0.941667 0.333333
vt 0.941667 0.333333
vt 0.000000 0.000000
vt 0.916667 0.820833
vt 0.941667 0.000000
vt 0.941667 0.166667
vt 0.941667 0.166667
vt 0.941667 0.000000
vt 0.000000 0.000000
vt 0.916667 0.833333
vt 0.354583 1.000000
vt 0.354583 1.000000
vt 0.000000 0.000000
vt 0.000000 0.000000
vt 0.000000 0.000000
vt 0.000000 0.000000
vt 1.000000 0.666667
vt 1.000000 0.587957
vt 1.000000 0.587957
vt 1.000000 0.666667
vt 0.000000 0.000000
vt 0.000000 0.000000
vt 0.500000 0.333333
vt 0.500000 0.333333
vt 0.500000 0.333333
vt 0.500000 0.333333
vt 0.500000 0.333333
vt 0.000000 0.000000
vt 0.425000 0.283333
vt 0.475000 0.333333
vt 0.354583 0.333333
vt 0.063750 0.042500
vt 0.000000 0.000000
vt 0.475000 0.333333
vt 0.000000 0.000000
vt 0.000000 0.000000
vt 0.354583 0.333333
vt 0.916667 0.650000
vt 0.916667 0.666667
vt 0.916667 0.500000
vt 0.916667 0.515000
vt 0.000000 0.000000
vt 0.000000 0.000000
vt 0.000000 0.000000
vt 0.666667 1.000000
vt 0.641667 1.000000
vt 0.833333 1.000000
vt 0.808333 1.000000
vt 0.000000 0.000000
vt 0.000000 0.000000
vt 0.000000 0.000000
vt 0.916667 0.650000
vt 0.916667 0.666667
vt 0.916667 0.500000
vt 0.916667 0.515000
vt 0.000000 0.000000
vt 0.000000 0.000000
vt 0.000000 0.000000
vt 0.000000 0.000000
vt 0.000000 0.000000
vt 0.000000 0.000000
vt 0.000000 0.000000
vt 0.000000 0.000000
vt 0.000000 0.000000
vt 0.000000 0.000000
vt 0.000000 0.000000
vt 0.000000 0.000000
vt 0.916667 0.833333
vt 0.808333 0.333333
vt 0.808333 0.500000
vt 0.475000 0.833333
vt 0.500000 0.833333
vt 0.641667 0.833333
vt 0.666667 0.833333
vt 0.808333 0.833333
vt 0.500000 0.833333
vt 0.641667 0.833333
vt 0.641667 0.333333
vt 0.641667 0.333333
vt 0.641667 0.333333
vt 0.808333 0.191667
vt 0.666667 0.333333
vt 0.666667 0.333333
vt 0.808333 0.050000
vt 0.666667 0.333333
vt 0.666667 0.500000
vt 0.641667 0.500000
vt 0.500000 0.500000
vt 0.354583 0.833333
vt 0.475000 0.500000
vt 0.354583 0.500000
vt 0.666667 0.833333
vt 0.808333 0.833333
vt 0.354583 0.833333
vt 0.475000 0.833333
vt 0.833333 0.820833
vt 0.833333 0.666667
vt 0.833333 0.650000
vt 0.833333 0.515000
vt 0.916667 0.666667
vt 0.916667 0.587957
vt 0.000000 0.000000
vt 0.000000 0.000000
vt 0.000000 0.000000
vt 0.000000 0.000000
vt 0.000000 0.000000
vt 0.833333 0.666667
vt 0.833333 0.650000
vt 0.666667 0.500000
vt 0.641667 0.500000
vt 0.500000 0.833333
vt 0.500000 0.833333
vt 0.833333 0.500000
vt 0.808333 0.500000
vt 0.833333 0.833333
vt 0.833333 0.820833
vt 0.641667 0.500000
vt 0.666667 0.500000
vt 0.666667 0.500000
vt 0.641667 0.500000
vt 0.808333 0.627500
vt 0.808333 0.641667
vt 0.641667 0.833333
vt 0.666667 0.833333
vt 0.475000 0.550000
vt 0.500000 0.500000
vt 0.475000 0.833333
vt 0.808333 0.833333
vt 0.808333 0.818958
vt 0.500000 0.500000
vt 0.500000 0.500000
vt 0.475000 0.545000
vt 0.475000 0.500000
vt 0.354583 0.500000
vt 0.354583 0.790833
vt 0.354583 0.761750
vt 0.475000 0.504500
vt 0.354583 0.526175
vt 0.641667 0.833333
vt 0.666667 0.833333
vt 0.808333 0.833333
vt 0.354583 0.833333
vt 0.475000 0.833333
vt 0.808333 0.512750
vt 0.833333 0.650000
vt 0.833333 0.515000
vt 0.833333 0.666667
vt 0.833333 0.820833
vt 0.500000 0.500000
vt 0.641667 0.500000
vt 0.666667 0.500000
vt 0.000000 0.000000
vt 0.000000 0.000000
vt 0.833333 0.515000
vt 0.000000 0.000000
vn -0.1736 0.0000 -0.9848
vn 0.9847 0.0025 -0.1744
vn 0.9848 0.0000 -0.1736
vn -0.1709 0.0139 -0.9852
vn 0.9849 0.0000 -0.1729
vn -0.9848 0.0000 0.1736
vn 0.0000 1.0000 0.0000
vn -0.4998 0.0000 -0.8661
vn 0.4998 0.0000 0.8661
vn 0.1736 0.0000 0.9848
vn 0.9848 -0.0000 -0.1737
vn -0.9851 0.0000 0.1718
vn 0.0004 1.0000 0.0041
vn 0.9851 0.0000 -0.1721
vn 0.9848 -0.0002 -0.1736
vn 0.9860 0.0000 -0.1666
vn -1.0000 0.0000 -0.0000
vn 0.0000 -0.0000 1.0000
vn -0.1737 0.0000 -0.9848
vn 0.0000 -1.0000 0.0000
vn -0.9848 0.0000 0.1737
usemtl MARSINDX_246
s off
f 67/1/1 5/2/1 24/3/1 71/4/1
f 3/5/2 7/6/2 26/7/2 22/8/2
f 1/9/3 2/10/3 11/11/3 12/12/3
f 77/13/1 4/14/1 23/15/1 81/16/1
f 7/6/4 45/17/4 52/18/4 26/7/4
f 13/19/3 10/20/3 54/21/3 56/22/3
f 120/23/3 18/24/3 60/25/3 124/26/3
f 10/20/5 9/27/5 53/28/5 54/21/5
f 46/29/6 47/30/6 55/31/6 66/32/6
f 17/33/3 13/19/3 56/22/3 58/34/3
f 62/35/7 63/36/7 65/37/7 64/38/7
f 124/26/7 125/39/7 63/36/7 62/35/7
f 133/40/7 134/41/7 61/42/7 60/25/7
f 56/22/7 57/43/7 59/44/7 58/34/7
f 54/21/7 55/31/7 57/43/7 56/22/7
f 53/28/7 66/32/7 55/31/7 54/21/7
f 6/45/1 64/38/1 65/37/1 45/46/1
f 51/47/6 52/18/6 65/37/6 63/36/6
f 123/48/6 51/47/6 63/36/6 125/39/6
f 132/49/6 50/50/6 61/42/6 134/41/6
f 48/51/6 49/52/6 59/44/6 57/43/6
f 25/53/3 19/54/3 62/35/3 64/38/3
f 47/30/6 48/51/6 57/43/6 55/31/6
f 6/55/1 67/1/1 71/4/1 25/53/1
f 5/2/1 77/13/1 81/16/1 24/3/1
f 4/14/1 87/56/1 91/57/1 23/15/1
f 87/56/1 98/58/1 102/59/1 91/57/1
f 50/50/6 123/48/6 125/39/6 61/42/6
f 60/25/7 61/42/7 125/39/7 124/26/7
f 19/54/3 120/23/3 124/26/3 62/35/3
f 18/24/3 127/60/3 133/40/3 60/25/3
f 146/61/6 132/49/6 134/41/6 148/62/6
f 147/63/7 148/62/7 134/41/7 133/40/7
f 58/34/7 59/44/7 148/62/7 147/63/7
f 49/52/6 146/61/6 148/62/6 59/44/6
f 127/60/3 142/64/3 147/63/3 133/40/3
f 162/65/3 159/66/3 167/67/3 163/68/3
f 161/69/3 162/65/3 163/68/3 164/70/3
f 160/71/3 143/72/3 168/73/3 166/74/3
f 143/72/3 161/69/3 164/70/3 168/73/3
f 128/75/3 160/71/3 166/74/3 171/76/3
f 171/76/8 11/11/8 2/10/8 128/75/8
f 159/66/9 121/77/9 27/78/9 167/67/9
f 176/79/3 177/80/3 170/81/3 169/82/3
f 177/80/10 1/9/10 12/12/10 170/81/10
f 3/83/11 28/84/11 27/78/11 121/77/11
f 102/59/1 98/58/1 199/85/1 191/86/1
f 46/29/12 66/32/12 211/87/12 209/88/12
f 66/32/13 205/89/13 210/90/13 211/87/13
f 203/91/14 208/92/14 207/93/14 202/94/14
f 212/95/15 210/90/15 205/89/15 9/96/15
usemtl MARSINDX_21
f 39/97/3 14/98/3 42/99/3 43/100/3
f 41/101/16 39/97/16 43/100/16 44/102/16
f 96/103/7 95/104/7 107/105/7 104/106/7
f 44/102/7 43/100/7 96/103/7 97/107/7
f 43/100/7 42/99/7 95/104/7 96/103/7
f 14/98/1 88/108/1 95/104/1 42/99/1
f 97/107/7 96/103/7 104/106/7 105/109/7
f 178/110/7 1/9/7 177/80/7 176/79/7
f 88/108/1 99/111/1 107/105/1 95/104/1
f 174/112/7 175/113/7 162/65/7 161/69/7
f 173/114/7 172/115/7 143/72/7 160/71/7
f 172/115/7 174/112/7 161/69/7 143/72/7
f 159/66/7 162/65/7 175/113/7 121/77/7
f 160/71/7 128/75/7 2/10/7 173/114/7
f 180/116/7 179/117/7 7/6/7 3/5/7
f 45/17/7 7/6/7 182/118/7
f 77/13/7 5/2/7 183/119/7 186/120/7
f 67/1/7 6/55/7 184/121/7 185/122/7
f 5/2/7 67/1/7 185/122/7 183/119/7
f 98/58/7 87/56/7 188/123/7 189/124/7
f 188/123/7 87/56/7 4/14/7 187/125/7
f 4/14/7 77/13/7 186/120/7 187/125/7
f 6/55/7 45/17/7 182/118/7 184/121/7
f 175/113/7 174/112/7 192/126/7 193/127/7
f 172/115/7 173/114/7 195/128/7 194/129/7
f 121/77/7 181/130/7 180/116/7 3/83/7
f 175/113/7 193/127/7 181/130/7 121/77/7
f 172/115/7 194/129/7 192/126/7 174/112/7
f 196/131/7 195/128/7 173/114/7 2/10/7
f 1/9/7 197/132/7 196/131/7 2/10/7
f 178/110/7 198/133/7 197/132/7 1/9/7
f 178/110/7 176/79/7 201/134/7
f 215/135/7 98/58/7 189/124/7 190/136/7
f 107/105/1 99/111/1 218/137/1 219/138/1
f 200/139/7 105/109/7 104/106/7
f 220/140/17 200/139/17 219/138/17 218/137/17
f 219/138/7 200/139/7 104/106/7 107/105/7
f 221/141/18 41/101/18 44/102/18 97/107/18
usemtl MARSINDX_156
f 165/142/7 28/84/7 51/47/7
f 170/81/7 47/30/7 46/29/7 169/82/7
f 68/143/7 13/19/7 17/33/7 69/144/7
f 90/145/7 21/146/7 23/15/7 91/57/7
f 80/147/7 20/148/7 24/3/7 81/16/7
f 171/76/7 48/51/7 47/30/7 170/81/7
f 70/149/7 19/54/7 25/53/7 71/4/7
f 51/47/7 22/8/7 26/7/7 52/18/7
f 80/147/7 21/146/7 109/150/7 110/151/7
f 78/152/7 14/98/7 39/97/7 85/153/7
f 85/153/7 39/97/7 41/101/7 86/154/7
f 76/155/7 38/156/7 40/157/7 75/158/7
f 13/19/7 68/143/7 76/155/7 10/20/7
f 10/20/7 76/155/7 75/158/7 9/27/7
f 20/148/7 70/149/7 71/4/7 24/3/7
f 8/159/7 68/143/7 69/144/7 16/160/7
f 38/156/7 85/153/7 86/154/7 40/157/7
f 8/159/7 78/152/7 85/153/7 38/156/7
f 21/146/7 80/147/7 81/16/7 23/15/7
f 14/98/7 78/152/7 79/161/7 15/162/7
f 101/163/7 90/145/7 91/57/7 102/59/7
f 99/111/7 88/108/7 89/164/7 100/165/7
f 70/149/7 20/148/7 112/166/7 111/167/7
f 90/145/7 101/163/7 118/168/7 116/169/7
f 18/24/7 120/23/7 153/170/7 151/171/7
f 142/64/7 127/60/7 156/172/7 155/173/7
f 132/49/7 164/70/7 163/68/7 50/50/7
f 49/52/7 166/74/7 168/73/7 146/61/7
f 146/61/7 168/73/7 164/70/7 132/49/7
f 49/52/7 48/51/7 171/76/7 166/74/7
f 165/142/7 167/67/7 27/78/7 28/84/7
f 165/142/7 51/47/7 123/48/7 167/67/7
f 171/76/7 170/81/7 12/12/7 11/11/7
f 50/50/7 163/68/7 167/67/7 123/48/7
f 88/108/7 14/98/7 15/162/7 89/164/7
f 38/156/7 76/155/7 68/143/7 8/159/7
f 78/152/7 8/159/7 16/160/7 79/161/7
f 203/91/7 204/174/7 209/175/7 208/92/7
f 86/154/7 214/176/7 213/177/7 40/157/7
f 40/157/7 213/177/7 206/178/7 75/158/7
f 75/158/7 206/178/7 212/95/7 9/96/7
f 41/101/7 214/176/7 86/154/7
f 216/179/7 101/163/7 102/59/7 191/86/7
f 217/180/7 118/168/7 101/163/7 216/179/7
f 218/137/7 99/111/7 100/165/7
f 217/180/7 218/137/7 100/165/7 118/168/7
usemtl MARSINDX_255
f 127/60/3 18/24/3 29/181/3 129/182/3
f 79/161/10 16/160/10 30/183/10 82/184/10
f 21/146/3 34/185/3 108/186/3 109/150/3
f 69/144/10 17/33/10 32/187/10 72/188/10
f 120/23/3 19/54/3 35/189/3 122/190/3
f 136/191/7 130/192/7 36/193/7 84/194/7
f 135/195/7 129/182/7 29/181/7 74/196/7
f 83/197/7 84/194/7 36/193/7 33/198/7
f 94/199/7 37/200/7 34/185/7 93/201/7
f 142/64/3 17/33/3 58/34/3 147/63/3
f 122/190/7 35/189/7 73/202/7 126/203/7
f 130/192/7 135/195/7 74/196/7 36/193/7
f 16/160/10 69/144/10 72/188/10 30/183/10
f 19/54/19 70/149/19 73/202/19 35/189/19
f 131/204/7 136/191/7 84/194/7 37/200/7
f 20/148/19 80/147/19 83/197/19 33/198/19
f 15/162/10 79/161/10 82/184/10 31/205/10
f 131/204/7 37/200/7 94/199/7 137/206/7
f 21/146/1 90/145/1 93/201/1 34/185/1
f 100/165/10 89/164/10 92/207/10 103/208/10
f 137/206/7 94/199/7 106/209/7 138/210/7
f 140/211/7 137/206/7 138/210/7 141/212/7
f 34/185/20 83/197/20 114/213/20 108/186/20
f 111/167/1 112/166/1 113/214/1 115/215/1
f 110/151/1 109/150/1 108/186/1 114/213/1
f 116/169/1 118/168/1 119/216/1 117/217/1
f 20/148/3 33/198/3 113/214/3 112/166/3
f 73/202/6 70/149/6 111/167/6 115/215/6
f 83/197/6 80/147/6 110/151/6 114/213/6
f 33/198/20 73/202/20 115/215/20 113/214/20
f 93/201/21 90/145/21 116/169/21 117/217/21
f 149/218/20 135/195/20 158/219/20 157/220/20
f 122/190/20 29/181/20 152/221/20 154/222/20
f 139/223/7 131/204/7 137/206/7 140/211/7
f 139/223/7 150/224/7 136/191/7 131/204/7
f 145/225/7 149/218/7 135/195/7 130/192/7
f 126/226/7 74/227/7 152/221/7 154/222/7
f 150/224/7 145/225/7 130/192/7 136/191/7
f 117/217/20 94/199/20 106/209/20 119/216/20
f 29/181/19 18/24/19 151/171/19 152/221/19
f 17/33/3 142/64/3 144/228/3 32/187/3
f 82/184/7 30/183/7 145/225/7 150/224/7
f 72/188/7 32/187/7 144/228/7 149/218/7
f 30/183/7 72/188/7 149/218/7 145/225/7
f 31/205/7 82/184/7 150/224/7 139/223/7
f 31/205/7 139/223/7 140/211/7 92/207/7
f 92/207/7 140/211/7 141/212/7 103/208/7
f 151/171/3 153/170/3 154/222/3 152/221/3
f 155/173/3 156/172/3 158/219/3 157/220/3
f 120/23/10 122/190/10 154/222/10 153/170/10
f 127/60/10 129/182/10 158/219/10 156/172/10
f 129/182/20 144/228/20 157/220/20 158/219/20
f 144/228/19 142/64/19 155/173/19 157/220/19
f 74/227/7 126/226/7 113/229/7 36/193/7
f 37/200/7 84/194/7 114/213/7 108/186/7
f 89/164/10 15/162/10 31/205/10 92/207/10
f 106/209/6 119/216/6 118/168/6
f 118/168/6 100/165/6 138/210/6
f 100/165/6 103/208/6 141/212/6
f 141/212/6 138/210/6 100/165/6
f 138/210/6 106/209/6 118/168/6
